<svg version="1.1" xmlns="http://www.w3.org/2000/svg" viewBox="0 0 340 340" width="340" height="340">
  <!-- svg-source:excalidraw -->
  
  <defs>
    <style>
      @font-face {
        font-family: "Virgil";
        src: url("https://excalidraw.com/Virgil.woff2");
      }
      @font-face {
        font-family: "Cascadia";
        src: url("https://excalidraw.com/Cascadia.woff2");
      }
    </style>
  </defs>
  <rect x="0" y="0" width="340" height="340" fill="#ffffff"></rect><g stroke-opacity="0.5" fill-opacity="0.5" stroke-linecap="round" transform="translate(138 10) rotate(0 32 32)"><path d="M0 0 C0 0, 0 0, 0 0 M0 0 C0 0, 0 0, 0 0 M-0.16 6.79 C0.46 5.13, 1.88 2.86, 5.09 -0.25 M0.05 6.44 C1.61 4.64, 2.77 2.7, 5.08 0.18 M0.3 11.48 C2.2 8.26, 6.38 5.77, 11.24 -1.48 M0.75 12.28 C4.06 9.05, 6.84 4.16, 11.32 0.41 M-0.05 17.06 C2.71 14.66, 6.05 8.96, 16.54 0.77 M0.63 19.29 C5.59 12.02, 11.64 5.17, 15.26 1.13 M2.06 24.02 C7.78 15.2, 12.58 8.27, 19.31 -0.48 M0.73 23.62 C4.55 18.25, 8.36 14.3, 20.35 -0.49 M-1.13 28.68 C9.56 20.51, 17.78 12.1, 25.61 -1.07 M0.46 29.72 C9.76 19.81, 17.9 9.44, 27.22 0.72 M-2.09 38.38 C13.31 24.41, 23.64 12.82, 33.68 -1.68 M0.54 37.71 C11.22 25.01, 21.25 11.9, 31.77 -1.04 M-0.06 42.78 C11.94 28.13, 26.98 10.68, 38.65 1.07 M0.73 41.65 C14.18 25.52, 27.77 9.27, 36.69 0.53 M-1.24 47.32 C14.63 31.92, 27.57 17.06, 41.61 1.7 M0.52 48.65 C9.94 37.04, 19.97 25.07, 42.28 -0.31 M1.62 53.12 C13.26 39.49, 28.51 21.03, 46.16 -0.81 M1.25 53.57 C18.49 33.35, 37.17 12.6, 47.85 -0.41 M1.81 62.21 C13.88 42.56, 33.15 23.86, 51.47 0.02 M-0.48 61.89 C17.24 42.43, 33.55 23.01, 52.51 0.15 M0.98 63.17 C22.95 41.31, 42.33 18.15, 56.87 -0.49 M1.29 64.12 C20.3 43.2, 39.87 21.25, 58.52 1.02 M5.76 64.34 C25.83 45.52, 41.35 24.79, 62.9 0.86 M7.23 64.71 C20.77 48.93, 33.1 34.06, 64.18 -0.58 M12.91 66.07 C25.75 48.48, 42.61 31.18, 65.88 2.72 M11.75 65.01 C31.78 42.27, 51.58 19.95, 67.14 3.38 M16.4 65.8 C33.49 47.21, 48.66 29.93, 64.96 8.06 M16.75 66.1 C34.47 47.77, 49.27 28.16, 67.26 9.31 M24.53 65.81 C37.68 45.69, 51.95 28.1, 65.93 13.04 M22.61 65.23 C32.56 52.94, 43.63 40.29, 67.16 14.65 M28.49 66.4 C39.4 54.23, 50.72 41.27, 67.13 19.59 M27.47 64.71 C42.4 47.38, 58.05 30.69, 65.96 21.13 M35.43 65.04 C42.37 53.92, 56.14 42.36, 65.17 25.51 M34.13 65.84 C46.79 51.31, 57.98 37.34, 67.75 26.58 M37.02 65.62 C50.34 54.48, 60.31 40.87, 65.5 31.69 M39.34 65.8 C46.56 57.6, 53.11 48.02, 65.96 32.89 M42.49 65.6 C50.34 57.34, 58.81 48.68, 64.82 40 M44.69 65.54 C52.89 55.02, 60.08 45.77, 66.5 39.63 M47.23 65.2 C57.08 55.79, 65.19 48.94, 68.87 44.78 M49.91 64.75 C54.02 60.13, 59.08 54.04, 67.43 44.24 M53.24 67.25 C58.33 63.48, 59.97 60.32, 68.27 50.34 M55.06 66.39 C56.62 62.38, 60.29 60.08, 67.52 51.16 M60.31 66.25 C62.13 64.16, 63.54 61.49, 67.19 57.84 M59.57 65.73 C62.07 63.55, 63.19 61.01, 66.84 56.7" stroke="#868e96" stroke-width="0.5" fill="none"></path><path d="M-1.42 0.19 C22.26 -0.93, 42.9 -0.56, 62.06 1.58 M0.58 -0.55 C14.74 -0.25, 28.63 -0.56, 63.14 -0.2 M65.22 -0.61 C64.84 24.57, 61.83 48.8, 64.88 65.1 M64.65 -0.7 C62.87 24.64, 64.37 49.95, 63.87 64.36 M64.47 64.29 C45.17 63.74, 32.09 63.22, -0.34 63.28 M64.69 63.45 C39.02 63.54, 13.08 64.73, 0.63 64.87 M1.52 63.93 C0.28 43.22, 1.61 22.24, 1.45 -0.87 M-0.09 64.77 C0.14 44.68, 1.13 26.45, 0.76 0.92" stroke="#000000" stroke-width="1" fill="none"></path></g><g stroke-opacity="0.5" fill-opacity="0.5" stroke-linecap="round" transform="translate(106 74) rotate(0 32 32)"><path d="M0 0 C0 0, 0 0, 0 0 M0 0 C0 0, 0 0, 0 0 M-0.29 6.83 C0.17 4.92, 1.39 2.98, 4.82 -0.37 M-0.45 6.27 C0.53 4.76, 2.06 3.49, 4.82 0.4 M-1.3 13.31 C3.37 9.17, 7.84 3.05, 9.54 0.85 M-0.47 12.57 C4.16 7, 8.43 3.63, 10.97 0.41 M1.38 20.42 C4.49 14.81, 10.1 11.04, 14.04 0.94 M0.71 18.93 C3.47 14.54, 5.76 10.88, 14.68 1.1 M0.53 22.26 C9.28 14.81, 15.29 8.62, 22.07 1.78 M-0.61 23.97 C7.37 14.23, 15.34 6.23, 21.54 0.34 M-1.59 30.99 C9.21 18.62, 20.57 7.9, 28.09 -0.93 M-0.26 30.52 C8.6 20.04, 17.18 9.78, 26.08 0.18 M-1.7 36.48 C11.63 24.95, 20.1 9.48, 30.86 1.83 M-1.25 36.06 C7.8 26.75, 16.35 19.03, 31.25 -0.08 M1.39 40.69 C13.36 28.36, 26.36 10.1, 37.07 0.47 M1.07 42.67 C8.3 33.86, 15.52 24.48, 37.2 0.86 M-2.05 49.72 C11.61 35.06, 23.9 20.03, 41.84 0.63 M-1.1 47.95 C9.68 37.36, 19.47 27.01, 43.35 -0.16 M-0.84 56.35 C11.76 41.44, 22.45 26.63, 48.57 -1.04 M-0.47 55.27 C14.68 36.18, 30.71 19.38, 47.14 -0.09 M1.02 59.92 C17.61 42.03, 34.48 19.93, 53.46 0.92 M-0.04 60.47 C10.07 49.01, 20.62 37.06, 54.12 -0.19 M2.1 66.54 C17.06 47.98, 33.46 25.19, 57.38 0.63 M2.4 65.84 C13.98 51.74, 24.23 39.41, 58.63 0.71 M7.49 65.01 C26.01 39.59, 46.87 16.46, 62.36 -1.33 M6.91 64.78 C29.4 39.48, 51.57 14.2, 63.97 -0.36 M13.36 65.57 C31.37 45.36, 48.8 24.65, 65.54 4.15 M11.68 64.43 C26.76 47.83, 42.56 29.5, 67.07 2.51 M17.38 63.77 C32.15 50.62, 46.51 30.86, 65.55 10.24 M18.19 66.2 C33.16 47.45, 48.48 31.33, 66.62 9.31 M23.25 66.66 C33.33 55.77, 40.93 41.37, 65.72 13.72 M23.43 65.86 C40.91 45, 56.95 24.55, 66.93 14.48 M28.61 64.76 C39.89 53.29, 50.75 36.9, 67.37 22.13 M28.55 66.17 C42.52 47.56, 57.82 30.14, 67.01 21.81 M33.49 65.75 C40.37 57.56, 49.94 48, 66.91 26.48 M33.04 64.45 C43.97 53.12, 53.42 43.53, 66.36 25.99 M40.25 66.33 C47.07 56.98, 54.42 51.26, 65.75 31.16 M39.35 65.2 C49.06 53.74, 60.53 41.44, 66.62 32.25 M46.01 66.03 C53.02 57.19, 58.88 48.64, 68.12 38.42 M45.06 65.66 C52.12 56.14, 58.58 48.04, 66.03 39.64 M50.59 67.06 C51.97 59.18, 57.81 55.96, 66.22 46.46 M49.56 64.44 C55.45 58.63, 61.3 51.5, 66.44 44.89 M52.4 64.82 C59.09 62.58, 62.91 55.58, 67.49 49.62 M53.55 65.81 C59.91 60.49, 64.51 54.31, 67.15 51.33 M59.47 64.49 C61.56 62.85, 63.61 61.23, 66.77 56.67 M60.38 64.92 C61.29 62.88, 62.87 61.67, 66.81 57.04" stroke="#868e96" stroke-width="0.5" fill="none"></path><path d="M-0.07 -0.05 C15.55 0.79, 30.89 0.97, 63.13 -0.22 M0.77 -0.14 C15.56 0.91, 32.22 0.81, 64.92 -0.78 M63.41 0.42 C62.38 23.36, 63.65 48.63, 64.33 65.68 M63.69 -0.28 C62.84 12.54, 62.79 26.85, 63.83 63.45 M64.98 62.69 C41.05 63.12, 15.53 64.34, -1.53 64.3 M64.1 64.61 C42.81 63.87, 21.12 64.73, -0.46 63.27 M-0.7 63.55 C-1.2 48.99, -0.88 31.19, -1.8 0.18 M0.29 64.96 C0.95 40.71, -0.51 17.54, 0.55 -0.7" stroke="#000000" stroke-width="1" fill="none"></path></g><g stroke-opacity="0.5" fill-opacity="0.5" stroke-linecap="round" transform="translate(170 74) rotate(0 32 32)"><path d="M0 0 C0 0, 0 0, 0 0 M0 0 C0 0, 0 0, 0 0 M-0.4 5.79 C0.48 4.49, 2.09 2.12, 5.71 0.73 M-0.61 6.59 C0.72 4.73, 2.46 3.58, 5.06 0.13 M1.47 12.35 C1.73 8.44, 5.34 8.25, 10.68 0.7 M-0.29 12.39 C3.18 9.67, 5.2 6.29, 9.99 -0.77 M0.77 20.41 C7.39 10.03, 12.12 2.85, 16.41 1.91 M-0.25 18.04 C5.7 10.48, 12.64 5.04, 15.17 0.23 M-0.4 24 C8.84 17.18, 15.48 10.08, 19.48 1.11 M-0.69 23.69 C4.57 19.37, 9.64 14.57, 21.12 -0.63 M-1.09 32.03 C4.79 25.72, 10.26 17.96, 25.04 1.57 M-0.12 29.83 C6.94 22.15, 14.24 14.56, 26.57 0.97 M0.95 34.9 C5.79 27.29, 16.39 18.74, 30.85 1.86 M-1.13 37.76 C6.85 28.78, 12.99 22.58, 31.21 0.8 M1.51 42.02 C12.15 27.45, 27.37 10.1, 37.9 -0.72 M0.08 42.84 C13.88 25.95, 29.57 8.84, 37.83 -0.11 M-0.25 49.26 C7.1 38.22, 17.82 27.49, 41.42 -1 M-0.63 48.71 C9.37 39.91, 17.61 28.66, 42.24 -0.61 M0.57 52.88 C10.45 42.46, 21.62 28.61, 49.5 1.28 M-0.2 54.84 C10.94 42.12, 20.89 30.49, 47.51 0.5 M1.21 60.7 C18.03 39.77, 38.67 16.05, 54.08 -1.37 M0.02 60.51 C16.32 44.06, 31.65 25.03, 53.94 -0.64 M3.64 63.8 C17.69 43.87, 37.72 22.02, 57.6 -0.98 M1.4 64.19 C22.75 41.4, 43.34 17.61, 57.28 0.96 M5.06 63.73 C25.23 42.29, 44.49 23.29, 63.99 -0.94 M6.37 65.46 C25.67 44.42, 43.6 23.42, 64.67 0.06 M13.14 66.68 C31.74 41.31, 52.12 20.21, 67.3 1.44 M12.41 64.9 C24.72 51.11, 38.22 36.08, 66.95 3.33 M19.09 66.68 C30.79 47.09, 48.99 31.05, 64.72 9.86 M16.88 66.04 C36.53 43.54, 55.3 20.9, 66.52 8.03 M24.72 63.23 C35.05 47.85, 49.41 34.96, 66.37 15.95 M22.93 64.7 C36.87 47.26, 52.89 29.88, 66.85 13.58 M29.08 64.58 C39.24 51.27, 55.1 37.64, 67.26 21.76 M27.83 64.92 C41.46 49.95, 56.35 33.14, 67.3 19.86 M35.47 64.82 C45.23 53.74, 53.12 42.22, 66.97 27.88 M32.83 65.9 C42.46 54.61, 49.6 45.39, 66.51 25.99 M38.03 67.16 C50.91 51.69, 58.29 41.88, 66.23 34.69 M39.51 65.86 C50.12 53.06, 59.19 41.26, 65.81 33.31 M44.79 65.05 C52.98 56.4, 60.55 45.33, 67.33 38.28 M43.61 64.97 C52.17 54.45, 61.47 44.6, 67.37 40.01 M48.22 65.39 C56.34 57.22, 63.62 51.22, 65.93 43.85 M49.36 65.26 C55.25 57.99, 61.18 51.88, 66.84 44.29 M55.6 66.43 C55.77 63.5, 57.66 61.38, 65.04 53.11 M54.68 66.22 C56.88 62.75, 59.91 58.57, 66.96 50.55 M59.49 65.35 C61.98 62.79, 63.43 60, 68.1 57.89 M59.33 65.21 C62.86 61.74, 65.68 59.22, 66.92 56.9" stroke="#868e96" stroke-width="0.5" fill="none"></path><path d="M1.28 -0.86 C20.44 -0.77, 37.76 -0.77, 63.36 -0.18 M0.85 -0.56 C24.91 1.45, 47.51 1.47, 63.88 -0.95 M62.11 -0.27 C62.28 17.63, 65.82 32.83, 62.48 64.8 M63.02 -0.72 C63.63 17.03, 63.27 35.08, 64.39 64.13 M63.03 62.58 C41.93 62.65, 19.66 64.93, 0.54 65.56 M63.37 64.31 C44.39 63.8, 23.61 63.88, -0.18 64.1 M1.78 63.01 C0.91 45.23, 0.33 31.45, -0.07 1.53 M0.37 63.47 C0.25 43.47, -1.31 21.83, 0.87 0.04" stroke="#000000" stroke-width="1" fill="none"></path></g><g stroke-opacity="0.5" fill-opacity="0.5" stroke-linecap="round" transform="translate(74 138) rotate(0 32 32)"><path d="M0 0 C0 0, 0 0, 0 0 M0 0 C0 0, 0 0, 0 0 M-0.87 5.62 C1.49 3.54, 2.77 2.86, 5.36 -0.01 M-0.07 6.03 C1.01 4.86, 2.81 3.27, 4.76 0 M0.44 11.53 C3.06 8.26, 9.39 2.85, 11.37 -1.25 M0.48 12.82 C4.31 8.11, 7.48 2.6, 9.9 0.57 M1.84 20.23 C4.55 11.75, 10.44 4.7, 17.2 2 M-0.52 18.32 C4.34 12.92, 11.33 5.38, 15.52 0.46 M0.18 25.86 C5.29 20.96, 10.12 12.29, 22.44 -1.81 M-0.12 23.89 C6.78 17.73, 13.17 10.21, 20.7 -0.87 M1.55 29.57 C10.44 19.58, 17.85 9.77, 27.53 -0.24 M-0.64 30.24 C7.94 21.22, 16.59 12.47, 26.92 -0.43 M-2.23 35.53 C7.58 28.24, 16.46 14.91, 33.85 -2.08 M0.62 37.22 C6.08 29.12, 14.32 20.35, 32.79 0.52 M-0.36 40.84 C8.06 33.66, 13.69 25.65, 35.9 2.12 M0.46 41.88 C11.72 29.83, 22.8 16.88, 36.51 -0.71 M0.22 47.65 C13.67 33.03, 27.44 14.48, 41.66 -2.09 M-0.33 49.3 C9.47 39.17, 16.79 28.95, 42.05 -0.69 M-1.41 53.68 C19.88 32.06, 37.72 14.14, 48.57 -1.26 M0.55 54.96 C17.66 34.29, 35.84 14.44, 47.79 0.73 M-0.25 60.04 C13.42 46.57, 24.31 31.26, 51.96 -0.27 M-0.44 61.3 C14.53 45.57, 26.9 31.01, 52.68 0.02 M0.43 63.52 C22.27 40.82, 42.16 15.66, 56.97 1.56 M0.82 65.81 C23.05 41.47, 44.32 15.78, 58.91 0.58 M4.98 64.45 C21.76 46.57, 40.9 29.67, 63.04 0.21 M6.71 65.68 C20 50.19, 33.36 35.93, 64.05 0.3 M13.97 65.51 C28.23 46.17, 46.84 24.53, 65.82 1.08 M12.19 64.35 C25.99 50.24, 38.5 35.41, 67.71 2.44 M18.59 63.52 C26.79 54.11, 38.57 38.57, 67.58 10.52 M17.96 66.11 C35.86 44.72, 53.63 22.79, 65.75 8.95 M21.18 63.72 C38.44 44.59, 58.21 25.45, 68.43 15.36 M22.65 64.18 C39.46 45.68, 56.36 26.2, 66.06 14.78 M27.16 63.66 C39.05 54.46, 50.63 41.79, 67.57 22.03 M27.5 65.34 C43.18 49.54, 56.99 32.37, 65.67 20.8 M33.44 66.92 C45.02 51.66, 56.12 38.57, 68.44 25.37 M34.52 65.48 C40.79 55.27, 49.17 45.76, 66.55 27.33 M40.41 67.03 C47.16 52.37, 59.62 42.21, 68.6 34.41 M39.1 66.24 C46.55 55.19, 54.99 45.58, 67.22 33.78 M44.33 65.17 C53.53 54.93, 60.32 47.51, 65.53 40.95 M44.25 64.54 C51.8 55.92, 60.04 46.89, 67.26 39.98 M49.3 66.08 C55.51 59.04, 63.88 48.62, 65.85 45.61 M49.16 65.25 C52.46 60.92, 56.91 56.54, 66.29 43.98 M54.97 64.62 C58.14 60.21, 62.14 56.63, 68.45 50 M54.76 65.5 C58.48 61.1, 61.52 56.89, 65.89 51 M59.93 65.43 C61.21 63.11, 62.27 62.54, 67.98 58.03 M59.79 65.38 C61.29 63.47, 63.73 61.32, 67 57.32" stroke="#868e96" stroke-width="0.5" fill="none"></path><path d="M-0.86 1.45 C18.17 -0.63, 37.19 -1.05, 63.82 1.55 M-0.56 0.76 C19.25 -1.33, 37.6 -0.66, 63.05 -0.3 M63.73 -1.85 C63.84 22.24, 61.73 39.6, 64.8 63.38 M63.28 -0.19 C63.4 16.84, 64.25 35.17, 64.13 64.49 M62.58 64.26 C47.47 63.99, 34.75 64.23, 1.56 64.2 M64.31 64.23 C40.45 62.87, 17.44 63.41, 0.1 63.65 M-0.99 64.77 C-1.38 46.43, 1.82 28.43, 1.53 0.59 M-0.53 64.86 C-0.04 37.99, -0.6 14.23, 0.04 -0.69" stroke="#000000" stroke-width="1" fill="none"></path></g><g stroke-opacity="0.5" fill-opacity="0.5" stroke-linecap="round" transform="translate(138 138) rotate(0 32 32)"><path d="M0 0 C0 0, 0 0, 0 0 M0 0 C0 0, 0 0, 0 0 M-1.04 6.23 C0.13 4.42, 2.7 4.25, 4.62 0.11 M-0.63 6.23 C1.09 5.14, 2.37 3.26, 4.63 0.68 M-0.38 10.95 C3.77 10, 5.79 6.2, 9.41 1.03 M0.91 12.38 C3.87 7.94, 6.01 3.83, 11.23 0.76 M1.66 16.86 C5.45 10.51, 10.68 8.25, 17.29 1.3 M-0.25 17.5 C6.16 12.76, 10.42 5.77, 15.75 -0.59 M2.04 24.89 C9.97 16.42, 14.1 7.4, 19.52 -0.3 M0.08 24.36 C5.67 19.3, 9.87 12.65, 20.46 0.18 M-0.9 32.32 C6.4 22.43, 13.85 14.43, 25.72 0.38 M-0.23 30.31 C6.74 23.31, 13.98 15.67, 25.53 0.09 M-1.61 35.84 C12.35 23.49, 20.28 14.08, 29.91 -1.74 M0.09 36.24 C10.03 25.76, 19.26 14.63, 32.51 -1.02 M-1.55 42.72 C10.57 28.68, 21.89 17.46, 38.74 0.56 M-0.51 42.84 C14.5 26.43, 28.59 10.43, 35.91 0.66 M-1.39 48.24 C13.75 32.38, 24.97 17.9, 40.57 -2.08 M0.26 49.75 C11.93 34.92, 23.48 21.34, 41.97 0.76 M-0.61 55.63 C11.87 40.58, 28.06 26.25, 46.02 1.65 M0.67 54.19 C12.46 40.61, 25.03 26.54, 48.01 -0.3 M-0.91 61.27 C17.3 39.99, 33.71 21.72, 53.05 -1.15 M0.35 61.92 C14.2 44.82, 29.21 28.04, 53.34 0.55 M0.14 64.33 C15.87 47.08, 29.23 31.31, 59.51 1.68 M2.44 65.58 C22 43.72, 40.18 21.39, 58.53 -0.04 M5.7 64.03 C17.78 54.41, 30.77 38.39, 64.19 -1.55 M6.93 65.65 C25.62 44.02, 45.51 22.35, 64.29 0.05 M12.8 63.8 C35.31 39.51, 55.55 14.22, 65.46 1.17 M11.63 65.33 C24.97 50.53, 37.6 37.14, 66.82 1.59 M15.43 64.43 C35.23 45.68, 48.97 27.1, 68.24 10.38 M18.02 65.5 C34.34 45.66, 50.08 26.93, 66.68 9.64 M21.67 63.81 C36.03 50.82, 50.43 34.17, 67.83 16.12 M22.13 65.02 C39.33 46.45, 55.55 26.76, 67.26 14.15 M26.24 66.09 C40.82 53.8, 51.96 39.23, 67.85 22.42 M27.92 65.72 C38.51 54.1, 47.72 42.63, 66.61 21.23 M35.54 64.83 C40.98 55.74, 48.66 48.56, 65.94 25.42 M34.1 64.29 C46.47 49.1, 59.48 34.11, 67.89 26.99 M40.27 64.3 C47.36 54.68, 58.93 42.94, 68.32 32.6 M39.48 65.16 C45.29 56.62, 52.58 48.04, 67.69 33.44 M44.45 66.53 C51.52 55.95, 61.42 44.99, 68.2 40.71 M43.82 64.44 C53.14 54.74, 62.02 46.35, 67.23 40.17 M49.99 64.6 C54.9 61.45, 56.42 54.91, 67.61 43.19 M49.16 64.81 C54.66 59.17, 60.11 52.01, 65.98 44.49 M53.16 66.49 C56.72 62.28, 61.13 57.44, 65.34 51.6 M54.03 66.15 C58.87 59.74, 63.9 53.91, 66.34 50.65 M60 64.98 C61.66 61.99, 65.08 61.39, 68.12 56.25 M59.95 65.02 C62.06 63.4, 63.92 60.46, 67.41 56.59" stroke="#868e96" stroke-width="0.5" fill="none"></path><path d="M1.45 -0.87 C17.93 -0.6, 35.67 0.1, 65.55 -0.27 M0.76 0.92 C13.12 1.3, 27.69 -0.59, 63.7 0.21 M62.15 0.33 C65.08 12.49, 61.88 29.34, 63.38 63.44 M63.81 -0.17 C62.82 15.58, 63.76 29.94, 64.49 63.34 M64.26 62.47 C43.24 64.3, 22.42 65.11, 0.2 65.22 M64.23 63.54 C41.51 63.82, 20.28 64.3, -0.35 63.77 M0.77 62.2 C-0.39 50.42, -0.64 35.58, 0.59 1.91 M0.86 64.55 C-0.93 38.88, 0.63 13.82, -0.69 -0.4" stroke="#000000" stroke-width="1" fill="none"></path></g><g stroke-opacity="0.5" fill-opacity="0.5" stroke-linecap="round" transform="translate(202 138) rotate(0 32 32)"><path d="M0 0 C0 0, 0 0, 0 0 M0 0 C0 0, 0 0, 0 0 M-0.43 5.66 C0.54 5.47, 3.13 2.66, 4.74 -0.12 M-0.43 6.44 C1.04 5.24, 1.71 3.52, 5.3 0.25 M-0.96 12.93 C5.4 7.49, 8.9 1.59, 11.7 0.09 M0.47 12.48 C2.34 8.31, 4.54 6.57, 11.42 0.13 M-1.7 19.05 C3.16 12.84, 12.14 7.48, 16.59 1.3 M-1.07 19.22 C5.05 12.79, 8.92 8.15, 14.7 1.03 M1.08 25.94 C7.14 15.67, 12.66 9.27, 21.03 -1.53 M0.54 24.49 C5.26 19.04, 8.38 13.45, 21.51 -0.23 M1.85 29.26 C6.92 21.99, 13.91 15.28, 26.33 -0.52 M-0.17 30.37 C8.25 22.17, 15.99 12.44, 26.05 0.68 M-1.29 38.81 C10.52 22.73, 25.23 8.47, 30.25 0.08 M-0.89 36.9 C6.86 28.21, 14.01 21.64, 30.98 -0.24 M0.34 42.74 C11.95 28.27, 26.36 13.53, 37.18 1.73 M0.46 43.12 C10.66 31.26, 21.29 16.88, 37.28 0.32 M-0.8 49.69 C10.89 33.69, 23.97 18.44, 40.58 -0.59 M0.71 48.9 C10.12 36.24, 20.77 23.74, 43.42 -0.4 M1.34 53.3 C16.1 39.66, 31.53 19.08, 48.93 -0.59 M-0.1 54.24 C12.34 40.64, 24.3 27.39, 46.99 0.34 M0.32 62.05 C17.25 40.12, 37.18 17.07, 52.18 -0.82 M0.98 60.95 C16.26 43.16, 31.82 24.16, 53.88 -0.63 M0.96 65.54 C22.6 39.29, 45.67 15.49, 59.63 1.12 M2.21 65.61 C18.05 46.43, 33.33 30.27, 57.91 -0.77 M5.28 64.33 C21.57 51.65, 31.39 37.56, 62.44 0.4 M6.9 65.3 C22.17 48.71, 37.39 30.83, 64.04 0.74 M11.09 66.79 C29.95 44.14, 47.87 21.01, 65.55 1.03 M12.62 65.15 C28.98 46.4, 46.73 27.08, 65.97 2.87 M16.35 66.84 C36.15 42.12, 56.18 23.7, 68.1 9.42 M17.41 65.91 C28.76 50.63, 41.27 36.37, 67.36 9.05 M21.77 64.29 C42.22 45.17, 58.97 27.05, 68.6 15.88 M22.97 65.04 C36.16 50.39, 48.21 35.87, 66.62 14.51 M28.67 66.66 C43.79 50.46, 56.6 35.2, 68.24 19.78 M28.3 66.33 C38.75 53.28, 49.33 39.85, 67.05 20.17 M33.45 64.97 C46.44 49.43, 61.34 33.26, 65.99 28.31 M32.91 64.48 C40.15 55.71, 47.62 48.54, 67.55 27.19 M37.54 63.61 C47.53 55.71, 55.44 48.97, 66.51 32.31 M38.41 64.7 C49.69 51.39, 60.95 40.55, 67.34 33.59 M45.81 64.08 C52 57.31, 57.82 49.78, 67.96 40.82 M43.73 65.3 C48.98 59.79, 55.53 53.56, 67.41 38.58 M48.51 66.84 C54.43 59.16, 56.97 55.75, 65.19 45.15 M48.72 65.27 C54.97 58.84, 59.7 51.59, 66.49 45.41 M55.03 63.96 C60.44 58.76, 65.22 53.72, 66.95 52.86 M54.68 65.67 C58.07 60.97, 62.06 55.34, 65.99 51.23 M59.56 64.97 C60.89 64.08, 64.61 61.89, 66.34 56.83 M59.59 65.34 C61.83 63.42, 62.75 62.2, 66.69 56.64" stroke="#868e96" stroke-width="0.5" fill="none"></path><path d="M-0.87 -0.22 C22.42 -1.1, 46.41 1.08, 63.73 -1.66 M0.92 -0.78 C25.58 -0.61, 48.32 -0.78, 64.21 -0.77 M64.33 1.68 C62.14 11.64, 64.72 25.69, 63.44 62.66 M63.83 -0.55 C64.21 13.3, 63.67 26.32, 63.34 64.29 M62.47 64.3 C48.65 64.62, 33.36 64.28, 1.22 64.8 M63.54 63.27 C48.47 63.96, 33.8 63.8, -0.23 63.34 M-1.8 64.18 C1.71 39.04, 1.85 14.82, 1.91 1.85 M0.55 63.3 C0.33 43.28, 0.38 20.15, -0.4 0.27" stroke="#000000" stroke-width="1" fill="none"></path></g><g stroke-opacity="0.5" fill-opacity="0.5" stroke-linecap="round" transform="translate(42 202) rotate(0 32 32)"><path d="M0 0 C0 0, 0 0, 0 0 M0 0 C0 0, 0 0, 0 0 M-1 5.66 C1.7 5.43, 1.78 3.46, 4.5 -0.34 M-0.22 6.61 C1.69 4.1, 3.08 2.55, 4.87 0.7 M1.02 13.3 C3.57 8.99, 5.66 5.47, 10.75 -0.88 M0.58 11.7 C2.98 7.11, 7.83 4.49, 10.8 0.32 M0.48 16.47 C6.77 12.93, 13.93 5.1, 16.59 0.09 M0.65 19.01 C3.54 13.77, 8.23 8.23, 16.32 -0.01 M2.12 25.34 C4.48 18.03, 10.73 9.48, 19.79 -1.98 M0.68 24.7 C5.65 17.15, 10.48 11.66, 21.1 -0.62 M-1.21 31.2 C8.84 20.12, 19.43 7.53, 25.43 0.05 M-0.11 30.97 C6.57 24.1, 11.7 16.13, 26.64 0.89 M1.67 35.71 C5.42 31.57, 10.95 20.52, 32.07 -1.85 M-0.23 37.47 C11.4 23.64, 25.17 7.48, 31.75 0.58 M0.35 40.68 C11.62 29.89, 22.57 19.54, 38.35 0.15 M0.74 42.35 C13.57 27.99, 23.86 14.72, 36.94 0.19 M0.65 47.5 C12.62 32.64, 25.3 15.99, 42.06 -1.15 M-0.14 48.43 C11.31 34.4, 22.94 22.07, 42.26 0.01 M-0.99 55.06 C12.69 43.65, 19.41 32.29, 46.69 -0.72 M-0.05 54.83 C15.53 37.22, 31.5 18.63, 47.62 0.82 M1.1 58.98 C16.47 42.14, 30.69 24.82, 52.5 -0.15 M0 60.93 C14.16 44.38, 27.12 29.96, 52.69 0.79 M2.16 63.21 C14.98 48.85, 30.18 36.22, 59.07 -0.45 M2.23 65.71 C12.26 51.95, 25.36 37.3, 57.18 -0.64 M5.59 67.33 C19.45 51.07, 31.87 36.43, 64.39 -0.88 M6.55 65.7 C24.58 45.89, 41.34 26.17, 64.72 0.19 M14.08 64.66 C33.46 40.54, 52.38 16.39, 65.42 2.55 M12.44 64.9 C28.43 48.02, 43.77 28.47, 67.25 3.29 M18.76 65.52 C33.91 46.16, 55.29 26.14, 67.14 7.91 M17.83 64.66 C34.76 44.08, 52.75 25.17, 66.78 9.69 M22.24 66.79 C31.99 56.15, 42.7 45.68, 68.35 14.36 M22.99 65.07 C35.07 50.64, 47.22 37.69, 66.99 15.02 M29.24 67.25 C38.99 54.59, 49.63 43.69, 65.6 20.58 M28.91 64.88 C38.44 52.95, 47.58 43.02, 65.99 21.79 M33.59 64.63 C42.89 55.17, 51.62 41.48, 68.88 24.95 M33.1 64.44 C45.94 49.66, 60.41 35.62, 67.75 26.22 M36.86 66.91 C48.77 54.61, 61.88 39.84, 66.22 34.73 M37.95 65.55 C47.21 54.42, 58.99 43.16, 67.49 33.17 M43.36 65.43 C51.79 55.95, 59.45 50.56, 68.07 38.04 M44.58 64.41 C51.89 58.06, 58.46 50.48, 65.83 38.79 M50.75 66.11 C53.52 58.1, 60.57 51.25, 67.15 45.21 M49.18 65.49 C54.35 58.76, 58.7 52.97, 67.41 45.67 M52.49 67.31 C56.89 62.52, 61.43 56.14, 68.2 52.28 M54.2 65.26 C58.98 59.69, 62.83 54.67, 66.57 51.02 M59.55 64.39 C63.08 63.66, 65.32 59.48, 66.92 55.93 M59.92 65.77 C61.77 62.85, 64.33 60.16, 66.74 56.58" stroke="#868e96" stroke-width="0.5" fill="none"></path><path d="M-0.22 -0.88 C15.8 0.1, 34.42 0.01, 62.34 1.7 M-0.78 0.94 C15.51 -1.54, 30.97 -0.38, 63.23 -0.94 M65.68 -1.78 C61.89 19.14, 62.78 36.1, 62.66 62.04 M63.45 0.68 C64.27 14.71, 64.37 28.49, 64.29 63.52 M64.3 64.75 C49.87 65.07, 34.86 64.72, 0.8 62.73 M63.27 63.62 C42.64 63.81, 21.3 63.48, -0.66 64.89 M0.18 65.39 C-0.32 49.51, 0.34 33.86, 1.85 0.74 M-0.7 63.99 C0.31 48.22, -1.24 31.96, 0.27 -0.54" stroke="#000000" stroke-width="1" fill="none"></path></g><g stroke-opacity="0.5" fill-opacity="0.5" stroke-linecap="round" transform="translate(106 202) rotate(0 32 32)"><path d="M0 0 C0 0, 0 0, 0 0 M0 0 C0 0, 0 0, 0 0 M-1 7.12 C1.19 4.86, 1.62 3.52, 4.28 0.74 M-0.05 6.47 C0.63 4.77, 2.27 3.76, 5.32 0.44 M1.39 12.09 C3.76 7.53, 6.91 5.63, 9.79 0.66 M-0.2 11.4 C3.52 7.79, 9.21 2.56, 10.99 0.75 M-2.09 19.23 C7.73 13.01, 13.25 5.25, 15.38 -0.46 M0.44 17.99 C4.48 13.23, 8.2 8.58, 15.28 0.28 M1.53 22.3 C9.51 12.75, 16.26 3.64, 19.35 -0.84 M0.88 23.94 C5.54 16.41, 12.25 10.27, 20.71 0.71 M0.73 29.27 C7.69 22.43, 13.17 14.45, 26.01 -1.01 M0.5 30.8 C7.98 21.45, 14.36 14.22, 26.85 -0.7 M-1.42 35.84 C9.37 25.99, 13.24 19.56, 30.15 1.65 M0.34 36.19 C11.63 25.12, 20.57 11.99, 32.58 -0.35 M-1.7 43.54 C7.05 35.22, 16.25 25.71, 36.77 0.9 M-0.03 43.48 C8.29 31.38, 17.72 22.45, 36.81 0.43 M-1.54 47.82 C9.28 35.19, 18.29 25.07, 41.51 -0.56 M-0.61 48.63 C13.43 31.77, 29.22 15.47, 42.67 -0.98 M0.77 56.55 C13.13 39.47, 25.58 26.24, 46.57 0.77 M0.54 54.57 C16.79 36.77, 32.03 17.93, 48.11 0.09 M-1.97 61.89 C12.21 45.06, 25.92 28.99, 53.17 -1.07 M-0.02 61.75 C16.69 40.76, 35.61 19.71, 54.11 -0.82 M-0.16 64.56 C13.28 51.98, 28.42 37.18, 57.5 -1.61 M2.34 64.24 C23.17 41.04, 43.18 15.53, 57.31 -0.67 M8.58 65.66 C20.69 49.78, 34.35 33.57, 63.11 -0.2 M6.95 66.34 C25.27 44.85, 43.68 24.09, 64.18 0.61 M11.95 65.56 C29.33 43.03, 46.64 22.77, 66.93 2.1 M12.19 65.21 C25.55 50.7, 36.27 36.79, 67.68 3.05 M17.43 63.6 C28.75 55.17, 39.36 42.46, 65.63 10.06 M16.58 65.4 C34.64 44.44, 54.4 23.67, 67.41 7.92 M24.75 64.46 C35.1 54.2, 45.6 42.85, 66.83 13.8 M23.02 64.94 C31.58 54.44, 41.61 43.28, 67.49 14.06 M29.83 65.97 C36.98 56.8, 45.91 45.04, 66.4 19.93 M27.46 66.01 C38.26 51.79, 51.08 38, 67.6 20.77 M33.25 64.89 C48.29 48.59, 59.1 36.27, 65.51 28.32 M33.06 64.43 C45.05 52.54, 57.74 38.96, 66.78 27.41 M40.16 64.78 C51.39 54.64, 60.14 40.09, 68.64 33.92 M38.8 64.35 C50.03 53.8, 61.12 41, 67.08 32.94 M44.71 65.74 C49.96 58.73, 59.32 50.63, 65.29 39.32 M43.69 65.78 C50.84 58.94, 56.76 50.91, 66.04 39.33 M50.02 64.31 C54.2 58.96, 59.54 51.6, 67.21 44.82 M49.4 65.22 C53.88 58.39, 59.28 53.83, 67.67 45.34 M55.84 64.04 C58.97 60.95, 60.51 60.3, 67.62 52.44 M53.8 65.96 C56.86 61.31, 60.47 57.51, 66.36 51.4 M58.97 66.31 C63.05 63.75, 63.67 59.95, 66.02 56.84 M60.34 65.13 C62.11 62.97, 64.09 59.67, 66.67 57.52" stroke="#868e96" stroke-width="0.5" fill="none"></path><path d="M-0.88 -0.64 C23.67 1.62, 47.43 -1.58, 65.7 -1.11 M0.94 -0.12 C23.09 0.21, 48.3 -0.27, 63.06 -0.14 M62.22 -1.52 C64.91 12.64, 63.54 25.19, 62.04 62.55 M64.68 0.39 C64.02 18.49, 63.23 36.29, 63.52 63.29 M64.75 64.54 C45.54 64.3, 25.18 64.9, -1.27 64.62 M63.62 63.82 C43.46 63.19, 22.49 62.88, 0.89 63.5 M1.39 63.93 C2.11 42.94, 2.49 22.55, 0.74 -1.06 M-0.01 64.87 C-0.31 38.58, -0.75 14.8, -0.54 -0.5" stroke="#000000" stroke-width="1" fill="none"></path></g><g stroke-opacity="0.5" fill-opacity="0.5" stroke-linecap="round" transform="translate(170 202) rotate(0 32 32)"><path d="M0 0 C0 0, 0 0, 0 0 M0 0 C0 0, 0 0, 0 0 M0.46 6.77 C0.89 4.51, 2.24 2.37, 5.36 -0.37 M-0.19 6.17 C0.72 5.13, 2.32 3.6, 5.06 0.23 M0.19 12.78 C1.28 10.22, 5.06 5.52, 11.33 1.52 M-0.51 11.31 C4.26 8.74, 7.42 4.17, 11.42 0.68 M0.66 20.02 C4.97 15.56, 7.76 10.34, 14.83 0.09 M-0.58 18.34 C3.11 13.7, 6.93 10.54, 15.57 1.21 M-1.52 25.26 C5.45 15.49, 12.87 5.59, 20.49 -0.45 M0.12 23.52 C6.25 16.29, 13.76 7.57, 22.04 -0.52 M-1.21 31.76 C9.95 18.63, 19.96 6.47, 24.95 -0.18 M0.33 31.16 C6.74 21.62, 15.27 13.87, 25.26 -0.38 M-1.3 38.84 C5.39 26.24, 15.53 16.96, 33.65 0.59 M-0.94 37.78 C7.96 27.03, 14.8 19.89, 31.64 -0.95 M1.16 41.55 C13.34 30.06, 24.34 16.56, 37.52 -1.03 M1.09 42.15 C11.12 28.95, 24.35 14.45, 37.05 -0.38 M-1.22 48.06 C9.08 34.23, 21.91 22.11, 42.1 0.63 M-0.41 48.45 C15.67 31.23, 32.3 11.68, 41.68 -0.58 M2.26 55.62 C15.82 36.67, 33.17 15.11, 48.06 1.01 M0.28 54.84 C13.38 39.61, 25.42 26.44, 47.38 -0.24 M0.94 59.76 C16.34 41.24, 32.54 22.96, 52.26 0.5 M0.8 60.49 C21.28 37.46, 41.7 13.45, 52.51 -0.96 M1.18 63.93 C17.73 50.11, 32.08 30.97, 56.34 1.63 M0.86 65.87 C21.48 41.85, 39.83 18.59, 57.28 -0.31 M6.91 64.72 C20.56 48.54, 33.82 34.17, 63.79 0.25 M7.59 65.72 C25.53 44.61, 44.19 23.78, 64.59 0.02 M12.85 64.08 C23.37 49.08, 36.22 35.61, 66.48 0.99 M12.5 65.97 C30.14 43.8, 48.4 24.99, 67.43 1.47 M15.52 66.46 C30.98 52.76, 42.22 36.1, 67.79 10.19 M17.31 64.63 C32.35 49.17, 47.61 31.79, 65.64 8.16 M22.42 66.52 C34.59 54.19, 45.64 40.32, 66.28 12.77 M22.9 64.15 C36.44 49.56, 49.33 35.3, 66.53 13.59 M28.55 66.29 C41.83 51.67, 52.55 34.91, 65.75 20.77 M28.59 64.39 C40.4 51.09, 52.7 36.78, 66.59 21.82 M33.51 66.37 C42.26 52.72, 54.98 41, 68.88 27.48 M33.05 64.48 C42.32 56.81, 49.88 47.19, 67.97 27.34 M38.02 67.14 C47.37 56.8, 52.25 50.91, 67.82 34.67 M37.6 65.76 C47.63 56.7, 55.37 47.3, 66.85 33.01 M45.02 63.94 C54.45 56.6, 62.77 44.21, 66.57 38.46 M45.07 65.67 C50.38 59.56, 54.54 51.8, 66.58 39.68 M48.22 64.23 C54.42 58.11, 58.64 54.75, 66.82 44.81 M49.13 64.66 C52.7 59.74, 58.55 55.83, 67.34 44.38 M52.57 67.45 C57.29 60.92, 64.42 56.67, 67.78 50.98 M54.49 64.89 C58.24 60.03, 62.82 55.39, 66.74 51.46 M60.88 66.19 C62.9 62.34, 63.67 59.76, 66.93 57.17 M59.7 65.21 C62 62.74, 63.15 60.63, 67.61 57.13" stroke="#868e96" stroke-width="0.5" fill="none"></path><path d="M-0.64 -0.18 C17.96 0.01, 31.17 1.98, 62.89 1.51 M-0.12 -0.95 C24.81 -0.39, 49.45 -1.55, 63.86 -0.93 M62.48 0.8 C63.91 19.69, 63.19 38.54, 62.55 63.63 M64.39 0.13 C64.13 17.45, 63.94 35.72, 63.29 64.13 M64.54 65.56 C49.91 65.46, 36.22 62.97, 0.62 64.45 M63.82 64.1 C47.39 63.53, 30.81 64.65, -0.5 64.38 M-0.07 65.53 C0.53 52.48, 1.79 37.88, -1.06 1.73 M0.87 64.04 C-0.24 40.87, 0.71 17.98, -0.5 0.46" stroke="#000000" stroke-width="1" fill="none"></path></g><g stroke-opacity="0.5" fill-opacity="0.5" stroke-linecap="round" transform="translate(234 202) rotate(0 32 32)"><path d="M0 0 C0 0, 0 0, 0 0 M0 0 C0 0, 0 0, 0 0 M0.11 6.03 C0.64 4.61, 1.28 4.21, 4.26 0.02 M-0.49 6.04 C1.65 4.4, 3.29 2.72, 4.86 0.09 M0.87 10.83 C4.84 7.87, 6.66 4.15, 12.18 0.64 M-0.6 12.64 C4.71 8, 8 4.33, 11.35 -0.66 M1.46 20.11 C6.23 13.36, 10.23 5.61, 15.38 -1.55 M-0.23 18.57 C4.8 12.37, 11.33 4.79, 16.51 0.73 M1.45 22.34 C8.13 13.32, 14.69 4.53, 20.88 0.49 M-0.29 23.28 C7.53 15.71, 13.89 8.41, 20.81 0.85 M1.28 29.95 C6.26 22.61, 12.2 14.9, 25.77 -0.05 M0.68 29.76 C7.24 22.06, 15.62 11.96, 25.57 -0.23 M1.71 34.9 C11.06 22.57, 23.71 9.48, 32.58 -1.37 M0.64 37.5 C8.33 25.78, 19.65 14.49, 31.05 0 M-0.84 44.39 C12.24 30.67, 23.26 16.71, 35.59 0.9 M-0.23 41.56 C13.84 27.02, 26.6 11.9, 36.24 -0.08 M-0.98 46.97 C12.72 32.09, 28.08 15.52, 43.29 1.53 M-0.6 48.36 C13.72 34.16, 25.69 18.95, 42.08 0.39 M1.33 53.08 C12.75 40.41, 21.57 28.91, 48.3 -0.51 M0.55 55.07 C12.28 40.09, 26.08 25.27, 47.05 0.38 M-1.19 60.86 C18.48 38.39, 38.31 16.48, 53.82 1.76 M-0.46 61.15 C16.62 41.82, 32.73 23.38, 52.36 -0.55 M0.55 66.46 C22.01 45.25, 38.06 21.6, 59.58 1.17 M2.49 65.49 C20.94 41.78, 40.19 19.05, 57.64 -0.52 M5.97 65.87 C18.68 49.97, 33.28 33.34, 64.24 0.18 M6.97 65.96 C23.07 47.17, 39.49 28.31, 64.01 -0.84 M11.36 63.72 C32.28 39.31, 54.71 16.16, 65.38 2.97 M13.26 65.08 C28.48 46.03, 47.04 26.81, 65.85 1.93 M18.38 67.12 C37.14 45.46, 52.93 25.09, 67.91 8.98 M16.54 65.56 C35.78 45.88, 53.04 24.96, 65.89 8.21 M24.47 65.92 C35.76 53.26, 45.57 37.88, 65.24 14.44 M22.1 65.35 C35.91 49.85, 50.05 34.13, 66.07 14.81 M28.87 66.56 C43.19 48.01, 55.42 31.97, 66.58 21.53 M26.97 65.32 C43.86 46.87, 59.7 29.88, 67.64 20.78 M34.98 63.86 C42.61 55.3, 52.14 43.79, 68.05 25.1 M33.09 65.82 C42.65 56.27, 50.22 46.89, 67.91 25.97 M40.39 66.86 C44.06 57.93, 52.21 52.61, 68.58 32.53 M39.01 66.23 C45.71 58.68, 52.09 50.39, 66.91 33.68 M43.22 66.61 C51.31 59.82, 54.35 51.75, 65.71 38.27 M44.95 65.64 C52.7 55.48, 58.78 47.66, 66.93 38.94 M48.14 65.99 C54.05 57.95, 62.74 49.96, 66.81 43.93 M48.57 64.36 C53.98 59.78, 60.39 53.68, 66.38 45.37 M55.98 64.34 C56.97 64.3, 60.25 60.87, 66.32 52.28 M53.42 65.34 C57.32 61.24, 61.41 57.13, 66.8 51.08 M60.76 66.33 C61.16 62.81, 62.8 60.56, 67.26 56.45 M59.78 65.62 C61.64 62.38, 63.88 60.67, 67.23 57.48" stroke="#868e96" stroke-width="0.5" fill="none"></path><path d="M-0.18 1.55 C18.22 -1.45, 38.69 -0.91, 65.51 1.85 M-0.95 -0.3 C14.39 -0.69, 27.42 -0.06, 63.07 0.16 M64.8 -0.62 C62.87 23.23, 61.47 47.71, 63.63 63.66 M64.13 0.49 C63.78 15.96, 63.95 30.63, 64.13 63.23 M65.56 64.2 C45.04 64.98, 22.39 64.79, 0.45 63.08 M64.1 63.65 C49.21 63.22, 35.77 63.39, 0.38 63.1 M1.53 64.59 C1.47 46.07, 0.3 23.38, 1.73 1.11 M0.04 63.31 C-0.39 49.52, -0.54 34, 0.46 0.22" stroke="#000000" stroke-width="1" fill="none"></path></g><g stroke-opacity="0.5" fill-opacity="0.5" stroke-linecap="round" transform="translate(10 266) rotate(0 32 32)"><path d="M0 0 C0 0, 0 0, 0 0 M0 0 C0 0, 0 0, 0 0 M-0.63 6.15 C0.29 4.41, 2.25 3.13, 4.65 0.44 M-0.62 6.71 C1.47 4.63, 3.52 2.03, 4.71 0.58 M-1.08 13.11 C4.23 6.58, 8.77 4.4, 11.31 0.85 M0.74 12.83 C3.1 9.38, 6.43 6.63, 10 0.21 M1.54 19.41 C3.95 14.42, 5.37 10.76, 13.74 1.88 M0 17.53 C6.28 11.65, 11.16 6.4, 16.02 1.25 M-1.48 23.85 C6.64 13.28, 14.95 6.04, 21.81 0.75 M-0.53 24.34 C7.73 14.92, 16.25 6.29, 22.18 -0.68 M-0.52 30.56 C8.19 19.92, 16.53 9.54, 25.9 0.07 M-0.72 30.28 C9.46 20.36, 17.25 8.54, 25.73 1.26 M-2.24 35.24 C7.89 25.88, 17.23 19.37, 30.62 -0.06 M0.37 35.96 C11.42 23.97, 22.87 9.14, 31.99 0 M2 42.82 C9.04 33.8, 15.85 23.84, 37.52 1.46 M-0.83 42.92 C10.2 30.62, 20.71 18.09, 36.54 0.64 M-2.07 46.97 C9.46 36.85, 19.26 27.4, 44.18 -0.18 M-0.68 49.81 C10.46 36.96, 20.58 24.06, 43.05 -0.77 M-1.21 55.99 C14.27 35.71, 30.98 19.78, 46.77 -0.41 M0.78 54.04 C15.82 37.27, 31.01 18.45, 47.66 0.77 M-0.09 59.99 C9.74 49.02, 20.17 37.4, 55.08 -0.2 M0.2 61.68 C14.86 44, 30.48 24.08, 52.77 0.05 M3.09 66.59 C14.44 51.42, 23.33 40.13, 59.12 1.22 M2.11 64.87 C21.74 40.33, 42.26 17.16, 57.43 -0.37 M7.12 64.11 C29.71 39.15, 51.57 14.43, 64.17 -0.5 M7.21 65.71 C25.61 44.36, 44.03 22.85, 63.15 0.66 M11.01 63.81 C26.07 47.9, 42.4 28.79, 67.35 2.61 M12.37 64.23 C28.19 47.61, 43.87 27.96, 66.31 3.13 M19.04 66.98 C33.46 47, 49.11 32.01, 66.7 9.81 M17.47 66.24 C28.63 53.97, 38.54 39.75, 65.93 8.45 M23.87 66.69 C41.62 44.95, 56.62 23.71, 66.92 14.49 M23.3 64.71 C36.45 50.58, 49.36 33.77, 67.28 15.09 M29.14 66.95 C41.98 47.42, 57.36 30.09, 67.35 22.76 M27.9 65.76 C36.68 55.57, 46.96 44.46, 66.59 20.85 M32.48 63.91 C44.88 52.34, 54.33 44.02, 65.66 25.49 M34.43 65.48 C42.71 55.44, 51.14 47.13, 66.54 25.63 M40.11 65.06 C48.77 54.66, 61.04 42.33, 66.43 31.61 M39.48 65.89 C48.65 55.11, 57.04 44.54, 67.59 32.46 M45.89 66.37 C52.88 55.51, 58.6 47.63, 65.52 39.98 M44.92 65.83 C48.78 58, 55 52.59, 66.19 40.06 M49.9 63.56 C55.56 58.76, 61.24 51.44, 65.93 44.85 M48.27 64.87 C55.35 59.68, 60.9 51.92, 67.37 44.03 M52.88 65.94 C60.67 60.97, 65.06 54.13, 67.62 51.32 M53.88 64.99 C57.26 61.78, 60.63 58.55, 66.42 51.07 M60.9 64.55 C61.21 62.35, 62.81 61.77, 66.54 57.11 M60.19 64.9 C62.35 61.66, 66.04 58.98, 67.57 56.7" stroke="#868e96" stroke-width="0.5" fill="none"></path><path d="M1.55 -0.27 C14.73 1.76, 31.66 1.57, 65.85 -1.57 M-0.3 0.21 C24.47 -0.34, 50.35 -0.32, 64.16 0.84 M63.38 -0.56 C62.17 11.55, 62.07 26.66, 63.66 62.9 M64.49 -0.66 C64.54 23.04, 63.54 47.18, 63.23 64.15 M64.2 65.22 C43.21 63.24, 21.43 64.95, -0.92 62.55 M63.65 63.77 C46.55 64.95, 29.93 64.45, -0.9 64.09 M0.59 65.91 C1.87 41.08, -1.03 18.41, 1.11 -1.39 M-0.69 63.6 C-0.29 44.32, -1.05 26.19, 0.22 0.78" stroke="#000000" stroke-width="1" fill="none"></path></g><g stroke-opacity="0.5" fill-opacity="0.5" stroke-linecap="round" transform="translate(74 266) rotate(0 32 32)"><path d="M0 0 C0 0, 0 0, 0 0 M0 0 C0 0, 0 0, 0 0 M-0.51 5.91 C1.06 4.44, 3.08 1.36, 5.07 0.79 M0.06 6.28 C1.78 4.6, 2.98 2.34, 5.21 0.67 M1.2 12.16 C2.42 9.15, 8 5.47, 11.52 -0.71 M0.93 12.21 C2.91 10.09, 5.58 6.02, 10.88 -0.82 M0.84 19.41 C4.84 11.37, 10.18 4.14, 17.17 1.47 M-1.04 19.14 C3.57 13.76, 8.8 9.59, 16.54 0.96 M0.03 22.62 C2.64 18.4, 8.59 14.64, 22.08 1.16 M0.52 23.92 C5.85 18.13, 11.94 11.38, 20.65 0.29 M0.09 29.67 C5.85 22.02, 11.9 15.75, 26.03 1.27 M-0.19 30.87 C9.13 19.65, 16.57 10.08, 27.21 -0.29 M-1.9 37.06 C5.61 29.78, 16.02 17.58, 31.94 1.09 M-1.17 36.74 C7.55 27.86, 13.47 19.63, 32 -1.02 M0.44 44 C13.14 27.98, 24.86 13.14, 38.08 -0.08 M0.54 42.59 C14.77 26.32, 28.74 9.09, 37.26 -0.45 M-2.07 48.46 C9.53 36.89, 21.77 26.94, 42.48 -1.12 M0.77 48.66 C11.83 34.99, 22.82 23.05, 41.89 0.11 M1.7 53.75 C17.91 33.75, 38.51 10.76, 46.87 0.76 M-0.25 54.68 C14.93 37.85, 28.07 21.79, 48.05 -0.77 M-0.96 60.31 C18.81 38.9, 37.88 20.54, 53.12 -0.23 M0.73 60.5 C21.39 37.05, 39.78 14.15, 53.37 -1.11 M3.21 66.02 C16.87 45.18, 34.36 30.24, 59.17 1.43 M1.49 64.14 C12.5 50.08, 24.93 36.29, 57.58 1.12 M5.36 66.06 C23.99 44.96, 42.84 24.95, 63.48 0.29 M6.96 66.4 C29.14 40.43, 51.18 13.43, 64.65 -0.4 M11.1 63.67 C30.48 44.75, 46.62 25.26, 66.99 2.11 M11.52 65.51 C29.83 45.92, 45.18 25.04, 67.51 2.47 M18.9 66.02 C26.43 54.41, 39 41.48, 67.53 7.3 M18.15 65.66 C33.32 47.59, 46.46 31.01, 66.17 9.7 M24.64 66.45 C34.46 50.42, 44.82 37.31, 66.97 14.54 M22.67 65.08 C36.81 49.71, 48.22 35.7, 67.57 15.39 M29.53 64.31 C40.24 49.57, 53.17 36.5, 68.57 19.86 M28.34 64.7 C43.37 49.18, 57.44 33.05, 66.66 20.68 M32.53 66.8 C41.66 55.64, 54.07 41.06, 66.05 25.4 M34.1 65.68 C41.69 56.22, 50.99 45.39, 66.2 27.28 M38.3 64.77 C47.79 57.35, 55.38 47.15, 65.51 33.31 M39.13 66.04 C44.39 58.64, 49.88 52.87, 66.37 33.13 M45.65 66.48 C50.68 56.09, 58.67 46.33, 67.23 38.2 M45.11 64.24 C52.09 55.01, 61.52 44.79, 67.3 39.69 M47.47 65.53 C54.03 60.05, 58.06 54.07, 66.85 45.3 M48.78 65.79 C55.23 59.96, 59.1 54.07, 66.03 45.8 M54.48 67.2 C57.68 63.8, 59.05 60.57, 66.66 50.51 M53.53 65.57 C58.13 61.05, 62.68 56, 66.41 50.57 M59.13 65.13 C61.58 61.81, 65.65 58.15, 67.2 57.96 M59.47 64.95 C61.43 63.51, 63.96 61.21, 66.79 57.27" stroke="#868e96" stroke-width="0.5" fill="none"></path><path d="M-0.27 -1.66 C18.86 -1.61, 35.84 1.35, 62.43 1.89 M0.21 -0.77 C17.48 0.05, 35.93 0.35, 64.84 -0.89 M63.44 -1.34 C62.29 12.91, 63.88 28.36, 62.9 65.35 M63.34 0.29 C63.6 20.97, 64.21 42.58, 64.15 64.37 M65.22 64.8 C41.8 64.68, 22.59 63.15, -1.45 63.25 M63.77 63.34 C46.85 63.28, 28.3 62.88, 0.09 64.7 M1.91 65.85 C0.25 43.97, 1.24 27.16, -1.39 -0.02 M-0.4 64.27 C-0.57 38.75, 0.43 14.72, 0.78 -0.66" stroke="#000000" stroke-width="1" fill="none"></path></g><g stroke-opacity="0.5" fill-opacity="0.5" stroke-linecap="round" transform="translate(138 266) rotate(0 32 32)"><path d="M0 0 C0 0, 0 0, 0 0 M0 0 C0 0, 0 0, 0 0 M-0.75 5.7 C1.96 3.59, 3.07 2.31, 5.42 0.5 M-0.38 6.73 C1.15 4.76, 2.07 3.64, 5.3 0.37 M0.26 11.2 C4.55 9.35, 8.17 4.5, 9.95 -1.32 M0.3 12.4 C3.02 10.14, 3.78 7.15, 9.84 0.28 M0.85 18.2 C4.9 11.25, 9.79 6.18, 16.76 -0.58 M0.57 18.11 C4.37 14.22, 9.39 9, 16.25 -0.57 M-1.2 22.17 C7.24 15.05, 16.11 7.59, 22.49 -0.36 M0.1 23.53 C6.36 17.68, 11.63 11.63, 21.62 -0.67 M-0.81 30.24 C8.34 19.01, 18.84 8.28, 27.23 0.94 M0.4 31.08 C8.88 18.76, 19 9.3, 25.66 -0.23 M-0.07 35.13 C14.67 23.11, 24.44 7.74, 33.08 -1.47 M-0.4 37.56 C11.8 21.91, 24.68 8.43, 30.97 0.41 M1.61 42.41 C9.62 30.56, 18.85 22.42, 36.54 2.17 M0.2 42.46 C10.39 30.61, 19.55 20.51, 36.17 -0.29 M-0.58 47.91 C10.9 37.49, 23.94 24.07, 41.54 -0.71 M-0.38 49.07 C10.09 35.69, 22.24 23.1, 42.77 0.86 M-0.54 53.62 C17.9 35.83, 33.3 15.22, 48.04 0.24 M0.39 55.16 C15.37 36.51, 31.15 19.69, 46.52 0.69 M-0.64 60.98 C11.91 47.21, 27.5 31.82, 53.1 1.41 M-0.45 61.92 C12.71 44.3, 26.44 29.83, 52.21 -0.44 M2.65 64.46 C13.12 50.42, 29.54 34.32, 59.38 -1.52 M0.76 64.27 C21.91 40.2, 43.37 15.63, 59.07 0.29 M7.31 64.78 C21.59 49.01, 37 30.98, 64.28 1.58 M7.65 65.85 C25.82 44.1, 43.01 23.3, 63.58 0.04 M10.96 65.19 C26.11 48.26, 40.64 34.16, 66.49 2.73 M12.8 65.94 C34.27 40.05, 54.46 17.2, 66.85 1.51 M17.94 64.52 C35.44 46.46, 51.69 26.14, 65.03 8.78 M17.57 66.29 C27.24 51.85, 38.41 39.61, 67.42 8.53 M24.4 64.93 C38.57 44.02, 55.68 26.79, 67.02 14.3 M23.03 65.58 C31.75 53.55, 41.85 44.31, 67.87 14.75 M26.89 65.11 C40.14 49.63, 55.09 36.25, 65.67 22.11 M27.28 66.32 C35.66 57.28, 43.42 47.38, 66.49 20.81 M35.42 63.44 C47.98 51.96, 57.1 35.77, 65.97 25.38 M34.3 64.71 C42.52 56.09, 49.41 44.81, 67.85 26.21 M38.01 67.19 C50.36 54.51, 59.97 38.8, 67.21 30.91 M39.28 65.62 C47.98 54.23, 58.35 42.61, 67.04 33.29 M45.77 63.7 C49.61 57.56, 54.12 52.69, 65.45 40.95 M43.52 64.45 C52.39 55.61, 60.29 46.44, 66.94 38.79 M49.44 65.59 C53.39 60.34, 56.85 55.37, 67.3 44.75 M49.7 66.04 C53.98 60.05, 58.17 54.92, 67.8 44.08 M55.73 66.62 C60.31 59.66, 65.06 54.36, 65.85 51.9 M54.11 65.36 C57.03 62.78, 59.42 59.27, 65.91 52.22 M59.71 64.23 C62.4 62.34, 64.77 59.1, 68.05 56.68 M59.52 64.88 C62.41 63.11, 64.44 60.29, 67.37 56.93" stroke="#868e96" stroke-width="0.5" fill="none"></path><path d="M-1.66 1.7 C17.51 1.6, 39.1 -1.48, 65.89 -0.24 M-0.77 -0.94 C12.98 -1.06, 26.4 0.7, 63.11 -0.76 M62.66 -1.96 C62.35 21.4, 63.46 42.44, 65.35 64.77 M64.29 -0.48 C63.6 20.17, 63.55 40.24, 64.37 64.27 M64.8 62.73 C40.41 64.84, 14.67 62.94, -0.75 63.64 M63.34 64.89 C43.64 64.24, 23.38 63.95, 0.7 63.96 M1.85 64.74 C-1.24 41.62, 0.92 14.4, -0.02 1.73 M0.27 63.46 C-0.06 45.01, 0.66 25.88, -0.66 0.09" stroke="#000000" stroke-width="1" fill="none"></path></g><g stroke-opacity="0.5" fill-opacity="0.5" stroke-linecap="round" transform="translate(202 266) rotate(0 32 32)"><path d="M0 0 C0 0, 0 0, 0 0 M0 0 C0 0, 0 0, 0 0 M-0.96 6.77 C0.36 4.56, 2.5 3.79, 5.13 -0.09 M0.07 6.47 C0.67 4.87, 2.12 4.19, 5 0.54 M-0.71 12.74 C3.96 10.01, 5.64 5.95, 9.35 -1.5 M0.49 12.83 C4.67 6.86, 8.14 2.17, 10.95 0.6 M-0.36 17.65 C5.58 9.54, 13.42 5.61, 14.71 0.13 M-0.46 18.4 C5.85 13.06, 10.82 7.62, 14.73 0.92 M-1.65 23.31 C4.38 19.65, 10.05 15.19, 20.97 -1.19 M-0.28 24.86 C4.37 19.72, 8.83 13.85, 20.65 0.57 M-0.24 29.18 C6.7 21.98, 14.13 15.05, 26.9 1.64 M0.61 29.49 C5.37 22.98, 12.98 16.04, 25.73 1.27 M-2 38.63 C7.2 28.14, 13.02 23.17, 30.53 1.7 M0.43 36.63 C10.89 23.62, 23.49 9.2, 32.4 -0.59 M0.03 43.17 C13.23 26.27, 30.17 8.67, 38.79 -0.48 M0.07 42.69 C6.82 33.55, 15.32 24.57, 36.33 -0.17 M-1.14 48.5 C9.76 40.74, 17.59 28.17, 41.95 -1.08 M0.02 48.08 C9.42 37.57, 19.66 25.29, 43.52 0.39 M-0.67 55.11 C11.34 41.75, 20.58 30.76, 47.52 0.78 M0.87 54.43 C16.65 35.61, 34.22 15.42, 47.97 -0.38 M0.03 60.06 C16.66 45.03, 31.64 25, 54.73 -1.11 M0.97 60.31 C15.75 41.31, 33.72 21.23, 52.88 -0.75 M1.08 63.3 C23.47 41.89, 43.85 18.23, 56.43 1.74 M0.89 64.23 C20.52 42.89, 39.62 22.5, 58.24 -0.18 M6.03 65.46 C25.9 44.61, 43.45 23.67, 65.56 0.32 M7.1 66.26 C26.78 41.25, 47.44 18.66, 64.03 -0.7 M12.48 64.74 C24.01 51.38, 38.31 35.93, 67.11 4.24 M13.22 65.69 C28.39 45.37, 46.52 26.97, 65.89 2.94 M16.43 66.67 C37.22 43.63, 55.79 20.15, 66.5 7.24 M18.21 64.52 C31.66 46.94, 47.37 30.67, 66.26 9.56 M22.88 64.37 C36.02 47.26, 52.91 29.92, 66.77 12.71 M23.54 64.62 C36.87 48.55, 52.98 32.33, 67.23 14.91 M27.69 64.46 C41.42 50.29, 57.3 32.64, 67.92 18.86 M28.9 65.3 C40.14 52.48, 50.55 39.28, 66.62 21.54 M32.05 66.81 C42.95 53.91, 49.1 44.84, 65.95 25.47 M33.33 65.9 C47.06 49.5, 58.16 36.08, 66.78 27.4 M40.43 66.37 C51.01 52.87, 58.54 41.46, 64.81 33.72 M38.87 65.4 C49.49 53.33, 59.9 40.18, 67.2 32.39 M42.98 64.98 C51.75 53.94, 61.81 44.05, 68.2 40.73 M43.73 64.99 C52.61 55.31, 61.21 46.61, 66.04 38.75 M49.5 65.2 C55.18 57.49, 61.14 52.06, 66.75 43.64 M49.95 65.71 C52.39 61.49, 55.66 57.75, 66.08 45.87 M55.15 66.77 C56.7 63.22, 59.9 58.16, 67.24 49.76 M53.9 65.74 C57.75 61.63, 60.66 57.32, 67.56 52.12 M58.81 65.14 C62.95 61.48, 65.74 59.71, 66.77 56.83 M59.45 65.82 C62.68 62.82, 64.85 59.62, 67.02 56.64" stroke="#868e96" stroke-width="0.5" fill="none"></path><path d="M1.7 -1.11 C25.66 2.38, 46.73 2.42, 63.76 -1.9 M-0.94 -0.14 C16.37 0.66, 35.44 -0.39, 63.24 0.4 M62.04 -1.45 C63.44 16.86, 62.72 35.76, 64.77 64.26 M63.52 -0.71 C63.71 21.56, 63.73 45.02, 64.27 64.78 M62.73 64.62 C44.62 63.34, 22.88 63.5, -0.36 64.21 M64.89 63.5 C47.41 62.68, 30.15 64.27, -0.04 64.77 M0.74 62.94 C1.12 44.03, -2 21.82, 1.73 0.08 M-0.54 63.5 C0.71 49.43, 1.03 33.75, 0.09 0.76" stroke="#000000" stroke-width="1" fill="none"></path></g><g stroke-opacity="0.5" fill-opacity="0.5" stroke-linecap="round" transform="translate(266 266) rotate(0 32 32)"><path d="M0 0 C0 0, 0 0, 0 0 M0 0 C0 0, 0 0, 0 0 M0.11 5.67 C0.84 4.9, 3.02 3.34, 4.53 -0.36 M-0.19 6.27 C1.47 4.29, 4.05 1.79, 5.17 0.06 M0.83 13.59 C4.65 8.55, 7.15 1.96, 9.16 1.17 M0.92 12.76 C3.67 7.42, 7.7 2.67, 11.26 0.63 M-0.92 18.2 C3.4 13.7, 11.91 4.92, 15.42 0.59 M-0.17 19.33 C3.44 15.64, 6.95 10.04, 16.21 -0.55 M-0.51 23.7 C7.05 18.14, 13.78 10.06, 20.14 -1.67 M1.04 23.63 C8.06 15.73, 14.33 7.87, 21.9 -0.33 M-1.29 30 C7.77 21.11, 17.08 12.79, 27.6 -1.15 M-0.98 29.8 C6.73 22.82, 14.02 12.87, 27.23 -0.7 M1.5 37.57 C5.45 29.14, 14.92 19.67, 33.69 1.14 M-0.51 36.04 C6.6 29.05, 12.29 21.73, 31.4 0.83 M0.78 41.23 C12.04 30.43, 22.63 17.83, 36.14 -1.67 M0.31 41.89 C12.27 28.55, 24.39 13.24, 36.45 -0.72 M-0.54 49.69 C10.3 39.15, 16.3 28.67, 41.58 -1.25 M-0.97 48.48 C17.15 29.11, 33.48 11.62, 43.05 -0.88 M0.82 55.35 C17.29 33.97, 36.1 14.45, 48.07 1.23 M0.14 54.1 C12.07 41.35, 22.64 27.8, 46.91 0.17 M-0.89 61.63 C15.5 45.56, 26.87 31.8, 52.22 0.21 M-0.63 60.17 C19.7 37.9, 38.94 14.64, 52.57 0.51 M-0.08 66.54 C23.54 41.99, 44.94 14.92, 59.69 0.98 M0.86 64.59 C17.29 46.98, 34.61 29.62, 57.77 0.39 M6.71 65.91 C20.19 50.04, 33.61 36.82, 64.31 0.81 M7.52 65.68 C24.05 44.7, 43.07 22.7, 63.29 -0.88 M12.03 63.63 C26.27 50.33, 38.35 35.56, 68.63 2.47 M12.98 64.11 C23.41 51.68, 35.78 36.44, 67.32 3.27 M18.58 66.79 C35.94 45.22, 52.88 22.78, 64.96 9.09 M16.44 64.77 C35.39 43, 55.68 21.46, 67.29 9.26 M22.32 63.33 C39.45 45.7, 56.4 26.12, 65.18 15.1 M22.57 64.16 C35.13 51.81, 47.53 37.86, 67.38 15.05 M27.04 65.3 C43.52 50.49, 56.49 33, 64.68 20.74 M27.88 66.35 C41.27 49.97, 54.25 34.88, 67.36 20.29 M35.43 65.97 C40.09 54.77, 48.62 45.2, 66.04 28.15 M34.51 65.83 C44.49 50.79, 57.47 37.94, 67.96 27.26 M39.61 67.12 C46.37 54.54, 55.19 44.58, 67.63 34.67 M38.64 65.46 C49.14 53.34, 58.58 42.69, 66.3 33.72 M44.26 64.12 C51.29 56.26, 59.49 47.72, 67.98 40.66 M44.27 65.34 C52.7 55.89, 62.09 44.7, 66 39.63 M49.1 65.19 C51.96 60.87, 57.09 56.44, 65.64 43.03 M49.62 64.76 C54.08 59.08, 59.03 53.93, 67.87 44.24 M55.31 65.32 C58.95 61.09, 61.1 57.17, 65.1 50.67 M54.28 65.8 C56.81 62.18, 59.15 60.06, 67.46 52.24 M59.72 65.47 C61.02 63.53, 64.22 61.17, 66.92 57.65 M60.4 65.44 C62.06 63.14, 63.52 61.47, 66.74 57.35" stroke="#868e96" stroke-width="0.5" fill="none"></path><path d="M-1.11 1.51 C20.17 -2.11, 38.54 -0.79, 62.1 -0.59 M-0.14 -0.93 C20.72 1.44, 40.23 -0.15, 64.4 -0.31 M62.55 -0.37 C63.23 16.29, 64.92 35.56, 64.26 64.98 M63.29 0.13 C63.42 15.15, 64.56 30.27, 64.78 64.1 M64.62 64.45 C39.99 62.14, 17.07 63.23, 0.21 63.3 M63.5 64.38 C45.35 64.66, 29.2 64.53, 0.77 64.29 M-1.06 65.73 C0.51 37.29, -0.61 15.1, 0.08 -1.38 M-0.5 64.46 C0.05 48.11, -0.83 30.76, 0.76 0.85" stroke="#000000" stroke-width="1" fill="none"></path></g><g transform="translate(143 29.5) rotate(0 27 12.5)"><text x="27.000000000000014" y="18" font-family="Virgil, Segoe UI Emoji" font-size="20px" fill="#5c940d" text-anchor="middle" style="white-space: pre;" direction="ltr">a</text></g><g transform="translate(111 93.5) rotate(0 27 12.5)"><text x="27.000000000000014" y="18" font-family="Virgil, Segoe UI Emoji" font-size="20px" fill="#5c940d" text-anchor="middle" style="white-space: pre;" direction="ltr">b</text></g><g transform="translate(175 93.5) rotate(0 27 12.5)"><text x="27.000000000000014" y="18" font-family="Virgil, Segoe UI Emoji" font-size="20px" fill="#5c940d" text-anchor="middle" style="white-space: pre;" direction="ltr">c</text></g><g transform="translate(79 157.5) rotate(0 27 12.5)"><text x="27.000000000000014" y="18" font-family="Virgil, Segoe UI Emoji" font-size="20px" fill="#5c940d" text-anchor="middle" style="white-space: pre;" direction="ltr">d</text></g><g transform="translate(143 157.5) rotate(0 27 12.5)"><text x="27.000000000000014" y="18" font-family="Virgil, Segoe UI Emoji" font-size="20px" fill="#5c940d" text-anchor="middle" style="white-space: pre;" direction="ltr">e</text></g><g transform="translate(207 157.5) rotate(0 27 12.5)"><text x="27.000000000000014" y="18" font-family="Virgil, Segoe UI Emoji" font-size="20px" fill="#5c940d" text-anchor="middle" style="white-space: pre;" direction="ltr">f</text></g><g transform="translate(47 221.5) rotate(0 27 12.5)"><text x="27.000000000000014" y="18" font-family="Virgil, Segoe UI Emoji" font-size="20px" fill="#5c940d" text-anchor="middle" style="white-space: pre;" direction="ltr">g</text></g><g transform="translate(111 221.5) rotate(0 27 12.5)"><text x="27.000000000000014" y="18" font-family="Virgil, Segoe UI Emoji" font-size="20px" fill="#5c940d" text-anchor="middle" style="white-space: pre;" direction="ltr">h</text></g><g transform="translate(175 221.5) rotate(0 27 12.5)"><text x="27.000000000000014" y="18" font-family="Virgil, Segoe UI Emoji" font-size="20px" fill="#5c940d" text-anchor="middle" style="white-space: pre;" direction="ltr">i</text></g><g transform="translate(239 221.5) rotate(0 27 12.5)"><text x="27.000000000000014" y="18" font-family="Virgil, Segoe UI Emoji" font-size="20px" fill="#5c940d" text-anchor="middle" style="white-space: pre;" direction="ltr">j</text></g><g transform="translate(15 285.5) rotate(0 27 12.5)"><text x="27.000000000000014" y="18" font-family="Virgil, Segoe UI Emoji" font-size="20px" fill="#5c940d" text-anchor="middle" style="white-space: pre;" direction="ltr">k</text></g><g transform="translate(79 285.5) rotate(0 27 12.5)"><text x="27.000000000000014" y="18" font-family="Virgil, Segoe UI Emoji" font-size="20px" fill="#5c940d" text-anchor="middle" style="white-space: pre;" direction="ltr">l</text></g><g transform="translate(143 285.5) rotate(0 27 12.5)"><text x="27.000000000000014" y="18" font-family="Virgil, Segoe UI Emoji" font-size="20px" fill="#5c940d" text-anchor="middle" style="white-space: pre;" direction="ltr">m</text></g><g transform="translate(207 285.5) rotate(0 27 12.5)"><text x="27.000000000000014" y="18" font-family="Virgil, Segoe UI Emoji" font-size="20px" fill="#5c940d" text-anchor="middle" style="white-space: pre;" direction="ltr">n</text></g><g transform="translate(271 285.5) rotate(0 27 12.5)"><text x="27.000000000000014" y="18" font-family="Virgil, Segoe UI Emoji" font-size="20px" fill="#5c940d" text-anchor="middle" style="white-space: pre;" direction="ltr">o</text></g><g stroke-opacity="0.4" fill-opacity="0.4" stroke-linecap="round" transform="translate(170 202) rotate(0 32 32)"><path d="M0 0 C0 0, 0 0, 0 0 M0 0 C0 0, 0 0, 0 0 M-0.71 6.15 C0.45 4.78, 2.15 3.46, 4.22 -0.26 M-0.43 6.34 C1.05 5.18, 2.72 3.12, 5.06 0.42 M-0.7 11.22 C4.47 8.81, 6.17 6.01, 10.68 -1.12 M-0.33 12.57 C4.15 6.98, 8.08 3.62, 10.95 -0.41 M-0.96 17.42 C5.57 15.93, 6.55 9.76, 15.87 1.55 M-0.32 18.12 C3.54 12.7, 8.66 6.89, 15.26 0.44 M0.11 25.65 C5.77 16.63, 8.54 11.85, 19.58 -0.32 M-0.6 24.56 C8.67 14.29, 14.63 5.75, 20.59 0.25 M-0.29 30.95 C6.14 21.45, 13.3 12.49, 27.22 1.99 M-0.87 29.99 C7.71 20.83, 14.68 12.58, 26.68 0.08 M0.8 35.71 C8.31 23.67, 18.29 12.13, 33.09 0.13 M0.59 37.58 C10.41 24.71, 18.98 14.86, 32.25 0.87 M1.1 43.53 C12.14 28.05, 23.85 15.11, 36.31 0.3 M-0.34 41.59 C11.98 30.22, 23.06 16.87, 37.73 0.02 M0.31 47.28 C17.16 29.99, 35.22 11.39, 41.28 1.03 M0.4 48.17 C11.06 35.78, 23.08 22.81, 43.47 -1.12 M-0.11 55.64 C17.09 37.86, 31.16 19.71, 45.58 0.98 M0.45 53.74 C11.26 42.62, 22.48 28.67, 48.32 -0.55 M-0.99 60.95 C15.73 43.57, 33.98 23.14, 52.43 0.76 M-0.22 61.58 C13.56 46.93, 24.68 30.41, 53.86 -0.1 M0.3 63.5 C17.68 47.04, 33.11 29.19, 58.65 -1.22 M2.1 65.88 C19.93 43.63, 37.92 21.94, 59.01 -0.81 M5.75 67.32 C21.86 49.91, 36.76 34.82, 63.05 0.98 M7.54 66.39 C24.86 44.23, 43.29 22.96, 64.19 0.66 M13.32 63.09 C30.54 45.13, 49.08 24.32, 68.42 3 M12.93 65 C31.85 41.56, 52.27 18.08, 66.03 2.9 M15.37 63.83 C36.66 44.53, 50.44 26.41, 67.96 9.66 M16.94 66.33 C34.88 46.12, 52.19 25.58, 67.48 9.06 M23.12 63.27 C36.95 50.3, 48.53 36.11, 68.4 14.52 M22.34 65.81 C35.6 48.72, 49.05 35.3, 67.67 15.16 M26.63 63.69 C43.94 50.44, 55.15 33.64, 67.36 19 M28.58 66.28 C36.07 54.37, 45.08 45.24, 67.01 21.02 M35.24 65.65 C48.18 49.84, 60.69 35.1, 66.42 25.13 M34.05 65.58 C41.93 54.88, 51.48 43.63, 66.93 25.78 M37.47 63.89 C47.54 55.26, 57.07 44.24, 65.03 33.45 M38.63 65.17 C44.22 59.4, 50.18 52.34, 67.58 33.57 M45.48 65.08 C50.66 60.4, 55.93 51.3, 66.32 39.47 M43.92 65.68 C52.73 57, 60.39 47.48, 66.28 38.77 M51.01 63.69 C56.9 57.9, 62.17 51.47, 66.33 43.8 M49.88 65.56 C52.9 59.81, 57.14 56.5, 66.51 45.89 M53.22 64.54 C58 63.49, 60.95 58.3, 65.24 52.15 M54.31 65.37 C58.34 61.1, 62.82 55.21, 65.84 50.5 M60.82 66.02 C62.88 63.43, 64.25 59.04, 66.95 57.6 M60.38 64.91 C61.83 62.54, 65.08 59.35, 67.17 57.14" stroke="#e64980" stroke-width="0.5" fill="none"></path><path d="M-1.66 1.79 C13.88 -2.14, 29.52 -1.84, 63.7 1.91 M0.21 0.94 C16.56 -0.08, 32.73 -0.38, 64.51 -0.12 M62.3 1.46 C64.2 25.07, 65.03 46.98, 64.69 62.54 M63.91 0.95 C63.08 19.75, 64.17 38.58, 64.4 64.1 M62.99 64.96 C47.07 63.44, 31.58 63.79, 0.26 64.61 M64.32 63.77 C50.44 63.68, 35.87 65.14, -0.39 64.05 M0.61 65.74 C1.14 38.04, 1.12 15.03, 0.49 -0.58 M0.51 64.46 C-0.11 39.92, -0.12 15.46, 0.44 0.94" stroke="#c92a2a" stroke-width="1" fill="none"></path></g></svg>