<svg version="1.1" xmlns="http://www.w3.org/2000/svg" viewBox="0 0 340 340" width="340" height="340">
  <!-- svg-source:excalidraw -->
  
  <defs>
    <style>
      @font-face {
        font-family: "Virgil";
        src: url("https://excalidraw.com/Virgil.woff2");
      }
      @font-face {
        font-family: "Cascadia";
        src: url("https://excalidraw.com/Cascadia.woff2");
      }
    </style>
  </defs>
  <rect x="0" y="0" width="340" height="340" fill="#ffffff"></rect><g stroke-opacity="0.5" fill-opacity="0.5" stroke-linecap="round" transform="translate(138 10) rotate(0 32 32)"><path d="M0 0 C0 0, 0 0, 0 0 M0 0 C0 0, 0 0, 0 0 M0.07 5.94 C1.06 4.66, 3.38 1.63, 4.83 0.97 M-0.14 6.61 C1.63 4.18, 3.54 2.39, 4.94 0.01 M0.39 13.42 C1.04 9.51, 3.38 6.45, 9.21 -1.51 M0.56 11.5 C3.72 7.98, 7.7 4.15, 10.46 0.34 M0.54 18.57 C2.26 16.27, 7.3 9.65, 14.83 1.01 M0.29 17.63 C2.2 14.07, 5.71 11.3, 16.44 -0.11 M-0.11 22.49 C6.41 16.11, 16.25 6.16, 22.91 -1.1 M1.02 23.8 C4.45 18.19, 8.79 13.89, 21.98 0.36 M1.43 32.44 C8.26 22.65, 11.67 14.54, 27.58 -1.1 M0.78 29.48 C7.68 21.67, 16.38 11.82, 26.19 1.09 M-1.68 37.33 C9.05 27.39, 19.87 13.3, 30.59 -1.97 M0.51 37.51 C8.22 27.86, 15.76 17.98, 31.27 -0.12 M-0.23 43.55 C13.01 27.17, 28.39 9.14, 37.39 0.48 M-0.21 42.02 C9.12 32.7, 17.15 22.41, 37.76 0.1 M-1.04 48.35 C12.29 34.07, 27.14 16.9, 42.33 0.78 M-0.56 49.72 C10.72 35.63, 22.25 23.51, 43.39 0.48 M1.36 55.82 C16.26 34.13, 33.81 15.59, 49.09 0.93 M-0.26 54.42 C12.46 38.96, 25.78 25.55, 48.43 0.11 M1.35 62.07 C17.17 41.34, 36.13 18.14, 51.84 1.67 M-0.26 60.05 C15.65 42.92, 32.05 22.9, 52.53 0.28 M0.59 64.88 C23.26 42.54, 42.49 15.3, 59.77 -0.39 M1.44 64.98 C15.36 49.49, 30.26 34.52, 58.08 -0.56 M8.54 64.94 C28.76 41.88, 48.44 18.2, 62.13 -1.57 M7.15 64.96 C23.67 45.93, 40.43 24.33, 63.01 -0.96 M11.71 66.04 C30.87 45.96, 47.62 27.7, 66.86 4.37 M12.4 64.09 C26.13 49.84, 40.81 34.22, 66.23 2.8 M16.67 64.2 C28.66 50.82, 39.94 40.3, 67.59 7.08 M17.86 65.62 C31.75 49.37, 45.14 33.48, 66.37 8.23 M23.19 63.42 C34.21 53.14, 42.03 43.8, 67.46 12.57 M22.17 64.4 C39.53 46.33, 55.06 27.26, 66.42 15.34 M28.83 64.82 C36.42 54.95, 47.68 43.31, 65.03 19.74 M27.34 65.83 C37.22 53.45, 48.57 42.36, 67.4 21.84 M33.96 65.83 C41 58.1, 48.76 49.9, 68.04 26.44 M33.58 65.66 C44.51 52.44, 55.83 38.44, 66.89 26.99 M38.35 65.44 C43.23 58.95, 50.43 50.8, 67.92 32.78 M38.63 65.02 C44.77 58.65, 51.01 51.65, 67.35 33.55 M46.23 63.29 C53.02 57.98, 59.14 46.51, 66.19 38.97 M44.59 64.23 C48.83 58.75, 54.71 53.05, 67.3 39.39 M50.84 64.94 C54.63 57.55, 62.97 51.96, 68.36 44.8 M49.34 65.77 C53.47 60.09, 58.67 54.27, 66.97 45.67 M54.81 65.76 C59.89 60.82, 61.29 57.11, 67.66 51.12 M54.59 64.92 C57.48 61.36, 60.46 58.39, 66.89 52 M58.93 64.8 C63.14 63.46, 64.05 60.56, 66.35 56.25 M60.33 65 C62.51 62.43, 65.28 58.99, 66.55 57.09" stroke="#868e96" stroke-width="0.5" fill="none"></path><path d="M1.32 -0.47 C25.3 1.88, 47.29 1.43, 64.64 1.03 M0.11 -0.77 C19.18 -0.44, 38.13 -1.08, 64.07 -0.05 M64.17 -0.81 C64.04 14.76, 65.79 31.81, 65.21 62.9 M64.13 0.81 C63.8 17.65, 64.03 36.99, 63.85 63.12 M64.38 65.29 C42.1 64.21, 21.62 63.95, -1.05 64.43 M63.67 63.96 C43.47 64.2, 23.44 65.47, 0.28 64.61 M0.64 62.62 C0.04 49.47, 1.82 31.58, 0.27 0.44 M-0.77 64.16 C0.22 50.6, 0.3 36.34, 0.03 -0.45" stroke="#000000" stroke-width="1" fill="none"></path></g><g stroke-opacity="0.5" fill-opacity="0.5" stroke-linecap="round" transform="translate(106 74) rotate(0 32 32)"><path d="M0 0 C0 0, 0 0, 0 0 M0 0 C0 0, 0 0, 0 0 M-0.72 5.68 C1.8 4.26, 2.58 2.82, 5.6 0.59 M-0.04 6.59 C1.32 4.68, 3.31 2.19, 4.63 -0.03 M1.51 10.9 C3.84 6.74, 7.02 1.88, 9.15 0.35 M-0.4 12.24 C3.22 9.05, 6.51 4.4, 11.01 -0.55 M0 17.15 C7.01 12.66, 9.67 6.05, 16.3 -1.39 M-0.93 17.51 C5.17 10.94, 12.06 5.91, 15.18 0.9 M-1.33 22.61 C6.23 18.88, 10.22 13.55, 20.23 -1.94 M-0.02 23.8 C4.42 17.82, 10.17 12.97, 21.69 -0.7 M1.96 32.26 C4.9 22.84, 9.52 18.77, 24.85 0.6 M-0.99 29.63 C6.4 23.33, 11.73 17.19, 27.04 0.3 M0.2 36.85 C13.92 23.82, 23.49 6.94, 30.02 -0.94 M0.37 37.05 C9.89 24.94, 19.2 13.81, 31.88 0.81 M1.17 40.63 C8.93 32.95, 15.03 25.58, 37.11 -0.88 M-0.36 42.53 C11.2 29.5, 21.84 18.99, 36.72 0.53 M-0.69 47.44 C14.33 33.33, 26.42 18.48, 43.43 -0.94 M0.68 48.81 C13.21 33.43, 27.75 17.97, 43.14 0.48 M1.53 53.25 C11.75 39.42, 25.05 27.82, 48.22 -0.34 M0.13 54.18 C16.03 35.79, 34.02 17.51, 47.4 0.65 M1.12 59.99 C18.11 41.15, 32.58 20.84, 54.99 -0.06 M-0.9 60.19 C15.23 43.74, 28.46 26.97, 53.6 0.55 M1.51 65.86 C22.29 42.53, 38.23 23.32, 57.56 -0.99 M1.6 64.62 C14.39 51.61, 27.65 36.26, 57.38 0.84 M6.19 67.11 C28.1 41.24, 49.42 14.92, 62.42 -0.13 M6.21 65.14 C24.71 43.99, 40.73 23.79, 63.03 -0.12 M13.32 66.95 C30.4 46.53, 49.32 24.22, 68.75 1.49 M11.37 64.95 C28.66 47.82, 44.55 28.51, 67.18 1.64 M16.12 65.25 C25.17 54.39, 37.11 43.89, 64.8 8.35 M17.53 66.27 C32.15 48.32, 47.12 30.05, 65.95 7.98 M21.37 66.9 C36.6 48.47, 52.71 32.11, 65.05 15.97 M22.36 65.51 C40.38 45.23, 57.39 25.58, 67.81 13.98 M27.4 63.65 C36.7 55.79, 44.28 45.24, 65.55 20.07 M28.41 64.81 C41.49 50.31, 55.92 34.36, 67.65 19.88 M34.45 65.83 C46.44 53.02, 57.96 38.43, 67 27.28 M34.28 64.68 C45.22 51.86, 55.4 39.2, 67.56 25.56 M38.68 64.3 C48.52 54.65, 56.68 44.36, 66.68 31.03 M38.26 65.57 C45.95 57.55, 52.96 49.06, 67.45 33.24 M42.57 66.12 C51.06 58.52, 53.42 52.3, 66.21 38.06 M43.51 64.45 C52.76 55.03, 61.79 45.82, 66.63 39.74 M48.85 64.48 C52.49 61.94, 57.94 57.32, 66.8 44.51 M49.67 64.46 C53.51 60.26, 57.23 56.44, 67.67 45.35 M54.3 67.11 C58.08 59.82, 63.08 57.84, 66.46 50.05 M53.46 66.16 C57.9 60.79, 62.96 55.06, 67.34 51.69 M59.37 66.09 C62.65 62.53, 64.38 60.45, 66.34 57.59 M59.57 65.41 C62.54 62.6, 64.61 58.79, 67.19 57.05" stroke="#868e96" stroke-width="0.5" fill="none"></path><path d="M-0.47 1.1 C23.84 -1.52, 45.7 0.22, 65.03 0.06 M-0.77 -0.21 C23.76 -0.73, 46.95 0, 63.95 -0.67 M63.19 -0.47 C63.68 25.55, 65.81 49.73, 62.9 63.7 M64.81 -0.65 C62.83 23.3, 63.94 47.29, 63.12 64.3 M65.29 63.25 C39.18 64.04, 14.21 63.07, 0.43 64.35 M63.96 63.78 C38.71 63.84, 15.13 64.07, 0.61 63.45 M-1.38 63.87 C1.74 48.15, -0.49 29.28, 0.44 -1.73 M0.16 63.6 C0.64 50.66, 0.06 37.98, -0.45 -0.49" stroke="#000000" stroke-width="1" fill="none"></path></g><g stroke-opacity="0.5" fill-opacity="0.5" stroke-linecap="round" transform="translate(170 74) rotate(0 32 32)"><path d="M0 0 C0 0, 0 0, 0 0 M0 0 C0 0, 0 0, 0 0 M-0.97 7.02 C1.22 4.14, 3.4 2.62, 5.22 0.7 M-0.07 6.14 C1.29 4.91, 2.08 3.24, 4.6 0.61 M-1.01 11.94 C2.18 7.8, 4.66 3.61, 11.01 0.07 M0.33 11.81 C3.19 9.26, 4.59 7.08, 10.11 0.12 M-1.41 20.41 C3.36 14.02, 6.03 11.06, 13.9 1.66 M-1.05 17.89 C3.13 14.39, 8.86 8.66, 16.19 -0.15 M-1.21 24.76 C7.64 16.17, 14.87 8.36, 19.38 -1.24 M-0.02 23.2 C6.45 16.31, 14.07 9.3, 20.63 -0.94 M1.79 29.91 C7.76 18.34, 19.12 8.13, 26.55 -1.39 M-0.85 31.04 C5.74 23.62, 12.5 16.83, 26.25 1.19 M-0.28 38.39 C9.7 25.51, 15.79 15.28, 31.05 -0.1 M-0.08 37.64 C10.85 23.32, 22.8 9.1, 32.8 -1.03 M-1.75 43.73 C10.68 28.99, 23.41 16.48, 35.74 0.06 M0.15 43.32 C13.92 26.78, 30.2 9.15, 37.15 0.36 M-1.6 49.93 C10.51 36.28, 21.87 24.69, 41.72 0.39 M-0.23 48.62 C15.65 31.39, 31.42 14.15, 43.14 -0.56 M-1.04 53.36 C9.13 42.67, 21.56 31.97, 46.95 1.26 M-0.11 53.97 C17.15 36.42, 34.49 16.55, 47.94 0.37 M-0.96 61.99 C12.28 44.6, 24.12 32.8, 53.26 -0.69 M-0.76 61.6 C15.39 42.54, 31.19 25.5, 53.87 0.2 M2.48 67.02 C21.1 40.97, 43.79 18.47, 56.96 -1.36 M1.24 64.89 C17.03 49.17, 30.47 31.46, 58.79 0.87 M8.36 66.11 C26.18 44.02, 43.63 19.17, 63.86 -0.02 M6.4 66.36 C27.56 39.65, 49.71 14.29, 63.87 0.07 M14.24 65.59 C33.59 44.29, 51.04 22.53, 65.87 2.16 M12.24 65.56 C27.77 49.45, 41.12 32.17, 66.02 1.43 M17.16 63.6 C34.44 46.7, 52.04 25.48, 66.07 8.99 M18.19 64.92 C31.36 48.85, 44.25 33.23, 65.7 9.12 M24.86 63.78 C33.21 54.1, 43.66 40.24, 68.45 16.23 M23.46 65.21 C34.87 51.62, 46.86 38.58, 66.46 13.52 M26.23 66.49 C42.08 49.45, 55.27 30.85, 65.89 22.04 M27.39 65.42 C44.19 48.22, 59.49 31.08, 65.69 21.43 M34.45 65.96 C46.14 53.01, 56.05 40.01, 67.85 27.15 M33.29 65.67 C45.08 50.92, 57.04 38.11, 66.13 26.91 M37.54 65.52 C46.19 55.74, 54.19 48.6, 64.94 32.08 M38.81 65.13 C45.37 57.83, 51.45 51.92, 67.15 32.25 M45.4 66.73 C52.19 54.38, 60.38 45.54, 65.31 41.02 M43.73 64.89 C51.19 57.45, 58.86 49.16, 66.98 38.57 M48.39 64.64 C56.55 59.1, 62.65 51.21, 66.51 43.3 M48.37 65.94 C55.67 57.6, 63.36 49.73, 67.35 45 M55.64 65.65 C55.85 63.26, 61.35 58.32, 65.39 52.78 M54.69 64.78 C59.33 59.93, 63.61 55.81, 67.04 50.87 M60.66 66.23 C61.11 63.98, 63.03 60.18, 67.68 57.59 M59.99 65.35 C61.9 62.84, 62.83 61.33, 67.14 57.12" stroke="#868e96" stroke-width="0.5" fill="none"></path><path d="M1.1 1.53 C14.57 1.23, 31.98 1.18, 64.06 1.45 M-0.21 -0.08 C22.13 -0.23, 45.65 0.44, 63.33 0.79 M63.53 -0.16 C65.34 19.64, 65.27 34.26, 63.7 65.41 M63.35 -0.59 C63.66 13.92, 63.93 25.94, 64.3 64.86 M63.25 63.89 C41.55 64.05, 18.21 64.84, 0.35 65.77 M63.78 63.57 C38.61 64.82, 13.39 64.58, -0.55 63.73 M-0.13 65.13 C1.44 49.85, 0.07 38.35, -1.73 -1.93 M-0.4 64.28 C0.17 48.17, 0.52 32.5, -0.49 -0.58" stroke="#000000" stroke-width="1" fill="none"></path></g><g stroke-opacity="0.5" fill-opacity="0.5" stroke-linecap="round" transform="translate(74 138) rotate(0 32 32)"><path d="M0 0 C0 0, 0 0, 0 0 M0 0 C0 0, 0 0, 0 0 M0.36 5.98 C1.49 4.23, 3.97 2.56, 5.33 -0.2 M-0.52 6.77 C1.37 4.33, 2.82 1.99, 5.23 0.3 M0.03 11.12 C2.63 6.88, 5.19 4.86, 10.74 -1.25 M-0.1 12.81 C3.78 7.57, 8.02 2.95, 10.78 -0.66 M1.85 18.48 C4.73 11.72, 11.04 4.75, 16.95 -0.44 M-0.68 17.65 C5.97 13.21, 10.36 6.76, 15.15 0.4 M0.94 24.95 C5.71 19.09, 11.24 8.77, 20.09 0.25 M-0.61 23.81 C8.02 15.8, 16.52 5.38, 20.39 0.36 M-0.56 29.45 C7.92 20.37, 17.81 8.12, 24.56 -0.84 M0.56 30.05 C10.44 19.25, 20.91 7.92, 27.15 -0.05 M1.25 38.02 C5.54 27.12, 12.49 19.13, 31.89 1.35 M0.51 36.29 C12.06 22.26, 23.73 9.85, 30.96 -0.02 M1.35 41.65 C9.97 31.48, 20.84 17.92, 36.68 2.16 M0.93 41.64 C10.87 32.18, 19.69 20.35, 36.98 -0.17 M0.89 48.35 C10.72 36.58, 22.59 23.52, 43.04 1.01 M-0.42 49.25 C10.76 37.25, 21.99 24.4, 42.1 -1.02 M-0.93 53.71 C16.56 37.21, 34.1 15.82, 48.54 1.21 M-0.32 54.65 C12.78 42.26, 23.54 28.36, 47.65 -0.35 M1.05 60.73 C17.97 37.47, 40.52 16.45, 52.63 -0.22 M0.65 60.35 C14.36 44.08, 30 28.75, 53.52 0.38 M3.65 64.07 C14.4 50.7, 28.69 32.08, 56.59 -0.74 M1.52 65.91 C17.66 47.6, 31.81 30.61, 58.82 0.62 M7.36 65.94 C30.2 37.59, 50.26 13.58, 63.97 1.51 M7.61 64.57 C25.95 42.23, 45.61 20.47, 64.06 0.32 M12.88 66.89 C28.25 47.8, 43.21 30.01, 66.54 1.81 M12.85 65.83 C30.37 45.39, 46.64 26.03, 65.81 2.82 M15.51 65.6 C31.04 51.42, 42.19 34.8, 66.71 8.38 M16.84 66.05 C33.85 44.87, 51.33 24.24, 66.84 8.11 M21.73 65.21 C37.39 49.42, 48.82 34.7, 68.7 13.92 M23.16 64.52 C33.06 53.2, 43.45 42.15, 65.99 15.22 M29.07 65.13 C42.09 48.8, 53.55 34.36, 67.85 22.74 M28 66.07 C37.55 55.73, 47.18 43.43, 67.24 21.07 M34.58 66.82 C44.62 53.6, 54.64 41.17, 67.72 27.55 M34.29 64.66 C43.03 53.46, 53.75 41.25, 67.48 26.06 M38.76 65.69 C45.41 57.26, 54.7 44.94, 65.99 31.26 M38.37 65.97 C46.73 55.99, 56.46 45.95, 66.16 33.65 M46.01 64.78 C52.24 54.21, 61.95 43.08, 68.27 39.55 M44.18 65.02 C52.27 57.21, 59.49 48.28, 65.82 39.73 M48.54 66.72 C56.76 59.05, 62.62 49.44, 65.3 46.91 M49.85 64.73 C55.13 59.16, 60.89 53.2, 67 44.42 M54.19 64.25 C59.5 61.82, 62.26 54.79, 68.12 52.68 M53.32 66.23 C58.04 60.95, 63.46 56.23, 66.21 51 M60.81 64.56 C62.32 62.71, 62.28 62.25, 67.69 56.4 M59.92 65.62 C62.26 61.54, 65.58 58.92, 67.21 56.48" stroke="#868e96" stroke-width="0.5" fill="none"></path><path d="M1.53 -1.1 C24.49 0.29, 47.85 -0.29, 65.45 1.12 M-0.08 -0.66 C19.19 0.21, 39.76 -0.53, 64.79 -0.24 M63.84 1.29 C65.7 20.95, 62.64 39.17, 65.41 62.19 M63.41 -0.42 C65.03 19.85, 63.64 40.31, 64.86 64.5 M63.89 63.92 C43.22 62.71, 23.6 64.11, 1.77 65.95 M63.57 64.05 C47.75 64.13, 30.43 63.3, -0.27 63.04 M1.13 65.65 C-0.66 43.03, 0.88 19.79, -1.93 -1.15 M0.28 63.68 C-0.41 49.76, -0.55 34.97, -0.58 -0.43" stroke="#000000" stroke-width="1" fill="none"></path></g><g stroke-opacity="0.5" fill-opacity="0.5" stroke-linecap="round" transform="translate(138 138) rotate(0 32 32)"><path d="M0 0 C0 0, 0 0, 0 0 M0 0 C0 0, 0 0, 0 0 M-0.68 6.32 C0.91 5.51, 2.57 3.77, 4.42 0.6 M0.11 6.33 C1.52 3.94, 3.04 2.4, 4.92 0.42 M-0.79 11.32 C2.85 5.91, 8.7 2.83, 9.41 0.83 M0.91 11.89 C2.37 9.63, 4.48 6.6, 10.01 0.23 M-0.08 18.06 C4.03 13.42, 7.93 8.52, 14.85 1.17 M-0.91 19 C4.32 14.12, 7.52 10.11, 15.69 0.14 M1.14 23.43 C6.71 17.66, 7.82 12.2, 21.58 1.44 M0 23.88 C6.75 18.14, 11.1 10.29, 21.69 0.65 M-1.02 28.94 C11.51 17.15, 20.92 4.85, 25.12 1.84 M-0.42 30.71 C5.47 25.07, 10.79 19.13, 25.9 -0.42 M0.89 35.41 C8.82 22.82, 19.67 12.76, 33.34 1.44 M-0.84 37.3 C10.73 23.19, 23.93 8.86, 31.98 -0.29 M-0.73 42.22 C13.96 27.68, 25.21 12.4, 38.78 -0.44 M-0.74 43.29 C10.22 31.49, 18.8 21.16, 36.45 -0.2 M-0.69 48.79 C11.63 36.29, 22.6 22.58, 43.66 -1 M0.21 49.25 C17.01 31.01, 32.97 11.33, 41.64 0.4 M-0.58 54.46 C19.35 35.83, 34.36 16.44, 48.49 -0.84 M0.36 55.34 C14.92 39.18, 27.94 23.89, 46.94 0.89 M-0.22 59.75 C17.89 40.79, 38.2 16.7, 53.1 -0.72 M-0.6 60.26 C10.99 48.27, 23.45 35.39, 53.7 -0.74 M0.7 63.96 C19.44 45.18, 32.96 25.42, 57.21 -0.36 M2.54 65.58 C18.25 45.72, 35.24 28.43, 58.57 1.11 M7.19 66.41 C20.18 45.88, 37.57 29.41, 65.5 0.68 M5.82 64.71 C20.46 47.7, 35.65 32.25, 64.31 -0.52 M14.18 66.66 C30.81 45.01, 48.82 20.94, 66.19 2.53 M13.11 65.82 C22.89 52.46, 33.72 38.39, 67.2 2.08 M17.52 65.65 C30.21 50.58, 40.47 38.95, 66.1 9.87 M17.96 64.7 C32.42 46.97, 47.48 29.77, 65.84 8.92 M23.16 65.37 C32.69 52.29, 43.35 44.83, 66.39 12.85 M22.47 65.15 C32.67 53.79, 43.17 39.94, 67.7 14.89 M27.71 66.1 C37.23 51.95, 48.6 42.15, 68.56 19.62 M28.65 65.95 C42.27 51.03, 53.89 35.29, 66.89 21.03 M35.44 65.54 C45.87 51.59, 57.13 39.13, 68.12 26.45 M33.27 64.71 C45.83 51.12, 57.35 36.92, 66.63 26.38 M38.93 64.06 C48.47 55.32, 54.08 44.75, 65.17 32.96 M39.22 64.82 C46.6 57.4, 53.93 47.43, 67.56 33.89 M44.07 63.83 C48.57 58.87, 52.52 55.36, 66.8 40.01 M44.3 65.31 C50.2 59.22, 54.95 52.57, 66.98 40.1 M50.63 66.06 C55.71 59.51, 58.84 52.28, 68.91 45.16 M48.64 65.8 C55.55 58.91, 62.03 51.2, 66.42 45.25 M52.79 66.83 C58.89 61.1, 60.41 58.38, 68.02 52.09 M54.77 65.15 C57.1 63.3, 59.99 59.01, 66.34 50.54 M59.13 66.15 C60.92 62.36, 64.11 61.58, 66.49 57.92 M60.19 64.86 C61.11 63.32, 63.5 61.27, 66.58 56.71" stroke="#868e96" stroke-width="0.5" fill="none"></path><path d="M-1.1 1.08 C18.34 0.54, 35.45 0.96, 65.12 0.22 M-0.66 -0.72 C14.36 0, 27.91 0.84, 63.76 0.08 M65.29 1.96 C65.06 15.49, 63.55 34.61, 62.19 64.25 M63.58 0.52 C63.43 23.49, 63.89 49.59, 64.5 64.19 M63.92 63.64 C39.61 64.39, 17.66 65.73, 1.95 63.34 M64.05 64.84 C45.33 64.34, 25.55 63.46, -0.96 64.32 M1.65 62.9 C0.32 49.66, -1.68 32.52, -1.15 -1.54 M-0.32 63.7 C0.29 43.31, -0.23 22.94, -0.43 -0.49" stroke="#000000" stroke-width="1" fill="none"></path></g><g stroke-opacity="0.5" fill-opacity="0.5" stroke-linecap="round" transform="translate(202 138) rotate(0 32 32)"><path d="M0 0 C0 0, 0 0, 0 0 M0 0 C0 0, 0 0, 0 0 M-0.34 6.24 C1.41 5.39, 2.25 3.32, 5.23 0.79 M-0.33 6.35 C1.24 3.86, 3.66 2.1, 5.05 0.7 M-0.59 10.62 C1.06 9.72, 5.05 5.36, 11.49 -1.11 M-0.02 11.87 C3.95 7.5, 7.13 3.48, 10.9 0.02 M-0.51 17.65 C4.09 12.45, 8.46 9.12, 16.46 -1.29 M0.43 19.27 C2.8 15.37, 6.04 11.12, 15.43 -0.47 M-0.38 25.73 C3.91 16.65, 8.51 13.39, 22.77 -0.64 M0.07 24.8 C6.61 16.95, 11.01 11.46, 21.97 0.91 M-1.53 31.82 C8.91 19.17, 18.83 5.99, 27.8 -1.7 M0.23 30.42 C6.26 24.12, 12 17.29, 25.53 0.52 M-1.72 35.57 C7.2 24.8, 18.68 16.04, 33.43 1.16 M0.17 36.26 C9.65 26.24, 18.94 13.68, 31.71 0.41 M-0.16 43.04 C7.67 32.85, 14.8 27.2, 36.19 -0.73 M0.91 43.4 C10.72 30.38, 22.05 16.94, 36.42 -0.03 M-0.25 48.73 C10.19 37.14, 19.45 27.99, 41.65 1.47 M0.21 49.79 C12.96 35.22, 24.25 19.55, 43.06 0.49 M0.17 56.14 C12.38 41.47, 23.77 30.28, 46.44 -0.05 M1.05 55.48 C12.87 40.69, 25.52 25.44, 48.18 0.78 M-1.2 59.65 C14.91 45.74, 25.93 30.2, 52.6 -1.99 M-0.69 60.34 C11.95 48.35, 23.73 34.52, 52.59 -0.28 M0.58 66.73 C19.59 42.25, 37.72 20.54, 57.59 -0.04 M2.2 65.03 C15.36 48.87, 31.06 32.25, 59.06 -0.07 M7.66 63.8 C26.98 40.24, 50.39 16.74, 64.67 -1.19 M5.96 64.68 C20.72 48.37, 37.12 31.13, 63.46 0.28 M13.95 65.12 C35.61 38.92, 54.88 14.54, 66.92 0.47 M13.11 64.49 C28.15 45.75, 42.52 28.83, 66.47 1.81 M17.57 66.47 C30.46 48.4, 46.71 31.93, 67.59 9.21 M16.61 65.25 C36 42.45, 55.86 20.76, 66.65 8.01 M23.33 65.55 C38.73 46.58, 59.7 24.59, 65.32 13.22 M23.1 64.51 C39.07 47.16, 52.56 30.78, 67.37 14.18 M28.68 63.75 C34.85 55.16, 45.4 48.34, 65.43 21.74 M28.53 66.11 C38.32 53.34, 47.3 43.73, 66.85 21.28 M34.16 65.97 C44.81 52.29, 56.97 39.39, 67.02 27.84 M33.33 64.81 C42.83 53.82, 51.74 43.97, 66.94 26.54 M37.3 66.46 C45.42 55.4, 51.71 47.61, 66.87 32.24 M38.07 65.89 C48.39 55.08, 56.16 45.06, 67.8 32.06 M43.11 64.6 C51.67 54.55, 61.71 46.84, 67.26 37.84 M44.59 65.71 C49.91 58.98, 54.66 52.57, 67.35 39.11 M49.97 66.74 C53.73 59.5, 56.8 56.64, 67.16 45.84 M49.71 65.35 C53.63 61.46, 56.76 56.17, 67.25 44.98 M55.37 66.66 C58.68 59.1, 65.01 56.35, 67.43 49.82 M53.69 65.89 C59.38 60.93, 62.62 55.21, 65.88 50.92 M60.72 64.56 C61.74 62.84, 65.79 58.55, 68.02 56.42 M59.43 64.76 C62.3 62.61, 64.66 59.36, 66.81 57.14" stroke="#868e96" stroke-width="0.5" fill="none"></path><path d="M1.08 0.64 C23.75 0.41, 46.9 1.47, 64.22 -1.53 M-0.72 0.07 C17.8 -0.24, 36.49 0.19, 64.08 -0.41 M65.96 1.21 C62.84 17.41, 65.36 33.6, 64.25 65.61 M64.52 -0.15 C62.75 15.35, 64.48 30.58, 64.19 64.65 M63.64 62.95 C47.62 64.32, 32.16 65.92, -0.66 63.92 M64.84 64.28 C46.85 63.48, 28.21 63.07, 0.32 63.31 M-1.1 64.27 C0.08 43.5, -2.29 25.3, -1.54 0.32 M-0.3 64.03 C-0.62 46.88, -0.76 30.31, -0.49 -0.47" stroke="#000000" stroke-width="1" fill="none"></path></g><g stroke-opacity="0.5" fill-opacity="0.5" stroke-linecap="round" transform="translate(42 202) rotate(0 32 32)"><path d="M0 0 C0 0, 0 0, 0 0 M0 0 C0 0, 0 0, 0 0 M-0.42 7.01 C1.99 4.46, 3.17 2.08, 5.42 0.73 M-0.31 6.04 C0.52 5.24, 2.08 3.64, 5.33 0.08 M-1.29 10.56 C3.67 8.65, 5.15 5.86, 9.56 0.36 M-0.04 12.42 C2.35 8.94, 5.09 5.78, 10.68 -0.55 M-0.91 19.13 C4.43 12.58, 11.65 4.87, 14 -1.52 M0.7 18 C4.44 13.45, 7.8 9.3, 14.82 -0.41 M1.91 23.05 C5.29 14.92, 14.5 9.53, 20.69 -0.64 M0.98 24.51 C4.15 18.14, 9.66 14.6, 22.24 0.82 M1.34 29.08 C7.59 20.8, 13.28 15.83, 24.26 -1.42 M-0.05 31.27 C9.48 20.58, 18.47 8.22, 26.48 0.28 M-1.56 35.01 C10.77 23.23, 25.13 10.88, 33.15 0.24 M-0.87 36.86 C12.96 21.9, 24.23 8.73, 32.4 -1.05 M0.66 42.75 C12.42 27.15, 28.7 11.42, 35.89 0.28 M1.02 42.36 C14.72 26.3, 27.97 9.7, 36.59 -0.48 M-0.32 49.83 C14.16 32.27, 31.06 13.68, 44.12 -0.36 M0.75 49.54 C11.85 35.11, 21.87 22.81, 43.15 -0.79 M1.85 55.27 C11.28 42.57, 24.17 27.42, 47.23 -0.53 M1.19 54.45 C12.03 41.24, 22.42 28.67, 48.06 -0.26 M-1.3 62.8 C18.89 39.26, 37.42 17.72, 51.34 -1.7 M-0.61 61.41 C20.44 39.46, 39.59 16.29, 53.05 0.21 M3.35 64.51 C23.25 38.13, 45.87 13.39, 57.91 -0.76 M1.66 64.34 C17.63 47.33, 33.2 29.4, 57.88 1.02 M5.06 64.09 C25.62 43.51, 46.27 22.35, 62.8 -0.82 M5.93 64.7 C29.7 40.47, 52.46 14.2, 64.27 0.74 M12.41 67.01 C28.62 43.91, 46.73 23.83, 64.86 2.2 M11.77 65.44 C30.14 41.73, 50.37 20.47, 66.19 2.33 M18.39 63.68 C27.09 53.71, 37.4 42.77, 66.93 10.53 M17.17 64.83 C28.46 51.9, 40.92 37.53, 65.74 9.76 M23.5 63.14 C34.89 54.7, 43.27 39.31, 65.69 15.42 M22.46 65.9 C36.77 47.91, 52.02 33.17, 66.65 13.59 M26.33 64.26 C40.98 50.62, 57.4 32.38, 67.55 19.71 M28.69 66.37 C38.44 52.2, 51.4 38.28, 67.09 21.28 M34.58 64.93 C45.69 52.14, 57.62 38.02, 68.41 25.88 M33.43 65.48 C45.11 51.32, 57.93 36.62, 67.11 25.97 M39.7 65.23 C45.37 54.71, 54.3 45.58, 66.14 33.33 M39.14 66 C46.57 55.84, 54.82 48.46, 65.97 33.48 M43.88 64.63 C51.69 56.83, 61.85 45.85, 65.09 38.29 M45 65.05 C51.22 56.61, 57.77 50.6, 66.35 38.88 M50.64 65.18 C53.37 58.19, 60.48 54.63, 67.84 43.23 M49.26 66.05 C56.18 57.9, 61.68 50.77, 66.98 45.69 M55.2 65.46 C56.76 62.76, 63.11 57.79, 65.16 52.3 M54.42 66.34 C57.05 62.33, 58.93 59.04, 66.26 52.03 M59.13 64.55 C63.31 62.63, 64.91 59.75, 66.51 57.25 M59.34 65.4 C62.13 62.88, 63.82 59.88, 67.23 56.66" stroke="#868e96" stroke-width="0.5" fill="none"></path><path d="M0.64 1.03 C24.16 1.1, 49.32 -0.13, 62.47 -0.42 M0.07 -0.05 C18.04 1.25, 37.17 0.54, 63.59 -0.23 M65.21 -1.1 C64.11 20.09, 62.6 37.6, 65.61 62.7 M63.85 -0.88 C64.04 16.3, 64.23 31.06, 64.65 63.63 M62.95 64.43 C45.49 65.65, 28.25 63.22, -0.08 63.55 M64.28 64.61 C46.98 64.27, 30.11 64.86, -0.69 63.93 M0.27 64.44 C-2.25 39.26, -1.67 16.84, 0.32 -0.8 M0.03 63.55 C-0.28 42.45, -0.22 21.57, -0.47 -0.09" stroke="#000000" stroke-width="1" fill="none"></path></g><g stroke-opacity="0.5" fill-opacity="0.5" stroke-linecap="round" transform="translate(106 202) rotate(0 32 32)"><path d="M0 0 C0 0, 0 0, 0 0 M0 0 C0 0, 0 0, 0 0 M0.35 6.63 C1.39 4.35, 2.59 3.84, 5.36 -0.16 M-0.62 6.01 C2.05 3.97, 3.93 2.01, 4.7 0.33 M-1.35 12.42 C2.84 7.99, 6.14 5.21, 11.02 -0.49 M0.51 11.53 C4.47 6.65, 8.75 2.54, 10.12 0.76 M0.56 16.72 C6 12.26, 10.27 5.94, 13.77 -0.78 M-0.56 19.01 C2.79 14.37, 6.56 9.48, 14.88 0.66 M-0.76 22.21 C6.39 15.93, 16.28 6.74, 20.69 -1.83 M0.7 23.45 C5.17 17.77, 12.49 11.73, 22.15 -0.35 M-1.39 30.79 C5.08 21.67, 14.84 13.29, 24.54 1.41 M0.8 30.48 C7.59 22.38, 12.73 15.18, 26.24 1.05 M-2.13 36.04 C11.5 25.33, 24.53 11.92, 32.24 1.42 M-0.27 37.79 C6.43 28.22, 14.94 19.71, 30.95 0.5 M0.37 41.38 C9.43 33.49, 18.35 19.76, 36.9 1.85 M-0.02 42.79 C7.7 32.81, 14.93 23.99, 36.14 0.76 M0.79 48.12 C12.02 36.78, 22.21 23.91, 42.3 -0.73 M0.5 49.53 C13.51 31.31, 28.69 16.47, 41.86 -0.74 M0.98 54 C13.5 41.18, 23.57 25.91, 46.75 -0.96 M0.16 54.99 C14.58 36.77, 29.69 21.12, 47.02 0.74 M1.85 61.07 C15.2 43.61, 30.51 24.2, 51.62 1.1 M0.46 61.68 C13.52 47.22, 25.29 31.94, 53.53 0.79 M1.14 63.92 C14.59 47.54, 29.65 32.07, 57.19 -0.21 M0.96 65.75 C23.64 40.76, 45.43 15.28, 58.97 0.52 M5.34 65.53 C25.09 46.34, 44.31 22.34, 63.16 1.62 M5.95 65.54 C19.53 52.54, 31 38.62, 64.72 0.06 M14.3 64.13 C32.9 39.92, 54.59 14.06, 66.58 3.42 M12.72 64.28 C31.4 42.17, 52.57 17.55, 66.71 1.51 M15.6 64.95 C32.65 47.22, 48.75 30.55, 68.25 7.82 M16.74 64.58 C35.91 44.25, 53.58 23.59, 67.48 8.19 M21.09 66.54 C38.26 48.72, 48.48 32.38, 67.9 14.83 M23.86 64.55 C32.93 53.41, 45.27 39.75, 66.06 15.01 M26.84 64.6 C40.11 54.8, 48.8 41.01, 65.52 20.93 M28.95 64.41 C42.54 48.91, 56.41 32.71, 67.09 21.34 M33.55 65.77 C47.26 50.8, 59.67 36.01, 66.44 27.86 M34.1 64.05 C43.04 54.35, 51.43 44.57, 66.54 26.58 M38.47 63.48 C46.93 53.28, 56.74 43.97, 67.24 32.45 M39.24 65.69 C48.34 54.19, 60.22 40.83, 67.39 33.78 M43.91 63.72 C52.6 57.77, 58.1 48.59, 65.53 39.17 M44.33 65.4 C50.26 57.35, 58.64 48.86, 66.12 38.96 M49.09 64.89 C54.07 59.61, 62.49 50.99, 65.23 46.19 M49.96 65.73 C53.46 59.88, 57.99 55.52, 67.69 44.93 M54 64.39 C58.37 63.73, 60.5 57.64, 67.64 49.55 M54.88 66.03 C58.3 60.17, 62.43 54.95, 67.37 52.16 M59.12 65.89 C62.1 62.8, 64.12 60.87, 67.34 57.12 M59.97 65.35 C62.66 61.85, 64.87 59.5, 66.75 57.14" stroke="#868e96" stroke-width="0.5" fill="none"></path><path d="M1.03 0.06 C17.13 0.92, 31.58 -1.74, 63.58 -0.15 M-0.05 -0.67 C15.75 -0.28, 30 -0.45, 63.77 -0.08 M62.9 -0.3 C66.04 21.51, 64.88 48.26, 62.7 62.82 M63.12 0.3 C65.19 17.01, 64.52 33.68, 63.63 63.95 M64.43 64.35 C46.83 65.62, 25.46 63.59, -0.45 63.15 M64.61 63.45 C44.21 63.22, 25.27 63.49, -0.07 64.56 M0.44 62.27 C-1.58 38.38, -1.19 15.38, -0.8 0.55 M-0.45 63.51 C-0.38 46.43, -0.29 29.24, -0.09 0.84" stroke="#000000" stroke-width="1" fill="none"></path></g><g stroke-opacity="0.5" fill-opacity="0.5" stroke-linecap="round" transform="translate(170 202) rotate(0 32 32)"><path d="M0 0 C0 0, 0 0, 0 0 M0 0 C0 0, 0 0, 0 0 M-0.03 6.74 C0.71 4.85, 3.23 3.22, 4.46 1.1 M-0.65 6.64 C1.16 4.81, 3.05 2.75, 4.96 0.13 M0.51 12.15 C1.7 9.92, 4.52 6.37, 10.17 1.51 M-0.38 12.19 C2.49 8.86, 6.11 4.69, 11.42 -0.02 M-1.84 19.78 C3.6 14.14, 7.18 6.36, 14.51 -1.24 M0.44 17.97 C5.41 11.87, 10.14 4.86, 15.96 0.76 M-1.61 22.91 C6.01 19.24, 10.73 10.7, 19.5 -0.61 M-0.37 23.21 C6.4 17.94, 12.84 11.35, 20.98 -0.58 M0.31 28.8 C4.53 25.47, 9.53 15.48, 27.37 -0.56 M0.01 31.38 C8.15 19.81, 17.2 10.76, 27 0.86 M-1.09 36.88 C8.72 30.33, 15.82 20.76, 33.42 -1.27 M0.65 35.95 C11.08 24.02, 22.52 10.59, 32.49 -0.54 M-1 42.33 C12.4 29.74, 19.98 18.41, 38.47 -1.5 M0.41 42.62 C13.19 26.18, 27.19 9.96, 37.38 -0.03 M-0.93 49.44 C13.58 33.46, 26.56 19.7, 41.92 0.53 M0.49 48.5 C12.77 32.85, 28.49 15.31, 41.92 -0.56 M-0.29 55.6 C14.77 37.29, 27.45 21.56, 46.33 0.4 M0.7 54.71 C17.06 34.74, 36.04 13.05, 48.03 0.11 M0.12 60.44 C13.1 45.27, 24.07 29.63, 54.43 -1.39 M0.73 61.33 C13.16 46.1, 24.72 32.98, 54.12 -0.68 M0.54 63.55 C13.99 48.92, 28.42 32.73, 57.74 1.83 M2.37 65.78 C21.86 43.8, 40.85 21.08, 58.47 0.43 M6.78 65.64 C28.82 43.89, 45.98 19.54, 65.6 -1.98 M6.79 65.73 C20.64 50.72, 33.5 37.14, 64.05 0.71 M11.42 64.8 C32.43 40.82, 51.79 16.67, 67.8 3.95 M11.57 64.07 C33.61 40.94, 53.1 17.6, 65.89 2.51 M16.87 65.59 C31.94 49.25, 48.1 32.27, 65.55 10.08 M16.5 65.72 C27.95 52.91, 39.07 40.83, 65.91 8.91 M24.49 66.79 C36.26 47.77, 49.51 34.3, 67.31 13.44 M22.5 64.08 C37.74 49.26, 50.44 32.15, 67.48 14.33 M27.18 66.57 C43.21 49.41, 55.2 34.55, 66.75 22.23 M26.99 65.95 C41.67 49.29, 55.68 33.65, 67.16 21.77 M34.39 65.64 C45.43 52.35, 56.68 39.16, 68.43 25.83 M32.67 65.4 C42.35 54.22, 51.95 43.33, 67.15 26.67 M36.72 64.53 C43.43 57.79, 51.04 50.51, 66.36 34.15 M38.94 64.7 C46.15 58.14, 51.53 49.7, 67.69 32.81 M43 66.68 C49.98 59.45, 53.71 51.46, 66.42 39.43 M44.68 64.23 C51.96 57.14, 58.82 47.3, 66.2 40 M48.8 63.68 C57.03 58.67, 61.93 49.86, 68.19 43.76 M49.64 65.38 C54.87 58.4, 61.6 51.74, 66.93 44.19 M52.93 67.12 C59.98 61.27, 61.63 56.3, 64.89 52.45 M54.57 65.21 C56.9 61.28, 59.87 59.26, 67.5 50.71 M60.47 65.9 C62.06 63.13, 64.82 59.3, 67.21 57.65 M59.92 65.42 C61.05 63.15, 63.31 61.24, 67.24 56.84" stroke="#868e96" stroke-width="0.5" fill="none"></path><path d="M0.06 1.45 C23.78 -0.11, 43.78 -0.75, 63.85 -1.33 M-0.67 0.79 C14.36 0.11, 28.79 -0.2, 63.92 0.64 M63.7 1.41 C62.58 25.72, 66 49.63, 62.82 63.16 M64.3 0.86 C64.4 22.69, 64.55 44.62, 63.95 63.96 M64.35 65.77 C47.92 63.48, 27.86 63.69, -0.85 64.1 M63.45 63.73 C38.44 64.71, 14.11 64.32, 0.56 64.82 M-1.73 62.07 C-1.23 46.79, 0.24 31.86, 0.55 -0.64 M-0.49 63.42 C-0.45 46.26, -0.49 29.42, 0.84 0.8" stroke="#000000" stroke-width="1" fill="none"></path></g><g stroke-opacity="0.5" fill-opacity="0.5" stroke-linecap="round" transform="translate(234 202) rotate(0 32 32)"><path d="M0 0 C0 0, 0 0, 0 0 M0 0 C0 0, 0 0, 0 0 M0.08 5.83 C1.41 5.12, 3.01 2.47, 5.72 0.22 M-0.02 6.33 C1.36 5.06, 2.52 2.95, 4.76 0.18 M0.24 10.82 C3.33 8.39, 5.07 6.45, 12.18 -0.34 M0.28 11.42 C3.26 8.8, 5.4 6.18, 10.65 -0.19 M1.21 17.67 C4.76 12.24, 6.17 8.02, 14.05 1.45 M-0.6 18.52 C5.79 10.62, 11.26 4.82, 16.05 0 M-0.9 24.4 C9.92 14.47, 15.87 4.05, 20.72 -0.46 M-0.6 24.51 C8.68 16.22, 16.66 5.98, 20.75 -0.84 M-1.68 29.35 C11.39 17.38, 17.76 9.41, 25.4 0.75 M0.91 30.14 C6.77 21.82, 15.2 13.47, 26.82 -0.44 M-0.25 38.33 C9.18 29.59, 15.53 21.17, 30.72 0.75 M-1.18 36.96 C7.22 28.29, 14.12 19.57, 31.45 -0.25 M-0.06 44.42 C11.37 27.97, 24.06 16.77, 35.12 1.8 M0.24 42.1 C14.01 25.72, 28.01 10.1, 36.59 0.19 M0.4 50.06 C11.17 36.45, 24.19 20.01, 43.19 0.52 M-0.54 48.03 C16.62 30.3, 31.92 10.09, 42.1 -0.19 M1.31 55.55 C16.92 33.82, 35.14 12.31, 47.68 1.78 M0.42 53.99 C19.53 33.6, 36.91 12.25, 47.39 -0.38 M-0.51 60.91 C11.38 44.77, 22.86 33.51, 51.93 -1.57 M0.38 61.51 C11.83 45.9, 25.44 32.41, 52.64 -0.74 M0.17 64.17 C22.9 40.42, 44.04 15.47, 59.78 1.16 M2.4 65.52 C19.71 45.39, 36.21 26.89, 58.38 0.67 M6.89 67.17 C20.46 50.16, 31.38 38.68, 62.01 -1.69 M6.98 65.98 C19.61 51.24, 33.61 36.37, 64.69 0.6 M12.08 64.45 C28.35 44.38, 44.52 28.34, 68.34 3.95 M11.36 65.46 C25 49.67, 38.46 34.16, 66.89 2.53 M17.51 64.98 C36.24 45.96, 54.25 24.6, 67.8 7.38 M17.64 64.72 C31.73 48.98, 46.51 33.1, 66.63 8.99 M24.75 64.48 C36.18 46.95, 53.1 32.07, 65.92 14.71 M22.04 65.79 C33.89 52.38, 43.51 40.65, 66.8 14.82 M29.15 67.27 C35.42 56.71, 43.95 46.19, 68.04 21.99 M28.53 65.6 C42.13 49.59, 56.8 33.06, 67.59 21.13 M34.26 66.04 C45.24 52.77, 56.34 39.36, 66.4 25.95 M34.02 64.55 C42.74 54.48, 51.79 43.65, 67.23 25.85 M37.78 63.72 C48.71 53.41, 59.11 42.09, 68.05 31.84 M37.95 66.1 C49.38 52.92, 58.96 43.14, 66.72 32.34 M45.96 65.21 C51.29 56.4, 55.86 50.48, 66.68 40 M43.51 65.39 C53.41 55.02, 60.57 45.22, 67.25 39.67 M47.59 67.29 C56.03 58.69, 60.67 51.48, 65.76 45.9 M49.29 64.8 C54.77 59.1, 60.58 52.86, 66.19 45.55 M55.65 67.02 C59.37 59.2, 63.96 53.88, 67.79 50.29 M53.75 65.34 C57.33 60.59, 62.85 57.2, 66.05 52.09 M60.47 64.7 C62.55 62.73, 63.56 61.48, 67.75 56.13 M59.99 64.79 C61.06 63.72, 62.49 62.02, 66.93 57.17" stroke="#868e96" stroke-width="0.5" fill="none"></path><path d="M1.45 1.12 C21.48 -1.55, 42.09 -0.17, 62.67 -1.44 M0.79 -0.24 C19.74 0.02, 39.08 0.35, 64.64 0.98 M65.41 -1.81 C63.9 24.69, 62.35 44.98, 63.16 65.03 M64.86 0.5 C63.63 18.88, 63.06 36.41, 63.96 63.82 M65.77 65.95 C47.49 64.03, 31.85 63.26, 0.1 65.69 M63.73 63.04 C43.34 62.95, 21.98 64.21, 0.82 63.45 M-1.93 62.85 C-1.68 44.25, -0.94 24.4, -0.64 -0.61 M-0.58 63.57 C-0.2 44.14, 0.2 26.07, 0.8 0.39" stroke="#000000" stroke-width="1" fill="none"></path></g><g stroke-opacity="0.5" fill-opacity="0.5" stroke-linecap="round" transform="translate(10 266) rotate(0 32 32)"><path d="M0 0 C0 0, 0 0, 0 0 M0 0 C0 0, 0 0, 0 0 M-0.82 6.64 C2.13 4.48, 3.15 2.56, 4.84 0.26 M-0.32 6.46 C1.25 4.8, 1.99 3.58, 4.81 0.01 M-1.08 12.9 C1.21 9.92, 4 8.57, 10.33 -0.38 M-0.49 12.31 C3.9 7.32, 8.28 3.66, 10.48 -0.35 M-0.9 19.28 C3.68 10.43, 9.45 4.65, 16.74 1.98 M-0.05 18.25 C3.01 13.13, 8.18 9.66, 15.29 1.15 M0.59 25.59 C5.14 17.63, 9.17 11.65, 20.86 1.36 M0.69 24.8 C8.6 16.87, 14.53 7.19, 20.49 0.6 M-1.12 32.03 C4.01 22.04, 13.16 15.95, 26.71 0.18 M-0.34 29.77 C10.19 18.78, 20.67 7.91, 25.51 -0.36 M1.2 38.42 C7.8 29.59, 14.7 20.44, 32.75 -1.34 M-0.17 36.69 C9.52 25.19, 19.21 14.65, 31.74 0.16 M2.04 41.83 C10.83 29.42, 24.85 14.47, 38.42 2.02 M-0.29 42.06 C10.19 29.73, 21.42 18.16, 36.81 0.16 M1.02 48.05 C16.42 31.63, 28.96 15.56, 43.18 1.6 M-1.01 49.46 C15.64 30.68, 29.85 13.16, 42.47 0.65 M1.26 53.49 C15.99 35.34, 30.93 18.04, 49.07 2.07 M-0.3 55.23 C14.24 38.31, 27.85 22.98, 46.9 -0.43 M-0.04 60.41 C18.99 35.6, 42.91 11.96, 51.75 -1.41 M0.56 60.39 C17.81 40.04, 37.23 18.04, 52.58 0.65 M0.79 64.55 C17.16 47, 32.27 32, 59.11 0.07 M2.15 66.01 C13.72 50.95, 26.98 35.78, 58.62 -0.64 M8.42 66.34 C18.94 49.55, 34.98 33.17, 62.3 -1.75 M7.23 65.14 C19.97 51.48, 32.58 36.68, 64.58 -0.18 M11.74 65.17 C32.34 40.01, 56.93 16.86, 68.33 1.27 M12.75 64.73 C30.62 44.35, 48.71 23.37, 66.92 2.95 M16.9 66.47 C28.35 55.02, 37.45 42.51, 65.1 8.49 M16.63 65.53 C28.87 52.57, 40.9 38.08, 66.71 9.08 M22.43 63.41 C30.39 55.2, 41.06 42.81, 67.18 13.43 M23.74 65.46 C39.98 44.96, 57.87 26.08, 67.29 13.64 M29.85 64.14 C38.47 53.14, 47.1 44.8, 67.81 22.31 M28.18 65.56 C44.23 47.85, 59.71 30.62, 66.95 21.34 M34.66 64.94 C44.73 52.83, 54.69 41.35, 66.51 26.15 M33.17 64.87 C45.69 50.89, 57.4 38.16, 66.42 27.05 M36.96 65.41 C46.53 56.36, 55.04 47.64, 65.75 33.99 M39.35 66.35 C47.94 54.27, 59.96 41.76, 66.24 32.72 M44.49 65.67 C49.27 56.48, 56.92 50.34, 67.25 40.82 M44.67 65.76 C50.83 56.77, 57.57 49.96, 66.92 40 M51.2 65.54 C55.36 57.77, 60.91 52.33, 67.9 45.01 M48.71 65.63 C55.8 58.44, 62.36 49.33, 67.55 45.46 M55.56 66.43 C56.4 62.4, 59.72 58.41, 65.63 51.76 M53.88 64.88 C58.36 61.12, 64.21 54.49, 67.43 50.71 M59.27 66.23 C60.93 63.57, 63.32 62.04, 66.22 55.95 M59.36 65.02 C62.32 62.27, 64.64 59.79, 67.26 57.52" stroke="#868e96" stroke-width="0.5" fill="none"></path><path d="M1.12 0.22 C20.95 -0.88, 44.81 -1.79, 62.56 0.14 M-0.24 0.08 C18.48 -0.74, 37.7 0.14, 64.98 0.61 M62.19 0.25 C65.52 14.37, 62.73 30.5, 65.03 63.7 M64.5 0.19 C64.84 13.22, 64.14 27.14, 63.82 63.48 M65.95 63.34 C43.36 64.12, 22.02 64.67, 1.69 64.56 M63.04 64.32 C40.2 63.76, 18.36 64.65, -0.55 64.14 M-1.15 62.46 C0.88 42.59, 1.11 22.15, -0.61 0.06 M-0.43 63.51 C-0.16 47.57, 1.15 32.11, 0.39 -0.36" stroke="#000000" stroke-width="1" fill="none"></path></g><g stroke-opacity="0.5" fill-opacity="0.5" stroke-linecap="round" transform="translate(74 266) rotate(0 32 32)"><path d="M0 0 C0 0, 0 0, 0 0 M0 0 C0 0, 0 0, 0 0 M-0.02 6.83 C1.82 3.92, 3.91 2.32, 4.89 -0.35 M-0.2 6.74 C0.48 5.16, 1.59 3.78, 4.63 -0.01 M1 10.97 C3.92 7.75, 8.47 4, 10.28 0.72 M0.4 12.09 C2.07 10.07, 5.07 6.28, 10.32 0.24 M0.72 16.83 C1.28 13.51, 4.93 11.86, 17.27 -0.55 M-0.32 17.64 C4.84 12.29, 11.64 5.16, 16.44 -0.19 M1.77 23.51 C4.17 17.31, 8.52 13.69, 22.69 0.79 M0.98 25.06 C6.34 17.99, 9.91 11.79, 21.93 -0.77 M1.55 28.49 C6.82 22.23, 15.95 12.05, 26.13 1.88 M-0.71 30.71 C7.61 22.25, 16.07 11.7, 25.59 -0.64 M1.28 38.14 C8.39 28.62, 15.17 18.4, 30.65 -0.13 M-0.44 37.39 C11.71 22.99, 24.79 7.78, 32.15 0.01 M-0.55 41.53 C9.13 33.49, 16.27 23.18, 38.65 -0.06 M-0.32 42.24 C11.37 29.37, 23.83 14.98, 36.78 0.71 M-0.99 50.52 C10.61 35.33, 22.58 23.84, 44.26 1.1 M0.42 49.55 C14.84 30.96, 30.49 13.77, 43.31 0.22 M-0.8 54.28 C12.08 38.37, 25.86 26.33, 49.35 0 M0.94 55.12 C15.9 36.72, 32.47 16.97, 46.85 1.14 M-0.54 59.15 C14.88 43.56, 31.44 22.2, 51.92 0.73 M-0.55 60.85 C19.96 38.86, 38.86 14.57, 53.97 -0.46 M1.17 64.86 C14.89 49.29, 31.08 35.01, 58.02 -1.32 M2.64 64.84 C22.71 41.47, 42.73 17.92, 57.31 -0.49 M7.59 64.47 C23.37 46.84, 39.55 23.59, 62.24 -1.71 M6.39 65.94 C25.08 45.15, 42.67 25.42, 63.81 0.77 M12.46 63.11 C26.02 50.34, 41.58 34.99, 65.65 3.17 M12.01 64.45 C24.98 50.01, 37.25 37.12, 67.33 1.55 M18.39 65.81 C32.61 48.87, 45.77 32.76, 66.21 7.64 M17.44 64.62 C28.75 52.89, 38.55 41.45, 66.8 7.87 M21.36 63.78 C40.02 46.51, 54.56 27.39, 65.9 16.22 M23.41 64.74 C33.68 52.47, 45.53 39.51, 66.11 13.9 M26.72 66.27 C36.65 53.49, 49.26 42.93, 68.13 22.82 M28.14 65.81 C35.96 56.78, 44.28 47.56, 67.16 20.83 M33.56 66.33 C44.2 53.13, 55.5 38.16, 66.71 27.48 M33.49 65.03 C39.82 57.28, 47.42 48.62, 67.62 26.44 M38.66 64.69 C44.98 58.43, 51.63 51.12, 67.89 34.19 M39.59 64.52 C48.82 55.18, 57.58 42.88, 66.63 32.73 M44.95 63.5 C48.32 58.69, 54.78 53.41, 68.06 39.48 M45.04 64.77 C51.68 55.69, 60.48 47.57, 67.25 39.23 M49.45 66.22 C52.62 60.71, 58.09 54.75, 67.01 46.41 M49.54 65.36 C56.01 58.44, 60.55 52.11, 67.46 44.83 M54.97 64.16 C57.96 60.46, 61.01 57.87, 67.1 52.67 M53.41 65.26 C59.19 61.7, 62.08 56.78, 66.05 50.7 M60.8 64.72 C62.64 62.5, 65.62 58.57, 66.04 57.21 M59.59 65.44 C61.77 62.92, 64.2 60.34, 67.61 56.69" stroke="#868e96" stroke-width="0.5" fill="none"></path><path d="M0.22 -1.53 C18.97 -0.51, 37.46 -1.8, 64.14 -0.1 M0.08 -0.41 C14.69 0.07, 30.49 1.13, 64.61 -0.55 M64.25 1.61 C63.15 17.06, 63.61 37.5, 63.7 62.25 M64.19 0.65 C64.18 21.1, 64.51 42.12, 63.48 64.21 M63.34 63.92 C43.24 63.77, 23.49 66.31, 0.56 65.22 M64.32 63.31 C48.28 63.95, 33.51 62.83, 0.14 64.22 M-1.54 64.32 C-0.18 50.88, -0.02 36.04, 0.06 -0.89 M-0.49 63.53 C0.28 48.77, 1.17 32.25, -0.36 0.79" stroke="#000000" stroke-width="1" fill="none"></path></g><g stroke-opacity="0.5" fill-opacity="0.5" stroke-linecap="round" transform="translate(138 266) rotate(0 32 32)"><path d="M0 0 C0 0, 0 0, 0 0 M0 0 C0 0, 0 0, 0 0 M0.17 6.77 C1.06 5.05, 3.23 2.14, 4.28 -0.42 M0.08 6.11 C1.62 3.98, 3.36 1.67, 4.62 0.46 M-0.94 12.44 C2.99 9.83, 6.36 4.23, 11.38 -1.06 M0.19 11.53 C4.36 8.17, 6.77 3.99, 10.9 -0.72 M-1.74 16.59 C4.61 10.16, 12.62 6.74, 14.74 1.47 M-0.93 17.7 C4.18 14.32, 7.5 10.13, 15.1 -0.61 M-0.31 23.51 C3.54 17.55, 9.98 13.69, 22.12 -1.33 M1.24 24.97 C4.35 18.27, 8.34 14.31, 20.56 0.08 M-1.99 28.77 C6.96 22.91, 11.96 17.13, 27.84 0.3 M0.23 30.47 C11.1 19.46, 19.85 6.46, 25.31 -0.13 M1 37.22 C10.65 24.36, 19.63 13.19, 31.86 1.72 M0.26 35.93 C6.98 28.83, 12.89 21.86, 32 -0.67 M-0.85 42.55 C11.99 28.62, 22.61 19.88, 36.56 0.79 M-0.15 41.78 C12.22 29.29, 23.05 16.37, 37.33 -0.14 M1.48 48.7 C12.91 33.77, 28.08 18.84, 43.76 1.09 M0.51 48.26 C10.73 35.59, 22.29 24.14, 42.87 -0.42 M-0.01 53.81 C15.44 35.87, 34.8 18.43, 47.28 1.08 M0.83 54.08 C15.96 37.04, 29.69 19.41, 48.43 0.28 M-1.8 59.43 C15.87 43.13, 27.76 26.36, 54.06 1.28 M-0.1 61.34 C18.54 40.16, 34.9 20.89, 52.86 -0.76 M1.49 64.15 C14.19 52.43, 28.13 36.2, 56.63 1.49 M1.46 65.92 C22.54 40.92, 43.47 15.94, 57.46 0.23 M5.72 64.84 C25.62 43.11, 39.99 23.02, 62.28 -0.03 M7.19 66.4 C25.33 45.02, 44.58 22.62, 64.76 -0.67 M10.4 64.84 C29.16 48.59, 45.31 27.94, 67.55 0.86 M11.74 64.97 C22.13 52.75, 34.09 40.59, 65.93 2.18 M17.73 67.13 C31.65 48.95, 46.4 29.88, 65.36 7.14 M16.53 66.36 C33.35 46.77, 50.4 28.25, 65.6 9.57 M21.73 65.99 C40.56 44.72, 57.51 25.07, 68.69 13.51 M22.69 64.15 C32.2 54.29, 41.06 43.18, 66.37 14.07 M28.85 64.24 C41.52 51, 56.49 35.09, 68.64 18.9 M28.39 65.81 C42.17 50.34, 55.78 34.01, 66.64 21.25 M34.95 64.37 C45.9 51.52, 55.12 39.03, 68.04 24.62 M33.65 64.46 C45.27 52.07, 55.95 39.34, 67 25.56 M37.93 65.78 C45.73 58.18, 52.43 49.6, 68.1 33.58 M37.76 65.93 C45.87 57.35, 51.06 49.62, 66.64 32.28 M42.79 63.95 C52.7 55.1, 62.14 46.58, 66.72 40.18 M44.05 64.54 C48.86 59.64, 54.65 53.81, 66.48 39.08 M50.12 63.6 C54.14 59.67, 57.72 56.48, 68.41 45.76 M49.27 66.07 C54.74 58.27, 60.79 53.3, 66.83 44.26 M52.7 66.64 C57.01 61.35, 62.44 55.27, 68.01 52.05 M53.8 66.37 C58.22 61.55, 61.27 57.95, 66.04 51.86 M59.29 65.55 C62.61 62.94, 64.19 58.27, 67.3 57.12 M60.01 64.96 C62.44 62.48, 64.81 60.46, 66.78 56.68" stroke="#868e96" stroke-width="0.5" fill="none"></path><path d="M-1.53 -0.42 C23.68 -1.4, 46.23 0.07, 63.9 -1.34 M-0.41 -0.23 C24.18 0.59, 49.5 0.55, 63.45 -0.15 M65.61 -1.3 C62.24 22.88, 64.45 47.13, 62.25 64.61 M64.65 -0.37 C64.26 24.67, 64.13 48.9, 64.21 64.17 M63.92 63.55 C38.29 63.89, 15.97 64.34, 1.22 62.89 M63.31 63.93 C47.07 65.03, 28.46 64.34, 0.22 63.14 M0.32 63.2 C0.92 50.33, -0.24 38.01, -0.89 -0.98 M-0.47 63.91 C1.11 49.31, 0.67 32.66, 0.79 -0.55" stroke="#000000" stroke-width="1" fill="none"></path></g><g stroke-opacity="0.5" fill-opacity="0.5" stroke-linecap="round" transform="translate(202 266) rotate(0 32 32)"><path d="M0 0 C0 0, 0 0, 0 0 M0 0 C0 0, 0 0, 0 0 M0.11 5.87 C1.66 4.84, 2.03 2.89, 4.21 0.85 M-0.55 6.37 C0.99 4.46, 2.36 2.55, 5.08 0.39 M0.53 11.58 C3.97 9.1, 4.42 7.45, 9.6 0.27 M-0.38 12.83 C2.44 9.2, 4.45 6.94, 9.94 0.5 M-1.98 17.33 C2.34 14.95, 9.68 8.22, 16.76 -0.62 M-0.87 18.78 C5.19 12.67, 10.42 6.91, 14.68 -0.26 M-0.3 22.32 C6.18 16.11, 14.79 9.73, 20 -1.81 M1.16 23.8 C6.78 14.83, 15.16 6.62, 21.41 -0.91 M-1.7 31.6 C5.31 23.85, 12.44 17.62, 26.26 2.09 M-0.01 31.23 C7.77 21.67, 13.51 13.44, 25.83 0.29 M0.09 38.4 C10.27 23.75, 22.18 9.09, 33.71 -1.96 M-1.2 37.48 C9.29 25.15, 19.91 14, 31.32 -0.2 M0.17 44.11 C13.04 27.55, 31.08 8.99, 37.42 0.46 M-0.6 43.03 C9.51 31.68, 19.15 21.32, 36.48 0.52 M-0.35 48.32 C15.99 31.72, 32.29 14.77, 43.75 -0.97 M-0.78 48.32 C8.21 38.22, 18.45 28.24, 42.24 0.38 M-0.48 53.38 C17.24 37.2, 35.41 16.43, 48.36 0.51 M-0.21 55.08 C11.27 40.49, 22.21 28.81, 47.56 -0.04 M-1.52 62.23 C14.78 41.84, 30.58 25.95, 54.6 0.56 M0.39 61.92 C18.72 38.74, 38.92 17.31, 52.56 -0.94 M0.77 64.69 C17.85 49.66, 30.41 30.71, 59.44 1.55 M2.55 65.42 C20.73 43.44, 39.02 20.01, 58.18 0.28 M6.09 67.27 C26.67 38.91, 48.94 13.54, 63.95 0.35 M7.65 65.72 C27.97 42.8, 47.23 19.81, 63.32 -0.34 M12.13 66.06 C28.54 50.22, 40.55 32.54, 65.24 0.44 M12.26 64.15 C31.16 44.2, 50.12 21.92, 66.57 2.5 M19.04 64.43 C31.99 48.13, 44.09 32.65, 64.86 9.42 M18.27 64.79 C28.68 52.98, 40.16 38.85, 67.3 9.7 M23.94 65.4 C34.37 51.75, 46.34 39.46, 65.98 12.58 M22.11 65.57 C39.17 46.47, 55.03 26.52, 66.54 15.05 M26.82 65.46 C44.87 48.79, 60.22 32.06, 64.72 22 M28.39 65.87 C41.26 51.16, 53.29 36.53, 67.06 21.18 M32.98 66.35 C44.75 50.64, 56.86 38.6, 65.19 27.32 M33.08 65.07 C42.39 54.48, 51.34 45.21, 66.13 26.09 M39.03 64.91 C45.99 57.3, 51.99 52.57, 67.49 31.6 M39.18 66.24 C48.78 52.84, 59.28 41.04, 66.19 33.76 M43.23 64.83 C51.26 57.8, 59.62 49.25, 67.42 37.84 M43.82 64.62 C52.4 56.56, 60.07 47.3, 66.33 38.48 M47.51 66.57 C55.09 58.08, 63.4 50.46, 67.76 45.06 M49.98 65.3 C52.82 60.85, 58.49 55.06, 66.26 45.7 M55.17 63.89 C59.89 59.41, 63.83 56.47, 67.39 50.41 M54.91 66.5 C57.01 62.68, 60.31 57.5, 67.2 51.87 M60.12 65.42 C62.24 62.42, 62.32 61.44, 67.21 57.25 M59.53 65.45 C61.27 63.7, 63.46 61.48, 66.77 57.47" stroke="#868e96" stroke-width="0.5" fill="none"></path><path d="M-0.42 -0.15 C21.46 -0.95, 45.72 0.39, 62.66 1.58 M-0.23 -0.08 C18.33 1.24, 35.97 -0.29, 63.85 0.71 M62.7 -1.18 C63.24 14.44, 63.78 25.06, 64.61 65.72 M63.63 -0.05 C64.08 22.19, 63.6 44.96, 64.17 64.88 M63.55 63.15 C38.66 65.66, 13.67 65.19, -1.11 63.47 M63.93 64.56 C51.78 63.01, 38.04 63.78, -0.86 63.03 M-0.8 64.55 C-0.15 47.86, 0.55 32.05, -0.98 -1.16 M-0.09 64.84 C1.11 47.93, -0.05 31.86, -0.55 -0.37" stroke="#000000" stroke-width="1" fill="none"></path></g><g stroke-opacity="0.5" fill-opacity="0.5" stroke-linecap="round" transform="translate(266 266) rotate(0 32 32)"><path d="M0 0 C0 0, 0 0, 0 0 M0 0 C0 0, 0 0, 0 0 M-0.79 7.14 C1.3 4.28, 2.47 1.6, 5.48 0.23 M-0.29 6.17 C1.17 4.17, 2.63 2.71, 5.01 0.06 M-0.33 13.59 C3.63 7.39, 8.39 2.44, 10.93 -1.28 M0.92 12.06 C3.47 7.77, 7.4 3.37, 11.17 -0.34 M-1.23 16.87 C6.53 14.04, 9.92 7.33, 14.67 0.48 M0.21 18.87 C4.12 14.28, 8.36 7.43, 15.03 0.49 M-1.49 23.54 C7.82 16.51, 16.95 4.75, 19.52 0.79 M-0.02 23.57 C7.06 15.59, 14.93 6.11, 20.42 -0.63 M1.12 29.63 C10.67 19.2, 21.7 7.92, 28.05 -0.39 M0.76 31.05 C5.2 22.93, 11 16.26, 26.25 1.02 M1.27 35.71 C12.48 21.64, 23.72 10.76, 30.04 0.07 M0.35 36.44 C8.46 27.02, 17.78 15.78, 31.79 0.85 M1.73 40.76 C11.64 33.07, 19.54 20.62, 37.08 -0.59 M0.64 42.24 C9.52 31.96, 19.37 20.93, 37.14 0.83 M-0.72 49.59 C11.09 38.11, 22.61 25.02, 41.69 -1.9 M-0.72 48.49 C14.62 32.61, 30.13 14.16, 43.04 0.36 M-0.91 54.74 C13.56 43.18, 23.43 28.79, 47.8 -0.92 M0.79 54.45 C16.71 34.19, 35.57 14.95, 47.25 0.2 M1.28 59.74 C13.66 43.46, 30.45 29.47, 53.89 0.93 M0.98 60.45 C12.45 46.68, 25.67 30.39, 52.38 -0.63 M1.31 66.73 C18.15 47.54, 31.06 31.27, 59.5 1.05 M2.05 65.34 C24.48 38.36, 45.44 13.78, 58.23 1.05 M8.53 63.68 C25.21 41.47, 44.86 20.55, 64.34 0.85 M6.97 66.37 C22.5 47.33, 37.98 29.22, 63.65 -0.51 M13.34 66.59 C31.14 44.82, 47.01 25.25, 64.82 3.22 M11.44 65.15 C27.37 48.92, 40.91 31.46, 66.89 2.2 M16.34 66.68 C33.13 44.71, 50.74 23.41, 67.14 7.41 M16.71 65.51 C33.25 47.63, 47.42 30.53, 67.42 8.54 M23.35 64.01 C33.18 52.69, 44.33 41.68, 65.05 15.99 M23.53 64.9 C38.57 47.23, 52.74 30.29, 67.52 15.4 M28.04 66.75 C38.12 56.46, 48.16 42.45, 67.81 21.29 M28.45 66.3 C40.35 51.56, 52.34 37.32, 67 21.38 M34.97 64.32 C42.75 53.29, 54.24 40.31, 67.89 25.62 M33.69 65.16 C42.58 54.64, 52.8 42.07, 66.66 25.68 M38.15 66.6 C46.2 56.54, 57.1 46.3, 65.51 34.41 M39.48 65.26 C49.58 52.04, 61.25 38.62, 67.67 33.02 M44.11 65.09 C52.62 57.97, 59.58 48.72, 65.09 40.17 M43.9 65.66 C53.15 55.99, 61.2 45.29, 65.72 40.28 M50.48 64.14 C55.61 59.2, 61.63 53.61, 67.06 43.91 M49.21 64.57 C55.7 58.95, 60.85 50.99, 67.7 45.65 M52.42 66.79 C57.52 61.17, 64.13 56.58, 65.75 50.67 M55.03 65.05 C57.72 61.86, 59.03 59.92, 67.21 50.83 M59.99 65.96 C61.83 61.03, 65.7 58.99, 67.34 55.99 M60.02 65.14 C61.84 63.77, 63.18 60.84, 67.57 56.75" stroke="#868e96" stroke-width="0.5" fill="none"></path><path d="M-0.15 -1.33 C18.47 0.28, 39.72 -1.2, 65.58 -0.47 M-0.08 0.64 C20.71 0.76, 38.92 0, 64.71 -0.9 M62.82 -0.84 C65.55 19.7, 62.76 40.61, 65.72 64.99 M63.95 -0.04 C64.23 19.89, 64.63 41, 64.88 64.98 M63.15 64.1 C48.6 64.41, 31.04 62.75, -0.53 62.08 M64.56 64.82 C42.2 64.09, 21.73 63.09, -0.97 63.43 M0.55 63.36 C-0.71 49.79, -1 34.48, -1.16 -0.85 M0.84 64.8 C0.7 47.57, 1.1 31.3, -0.37 -0.04" stroke="#000000" stroke-width="1" fill="none"></path></g><g transform="translate(143 29.5) rotate(0 27 12.5)"><text x="27" y="18" font-family="Virgil, Segoe UI Emoji" font-size="20px" fill="#5c940d" text-anchor="middle" style="white-space: pre;" direction="ltr">5</text></g><g transform="translate(111 93.5) rotate(0 27 12.5)"><text x="27" y="18" font-family="Virgil, Segoe UI Emoji" font-size="20px" fill="#5c940d" text-anchor="middle" style="white-space: pre;" direction="ltr">3</text></g><g transform="translate(175 93.5) rotate(0 27 12.5)"><text x="27" y="18" font-family="Virgil, Segoe UI Emoji" font-size="20px" fill="#5c940d" text-anchor="middle" style="white-space: pre;" direction="ltr">6</text></g><g transform="translate(79 157.5) rotate(0 27 12.5)"><text x="27" y="18" font-family="Virgil, Segoe UI Emoji" font-size="20px" fill="#5c940d" text-anchor="middle" style="white-space: pre;" direction="ltr">9</text></g><g transform="translate(143 157.5) rotate(0 27 12.5)"><text x="27" y="18" font-family="Virgil, Segoe UI Emoji" font-size="20px" fill="#5c940d" text-anchor="middle" style="white-space: pre;" direction="ltr">3</text></g><g transform="translate(207 157.5) rotate(0 27 12.5)"><text x="27" y="18" font-family="Virgil, Segoe UI Emoji" font-size="20px" fill="#5c940d" text-anchor="middle" style="white-space: pre;" direction="ltr">1</text></g><g transform="translate(47 221.5) rotate(0 27 12.5)"><text x="27" y="18" font-family="Virgil, Segoe UI Emoji" font-size="20px" fill="#5c940d" text-anchor="middle" style="white-space: pre;" direction="ltr">5+6</text></g><g transform="translate(111 221.5) rotate(0 27 12.5)"><text x="27" y="18" font-family="Virgil, Segoe UI Emoji" font-size="20px" fill="#5c940d" text-anchor="middle" style="white-space: pre;" direction="ltr">2+4</text></g><g transform="translate(175 221.5) rotate(0 27 12.5)"><text x="27" y="18" font-family="Virgil, Segoe UI Emoji" font-size="20px" fill="#5c940d" text-anchor="middle" style="white-space: pre;" direction="ltr">8+7</text></g><g transform="translate(239 221.5) rotate(0 27 12.5)"><text x="27" y="18" font-family="Virgil, Segoe UI Emoji" font-size="20px" fill="#5c940d" text-anchor="middle" style="white-space: pre;" direction="ltr">7+7</text></g><g transform="translate(15 285.5) rotate(0 27 12.5)"><text x="27" y="18" font-family="Virgil, Segoe UI Emoji" font-size="20px" fill="#5c940d" text-anchor="middle" style="white-space: pre;" direction="ltr">6</text></g><g transform="translate(79 285.5) rotate(0 27 12.5)"><text x="27" y="18" font-family="Virgil, Segoe UI Emoji" font-size="20px" fill="#5c940d" text-anchor="middle" style="white-space: pre;" direction="ltr">1</text></g><g transform="translate(143 285.5) rotate(0 27 12.5)"><text x="27" y="18" font-family="Virgil, Segoe UI Emoji" font-size="20px" fill="#5c940d" text-anchor="middle" style="white-space: pre;" direction="ltr">4</text></g><g transform="translate(207 285.5) rotate(0 27 12.5)"><text x="27" y="18" font-family="Virgil, Segoe UI Emoji" font-size="20px" fill="#5c940d" text-anchor="middle" style="white-space: pre;" direction="ltr">7</text></g><g transform="translate(271 285.5) rotate(0 27 12.5)"><text x="27" y="18" font-family="Virgil, Segoe UI Emoji" font-size="20px" fill="#5c940d" text-anchor="middle" style="white-space: pre;" direction="ltr">3</text></g><g stroke-linecap="round"><g transform="translate(50 290) rotate(0 22.34430627584493 -16.222603015461942)"><path d="M-0.19 1.14 C6.26 -8.71, 9.91 -18.56, 20.44 -30.91 M0.38 0.1 C7.12 -9.78, 13.83 -20.03, 22.46 -31.83 M21.57 -34.33 C27.5 -21.84, 34.11 -13.17, 44.88 1.04 M21.4 -31.99 C27.07 -25.14, 30.64 -17.53, 44.23 1.4 M43.34 1.13 C30.03 1.68, 16.32 -0.11, 1.79 -0.3 M43.46 1.32 C27.47 1.91, 11.06 1.31, 2.11 1.88" stroke="#c92a2a" stroke-width="1" fill="none"></path></g></g><g stroke-linecap="round"><g transform="translate(112.42320963115048 289.1026613740849) rotate(0 21.496764804832992 -14.648153778558083)"><path d="M1.44 1.85 C5.9 -11.79, 12.16 -21.45, 23.19 -31.27 M-0.64 -0.54 C6.88 -9.38, 13.13 -19.34, 22.45 -32.51 M19.6 -32.42 C27.45 -27.24, 30.15 -17.7, 43.48 1.78 M20.7 -33.03 C25.76 -24.48, 32 -16.5, 43.63 1.37 M42.83 3.73 C29.31 -0.18, 13.29 2.54, 0.72 1.82 M43.62 1.76 C33.58 2.92, 21.09 2.94, 2.29 1.97" stroke="#c92a2a" stroke-width="1" fill="none"></path></g></g><g stroke-linecap="round"><g transform="translate(180.57917521075524 289.10714285714283) rotate(0 22.979348739739862 -15.015644278769798)"><path d="M1.74 -0.6 C8.13 -13.22, 16.33 -23.77, 20.46 -32.76 M0.42 -0.94 C6.12 -10.58, 13.43 -20.12, 21.81 -32.81 M20.87 -31.61 C28.8 -20.94, 34.11 -12.11, 45.54 1.39 M22 -33.45 C26.26 -23.78, 32.22 -15.65, 43.15 1.27 M44.42 3.42 C33.63 1.69, 20.26 2.07, 3.06 1.68 M43.24 2.58 C32.09 2.22, 18.2 2.21, 1.76 2.24" stroke="#c92a2a" stroke-width="1" fill="none"></path></g></g><g stroke-linecap="round"><g transform="translate(245.57917521075524 287.32142857142856) rotate(0 22.290516919587162 -14.656153467876322)"><path d="M-0.65 -1.22 C6.76 -8.56, 13.87 -21.62, 20.13 -31.18 M-0.78 -0.15 C5.8 -9.3, 12.46 -17.99, 22.23 -32.71 M21.51 -32.52 C28.72 -24.42, 33.18 -11.28, 45.36 3.4 M22.07 -32.41 C27.61 -25.08, 33.45 -15.65, 44.72 2.13 M42.49 3.36 C29.79 2.05, 19.27 1.84, 3.54 3.2 M44.09 2.2 C35.08 1.29, 26.27 1.49, 2.19 1.07" stroke="#c92a2a" stroke-width="1" fill="none"></path></g></g></svg>