<svg version="1.1" xmlns="http://www.w3.org/2000/svg" viewBox="0 0 827.2970304549272 276" width="827.2970304549272" height="276">
  <!-- svg-source:excalidraw -->
  
  <defs>
    <style>
      @font-face {
        font-family: "Virgil";
        src: url("https://excalidraw.com/Virgil.woff2");
      }
      @font-face {
        font-family: "Cascadia";
        src: url("https://excalidraw.com/Cascadia.woff2");
      }
    </style>
  </defs>
  <rect x="0" y="0" width="827.2970304549272" height="276" fill="#ffffff"></rect><g stroke-opacity="0.5" fill-opacity="0.5" stroke-linecap="round" transform="translate(106 10) rotate(0 32 32)"><path d="M0 0 C0 0, 0 0, 0 0 M0 0 C0 0, 0 0, 0 0 M0.44 6.61 C1.09 4.45, 2.91 3.67, 5.78 -0.14 M0.03 6.35 C1.37 4.46, 2.72 3.12, 5.29 0.04 M0.33 11.97 C3.19 7.81, 7.93 5.09, 9.98 0.92 M-0.37 12.3 C2.51 9.47, 4.81 6.24, 10.73 0.31 M-0.87 20.38 C6.99 11.86, 11.7 5.93, 16.27 -1.66 M-0.35 19.13 C3.15 15.06, 6.08 9.98, 15.37 1.29 M0.36 24.55 C6.96 16.21, 16.81 6.72, 22.84 1.9 M-0.39 25.03 C5.01 17.21, 11.24 11.52, 21.88 -0.53 M-1.84 31.27 C7.2 19.14, 15.52 11.56, 27.83 0.2 M-0.93 29.9 C7.49 21.74, 16.73 11.52, 25.91 0.68 M0.45 35.74 C10.21 25.44, 21.65 12.73, 32.37 -2.05 M-0.07 36.55 C12.96 23.13, 25.49 8.2, 31.29 -0.91 M-1.13 40.99 C7.62 35.06, 16.42 24.41, 36.98 1.35 M-0.11 42.99 C13.61 27.02, 28.01 10.42, 37.38 0.17 M0.64 47.32 C14.32 32.5, 31.46 13.26, 42.63 1.32 M-0.9 49.54 C15.96 30.39, 31.5 11.53, 41.94 0.63 M0.87 56.2 C13 39.8, 24.01 27.02, 47.31 -1.34 M0.36 55.47 C17.96 34.25, 36.61 11.8, 48.43 -0.68 M-0.74 59.53 C21.17 37.9, 39.52 14.62, 55.09 -0.76 M0.43 59.99 C15.12 42.68, 29.56 25.94, 52.89 -0.89 M2.34 65.23 C13.93 47.98, 29.88 35.05, 56.7 -0.79 M2.19 64.54 C21.39 41.2, 41.85 18.71, 57.28 -0.16 M8.13 66.53 C22.44 48.7, 38.05 29.34, 62.55 0.17 M6.01 65.77 C21.07 49.11, 34.8 32.89, 64.31 0.18 M11.29 66.11 C26.8 46, 42.34 31.28, 65.37 0.6 M12.72 64.47 C27.62 46.55, 43.01 28.54, 66.82 2.85 M18.17 65.29 C31.81 49.84, 43.96 38.24, 67.19 8.82 M17.4 64.42 C29.22 52.13, 40.75 38.66, 66.61 8.19 M23.97 63.7 C39.7 47.98, 55.58 28.71, 67.18 15.88 M22.36 64.81 C33.65 52.64, 42.92 40.55, 66.96 14.87 M29.27 64.49 C41.08 50.15, 54.52 33.07, 67.59 20.06 M28.43 65.16 C40.46 51.81, 51.93 36.49, 66.43 21.04 M33.1 65.51 C41.02 57.78, 48.93 46.12, 67.41 25 M33.82 65.19 C40.77 56.88, 46.99 49.21, 67.29 26.23 M37.52 64.49 C47.8 53.19, 54.96 44.05, 64.99 30.96 M39.47 65.79 C49.41 52.65, 60.52 39.84, 65.88 33.27 M44.67 66.26 C48.7 57.75, 58.03 50.56, 68.4 40.68 M43.9 64.87 C51.57 57.64, 57.79 50.4, 65.82 39.95 M49.33 63.9 C52.28 60.53, 57.87 52.14, 65.3 46.86 M48.52 66.28 C53.85 60.24, 58.79 55.84, 67.59 45.12 M55.25 66.63 C57.14 60.89, 61.7 56.54, 66.76 49.69 M53.88 66.46 C57.9 60.96, 63.87 55.75, 67.14 51.91 M59.57 65.41 C62.37 61.96, 64.07 59.34, 67.42 56.61 M60.03 65.53 C61.64 63.25, 64.11 60.12, 66.62 56.68" stroke="#868e96" stroke-width="0.5" fill="none"></path><path d="M0.47 1.89 C12.71 0.33, 27.75 -2.33, 62.13 0.87 M-0.53 0.05 C20.71 -0.32, 40.41 -1.17, 63.5 0.29 M62.08 -1.64 C63.47 26.12, 65.2 50.1, 63.5 62.62 M64.31 -0.48 C65.19 25.17, 64.55 50.09, 64.49 64.66 M65.43 64.36 C52.3 62.29, 37.78 63.95, 1.47 65.61 M63.74 64.64 C47.1 62.55, 28.4 64.24, 0.75 64.58 M-1.39 62.32 C0.02 48.91, -0.18 33.37, 0.51 -0.3 M0.89 64.2 C0.39 50.9, -0.4 37.55, 0.28 0.81" stroke="#000000" stroke-width="1" fill="none"></path></g><g stroke-opacity="0.5" fill-opacity="0.5" stroke-linecap="round" transform="translate(74 74) rotate(0 32 32)"><path d="M0 0 C0 0, 0 0, 0 0 M0 0 C0 0, 0 0, 0 0 M-0.05 6.46 C1.08 4.87, 3.59 3.07, 4.49 0.32 M-0.31 6.49 C1.22 4.37, 3.3 2.9, 4.67 0.56 M0.07 11.45 C3.53 8.59, 8.46 3.53, 11.59 -1.45 M0.4 12.09 C2.36 9.66, 3.92 7.06, 10.97 0.11 M1.82 20.38 C2.22 16.51, 5.21 11.87, 13.64 -1.35 M0.57 18.48 C6.63 10.89, 11.68 3.94, 16.58 1.23 M0.73 22.56 C8.04 17.04, 14.2 11.35, 23.23 -0.73 M1.22 23.16 C5.63 17.26, 12.17 11.53, 20.8 0.14 M0.79 29.17 C5.6 21.02, 14.91 15.75, 26.16 0.53 M-0.58 29.96 C10.17 20.34, 18.86 8.56, 26.64 0.66 M-1.39 36.6 C11.09 25.19, 21.18 13.43, 29.94 1.54 M-0.58 37.44 C6.64 30.16, 12.33 21.29, 31.08 -1.1 M-1.39 42.4 C9.94 33.96, 16.53 22.64, 37.97 1.88 M0.61 41.77 C9.93 31.7, 18.62 22.01, 36.79 0.94 M-1.72 47.3 C11.29 37.31, 19.92 26.35, 43.97 1.39 M0.49 48.57 C9.25 37.52, 18.31 26.93, 43.29 -0.61 M1.91 55.83 C17.82 33.47, 37.28 11.69, 45.94 1.99 M1.18 54.22 C17.86 35.13, 33.33 16.71, 46.61 1.01 M-1.42 62.06 C16.44 41.64, 32.68 25.37, 52.56 -0.52 M-0.96 61.52 C18.92 37.79, 39.38 14.61, 52.44 -0.77 M1.86 63.98 C19.43 44.07, 41.34 19.25, 57.16 1.39 M1.16 64.7 C20.4 42.5, 40.48 19.83, 57.79 -0.12 M7.78 65.27 C19.9 51.06, 30.42 35.72, 64.15 -1.24 M7.02 65.09 C18.86 51, 31.15 38.27, 64.17 -0.37 M13.4 64.14 C27.98 45.03, 47.98 24.91, 64.98 2.21 M11.76 64.69 C29.37 44.05, 46.92 24.77, 67.23 1.97 M17.21 67.15 C29.13 51.61, 44.94 35.98, 66.54 7.51 M16.34 65.76 C32.18 48.67, 46.79 31.41, 65.91 9.45 M21.65 65.47 C34.98 52.95, 44.69 40.67, 68.36 13.1 M22.76 65.88 C38.86 46.15, 55.09 27.19, 67.34 15.06 M27.07 64.73 C42.02 48.78, 54.19 35.66, 65.87 21.22 M27.74 65.61 C40.48 50.85, 51.27 37.49, 66.85 20.09 M34.12 64.84 C44.49 54.49, 50.9 43.7, 65.57 24.66 M33.81 65.01 C41.97 54.51, 50.73 45.74, 66.79 26.71 M37.74 65.79 C47.92 51.3, 60.29 38.23, 64.87 34.64 M39.04 65.32 C47.55 54.82, 56.37 43.31, 67.18 32.58 M45.54 63.44 C50.63 59.03, 57.02 51.35, 67.93 39.32 M44.15 65.44 C50.16 58.67, 56.16 51.62, 67.2 39.14 M47.81 63.38 C56.05 57.23, 59.28 50.32, 68.86 43.86 M50.19 65.65 C55.09 59.53, 61.64 52.43, 67.12 44.54 M55.16 65.47 C57.86 61.31, 61.94 54.9, 65.03 52.47 M55 64.91 C58.73 61.77, 62.74 56.84, 67.25 51.42 M59.98 65.59 C61.43 62.4, 63.71 60.29, 66.7 57.11 M60.1 64.86 C63 62.1, 65.02 58.91, 66.77 56.58" stroke="#868e96" stroke-width="0.5" fill="none"></path><path d="M1.89 -0.61 C22.63 0.96, 41.8 -2.01, 64.87 0.4 M0.05 0.24 C24.39 -0.18, 47.7 -0.16, 64.29 0.82 M62.36 -1.06 C65.34 25.14, 64.9 48.45, 62.62 65.89 M63.52 0.82 C64.24 23.1, 63.92 46.32, 64.66 63.12 M64.36 65.89 C39.6 65.39, 17.97 65.93, 1.61 63.44 M64.64 64.49 C49.26 63.03, 37.09 64.58, 0.58 63.45 M-1.68 64.12 C0.39 43.72, 0.52 24.11, -0.3 -1.78 M0.2 63.99 C0.5 47.98, 0.67 33.82, 0.81 -0.57" stroke="#000000" stroke-width="1" fill="none"></path></g><g stroke-opacity="0.5" fill-opacity="0.5" stroke-linecap="round" transform="translate(138 74) rotate(0 32 32)"><path d="M0 0 C0 0, 0 0, 0 0 M0 0 C0 0, 0 0, 0 0 M-0.2 5.94 C1.55 5.16, 3.1 2.87, 4.94 0.45 M-0.17 6.21 C0.92 5.13, 2.66 3.02, 5.19 0.46 M-0.46 12.04 C3.85 9.82, 5.97 5.52, 9.21 -1.42 M0.18 12 C3.32 7.87, 6.27 5.5, 10.77 -0.83 M1.81 17.55 C5.66 12.53, 8.74 6.93, 13.95 2.22 M-0.09 18.95 C3.88 12.61, 8.49 9.14, 16.53 0.29 M-1.26 25.74 C7.61 17.32, 16.31 9.35, 20.6 -0.56 M-0.66 23.69 C6.67 16.71, 14.14 8.36, 21.47 -0.33 M-1.31 28.6 C4.35 24.3, 12.85 17.66, 26.49 1.52 M-0.51 31.19 C8.99 21.15, 16.28 12.24, 26.61 0.51 M-0.53 38.05 C11.12 25.12, 22.44 9.41, 33.54 -2.07 M0.31 37.15 C9 26.66, 16.12 16.57, 30.89 -0.71 M0.01 43.4 C11.58 30.14, 20.23 21.21, 38.5 -0.75 M-0.61 43.16 C11.08 29.63, 23.14 16.51, 37.56 -0.45 M-1.74 50.8 C14.55 32.67, 29.9 16.08, 44.05 -1.71 M-0.48 48.83 C12.05 33.62, 24.98 20.32, 42.05 0.78 M1.54 53.16 C10.55 42.09, 20.17 29.3, 49.27 1.35 M-0.07 55.5 C15.94 35.6, 32.62 17.02, 48.29 0.31 M1.11 61.34 C18.57 39.72, 40.15 17.08, 52.8 1.33 M0.57 60.07 C16.92 41.36, 33.86 21.23, 52.56 0.24 M0.61 63.81 C21.76 44.63, 38.03 20.42, 59.34 0.99 M1.33 64.48 C17.12 47.32, 32.49 28.32, 57.83 -0.67 M6.52 65.9 C18.69 49.65, 29.78 37.02, 62.74 -1.93 M6.34 65.56 C24.97 44.04, 44.91 22.84, 63.62 -0.09 M11.43 63.95 C30.04 45.79, 47.61 21.12, 66.59 2.82 M11.98 64.99 C30.68 43.21, 50.77 21.37, 66.35 2.06 M19.07 64.51 C35.67 47.54, 52.22 25.8, 65.23 8.83 M17.67 65.18 C29.9 51.34, 41.97 36.98, 67.17 8.23 M23.42 66.01 C32.64 54.4, 42.13 44.7, 65.57 16 M23.83 64.65 C39.16 46.05, 55.21 28.83, 67.54 14.87 M27.31 65.95 C35.65 54.58, 46.85 43.76, 67.03 21.03 M28.19 65.98 C38.92 51.37, 51.06 38.56, 65.91 20.68 M33.46 66.09 C41.01 54.88, 48.11 47.23, 65.22 25.54 M33.63 64.67 C40.71 55.85, 49.54 46.48, 67.28 27.42 M39.03 63.66 C46.13 54.91, 54.63 43.2, 68.55 33.33 M38.56 65.11 C45.84 56.24, 52.16 48.61, 66.48 32.9 M42.72 64.5 C51.45 57.8, 56.9 53.71, 66.56 38.24 M44.72 65.41 C51.38 57.77, 57.75 49.36, 66.39 39.57 M47.29 66.31 C52.84 58.08, 57.62 55.81, 65.86 45.64 M49.56 65.36 C56.66 58.47, 62.77 50.65, 66.54 45.7 M54 64.58 C58.48 60.16, 60.73 56.47, 67.81 51.83 M53.45 66.07 C58.26 62.16, 61.27 58.61, 66.76 51.55 M60.16 64.45 C61.15 62.67, 63.22 61.45, 67.21 57.59 M59.43 65.77 C61.06 63.54, 62.27 61.62, 66.67 57" stroke="#868e96" stroke-width="0.5" fill="none"></path><path d="M-0.61 0.8 C25.07 -2.46, 46.06 0.26, 64.4 1.55 M0.24 0.22 C24.07 -0.66, 48.68 0.26, 64.82 0.82 M62.94 1.69 C64.06 16.92, 62.88 29.96, 65.89 65.16 M64.82 -0.07 C64.38 21.96, 64.68 45.36, 63.12 64.64 M65.89 62.88 C51.68 64.66, 38.95 65.73, -0.56 62.33 M64.49 63.11 C49.58 65.21, 37.52 64.99, -0.55 64.16 M0.12 64.57 C0.37 43.75, 0.95 21.8, -1.78 -1.24 M-0.01 64.41 C-1.37 46.25, -0.3 28.16, -0.57 0.47" stroke="#000000" stroke-width="1" fill="none"></path></g><g stroke-opacity="0.5" fill-opacity="0.5" stroke-linecap="round" transform="translate(42 138) rotate(0 32 32)"><path d="M0 0 C0 0, 0 0, 0 0 M0 0 C0 0, 0 0, 0 0 M-0.72 6.95 C2.04 4.84, 3.3 1.67, 5.08 -0.01 M-0.45 6.3 C1.96 4.43, 3.35 2.07, 5.09 0.4 M0.13 12.52 C4.93 7.66, 7.65 3.12, 9.24 -0.29 M0.1 12.17 C1.87 9.27, 5.41 6.45, 9.84 -0.36 M-1.01 20.09 C2.77 14.17, 6 7.09, 17.51 -0.07 M0.38 18 C3.47 13.15, 9.46 9.27, 15.58 0.77 M1.93 24.2 C8.22 18.46, 14.98 8.85, 20.77 0.17 M-0.13 23.78 C5.31 19.24, 9.41 13.18, 21 -0.98 M-1.87 29.05 C5.57 25.97, 10.69 18.36, 27.48 0.51 M0.72 31.01 C5.51 24.05, 11.41 18.52, 26.47 0.77 M0.92 37.22 C11.64 25.01, 19.55 13.78, 29.93 -0.8 M0.02 37.68 C9.58 24.33, 19.52 12.16, 31.28 -0.42 M1.02 43.84 C7.84 32.64, 18.96 24.15, 35.87 0.35 M0.77 42.16 C10.19 31.69, 20.04 20.26, 36.17 0.79 M1.76 48.73 C15.41 32.79, 30.55 17.63, 40.95 -0.21 M-0.21 48.06 C8.59 37.57, 19.33 26.76, 43.43 -0.99 M-1.13 54.87 C14.99 36.12, 29.45 20.14, 48.63 0.89 M1.21 54.54 C13.96 38.84, 28.09 21.9, 47.59 0.79 M0.39 60.31 C14.61 46.57, 27.74 28.24, 54.65 0.29 M-0.88 60.94 C18.41 39.51, 36.22 18.28, 53.56 0.19 M0.43 66.36 C21.76 42.49, 38.05 23.64, 58.94 -0.15 M1.11 64.84 C21.96 41.92, 40.92 19.93, 57.28 -0.64 M7.15 65.52 C26.29 39.9, 49.1 15.72, 62.06 0.31 M6.81 64.66 C19.87 51.01, 33.27 35.14, 63.89 0.13 M11.24 64.24 C27.4 48.4, 37.09 34.16, 67.2 3.51 M12.28 64.31 C31.14 44.16, 49.87 22.55, 66.44 2.92 M16.43 66.76 C36.11 46.29, 51.01 24.99, 66.55 7.82 M17.1 65.73 C32.58 47.95, 47.48 31.14, 65.95 7.99 M23.96 65.36 C38.78 47.5, 55.47 28.21, 68.47 15.71 M22.6 64.95 C32.85 52.62, 44.45 41.14, 67.34 13.82 M28.53 64.23 C41.82 50.17, 55.63 33.35, 66.84 20.94 M28.56 64.77 C40.91 49.63, 55.06 33.69, 66.49 19.96 M34.71 65.26 C40.77 54.79, 50.39 42.03, 66.11 25.22 M33.29 64.28 C44.28 52.85, 54.73 40.49, 67.99 26.63 M36.9 63.87 C45.3 55.47, 50.71 51.03, 67.24 32.13 M38.35 65.5 C48.89 51.86, 60.69 39.88, 66.81 32.33 M43.78 66.79 C50.48 58.73, 59.81 48.63, 65.49 39.64 M44.69 64.94 C51.13 57.3, 56.78 51.05, 66.82 39.13 M50.21 63.92 C53.19 57.64, 62.1 51.97, 67.64 46.14 M49.27 66.23 C53.76 61.22, 57.35 55.5, 67.7 44.55 M53.11 66.77 C56.85 60.69, 61.33 56.65, 67.17 50.62 M54.61 66.4 C57.75 62.44, 61.28 58.24, 66.89 50.46 M59.03 65.06 C60.95 63.33, 63.43 60.84, 67.68 55.88 M60.35 65.07 C62.17 62.12, 64.32 59.41, 67.09 57.08" stroke="#868e96" stroke-width="0.5" fill="none"></path><path d="M0.8 1.11 C18.83 -1.67, 42.25 0.59, 65.55 1.68 M0.22 -0.52 C15.15 -0.66, 31.86 0.66, 64.82 -0.55 M65.69 0.67 C64.73 12.54, 62.09 27.98, 65.16 64.98 M63.93 0.18 C63.3 21.67, 64.36 41.48, 64.64 63.07 M62.88 64.94 C40.78 66.08, 18.08 64.04, -1.67 62.25 M63.11 63.19 C47.24 65.06, 29.45 63.76, 0.16 64.27 M0.57 63.92 C1.23 49.76, 0.24 32.73, -1.24 -0.27 M0.41 63.21 C0.45 39.36, 0.68 13.6, 0.47 -0.32" stroke="#000000" stroke-width="1" fill="none"></path></g><g stroke-opacity="0.5" fill-opacity="0.5" stroke-linecap="round" transform="translate(106 138) rotate(0 32 32)"><path d="M0 0 C0 0, 0 0, 0 0 M0 0 C0 0, 0 0, 0 0 M0.29 6.68 C2.23 3.96, 3.11 2.59, 4.61 0.95 M-0.36 6.65 C1.54 4.36, 2.95 3.04, 5.03 0.41 M0.62 13.55 C2.63 9.42, 4.97 3.51, 10.37 -1.04 M0.26 11.33 C3.72 8.37, 7.26 3.21, 10.3 -0.33 M1.52 17.37 C6.6 9.33, 10.53 6.01, 15.22 -0.11 M-0.57 17.79 C5.44 12.63, 12.41 4.93, 16.06 0.37 M0.39 25.69 C8.82 18.07, 13.36 7.81, 21.5 -1.39 M-0.03 24.44 C9.4 14.16, 17.29 4.83, 20.35 -0.99 M-1.42 30.72 C10.7 20.39, 18.26 11.46, 26.47 -1.58 M0.54 30.39 C6.17 23.39, 13.22 15.92, 26.72 0.64 M0.08 37.79 C8.1 25.74, 17.08 16.73, 31.19 0.26 M0.55 36.36 C7.53 26.09, 15.74 16.39, 31.57 -0.74 M1.46 41.2 C8.49 34, 18.23 22.44, 36.97 -0.25 M-0.22 42.68 C13.71 27.54, 26.64 12.25, 37.41 0.64 M-0.31 49.65 C9.76 39.17, 20.57 25.35, 42.45 -1.69 M-0.98 48.44 C14.9 31.98, 30.44 14.37, 41.67 0.16 M0.58 54.13 C17.77 32.57, 37.78 14.5, 48.17 0.41 M0.25 54.14 C19.86 31.96, 38.2 11.69, 48.08 -0.15 M-0.64 61.18 C13.75 46.31, 23.6 34.44, 53.62 0.66 M-0.01 60.61 C10.21 48.29, 20.68 36.99, 53.51 0.14 M2.99 66.5 C17.97 44.55, 37.93 26.39, 57.8 1.13 M1.46 65.38 C14.91 49.22, 29.26 32.83, 57.31 0.9 M6.77 64.2 C25.74 42.45, 46.14 17.11, 64.3 -1.58 M5.91 65.63 C26.4 44.01, 44.63 21.96, 64.12 -0.74 M11.53 66.99 C30.41 41.44, 50.85 21.57, 67.89 3.16 M11.6 65.11 C25.73 50.43, 38.37 34.54, 67.3 2.84 M18.67 67.34 C31.95 49.02, 44.45 32.4, 65.54 8.95 M17.64 65 C27.07 53.57, 37.5 42.26, 65.72 9.31 M23.31 65.12 C33.39 54.41, 42.06 42.7, 68.19 13.23 M22.9 64.31 C34.82 51.5, 47.65 37.41, 66.29 15.11 M26.81 64.91 C38.91 53.11, 48.23 42.71, 66.76 21.78 M27.35 64.83 C38.35 52.98, 48.57 40.27, 65.77 20.6 M33.88 63.06 C44.88 50.77, 53.6 38.76, 65.79 26.92 M32.9 65 C44.53 52.5, 55.23 41.38, 67.2 25.96 M37.12 64.96 C43.97 55.31, 54.78 49.32, 66.04 34.65 M38.74 64.86 C47.39 54.62, 57.71 43.08, 66.24 33.11 M46.08 64.19 C54.44 57.02, 60.75 45.2, 66.88 38.61 M44.22 65.89 C49.89 58.04, 56.96 50.18, 66.38 39.35 M47.83 63.73 C51.85 62.48, 56.46 56.59, 68.14 43.53 M50.14 65.98 C56.83 57.4, 62.82 49.89, 66.55 45.49 M55.31 63.96 C58.68 59.08, 64.09 56.2, 65.97 50.68 M54.94 66.03 C59.56 60.71, 63.95 54.86, 65.8 51.09 M59.63 64.4 C62.43 62.37, 64.46 60.77, 65.97 57.34 M59.65 65.24 C61.96 62.05, 64.5 59.51, 67.17 56.99" stroke="#868e96" stroke-width="0.5" fill="none"></path><path d="M1.11 -1.86 C23.38 0.61, 50.9 1.3, 65.68 -1.07 M-0.52 -0.63 C18.99 0.15, 39.79 0.68, 63.45 -0.96 M64.67 1.25 C63.16 12.56, 65.55 29.05, 64.98 64.62 M64.18 -0.39 C65.01 16.79, 63.65 32.88, 63.07 64.71 M64.94 64.54 C45.12 65.25, 22.72 61.97, -1.75 63.49 M63.19 64.8 C41.46 64.01, 16.87 63.59, 0.27 63.3 M-0.08 64.69 C0.47 49.87, -1.82 35.11, -0.27 1.79 M-0.79 64.58 C0.28 44.31, -0.56 23.46, -0.32 0.37" stroke="#000000" stroke-width="1" fill="none"></path></g><g stroke-opacity="0.5" fill-opacity="0.5" stroke-linecap="round" transform="translate(170 138) rotate(0 32 32)"><path d="M0 0 C0 0, 0 0, 0 0 M0 0 C0 0, 0 0, 0 0 M0.02 7.19 C0.89 4.46, 3.1 2.27, 5.58 0.27 M0 6.7 C1.15 4.65, 3.27 2.54, 5.04 0.34 M1.64 11.39 C3.85 7.41, 4.27 5.39, 9.62 0.49 M-0.58 12.14 C3.69 8.47, 5.77 4.3, 10.33 0.74 M-1.19 19.09 C4.22 9.45, 14.34 3.53, 15.18 1.72 M-0.78 18.2 C5.53 13.91, 9.32 7.94, 15.67 0.56 M1.87 25.66 C6.73 18.01, 8.97 13.5, 19.94 1.83 M0.62 24.7 C4.26 19.34, 8.83 13.2, 20.34 0.33 M0.24 32.07 C6.35 23.83, 13.82 16.74, 24.38 -0.87 M-0.09 30.14 C6.69 23.22, 13.03 15.84, 26.6 -0.28 M0.65 37.36 C6.78 27.88, 15.97 14.95, 32.25 -0.75 M-0.77 36.28 C10.3 22.43, 21.96 9.93, 31.26 -0.87 M-1.18 42.62 C11.84 31.49, 20.54 17.53, 36.37 1.2 M0.29 43.03 C8.06 33.82, 15.7 24.16, 37.26 -0.54 M0.61 49.02 C10.22 39.73, 16.55 27.38, 40.97 1.1 M-0.6 48.34 C11.98 35.83, 23.41 22.45, 42.82 0.68 M-0.16 54.36 C16.24 36.51, 36.09 15.68, 47.69 2.05 M-0.15 55.48 C11.41 40.92, 24.94 26.28, 47.13 -0.49 M0.23 62.9 C18.18 39.07, 39.15 18.17, 53.99 -2.11 M-0.34 60.7 C18.74 38.63, 38.77 17.84, 53.46 -0.1 M3.13 63.66 C14.96 50.06, 30.54 32.64, 59.08 -0.92 M2 64.24 C16.49 47.99, 30.7 30.54, 58.85 0.73 M5.45 64.23 C23.53 45.3, 38.03 27.77, 62.4 0.42 M6.88 65.98 C22.08 48.42, 36.86 31.6, 63.25 0.32 M14.28 63.62 C24.71 49.15, 40.78 34.53, 67.54 1.24 M12.4 65.08 C27.15 48.52, 40.7 32.99, 67.22 2.36 M19.25 66.07 C36.62 41.9, 55.65 20.32, 66.68 6.82 M16.91 65.49 C33.28 47, 49.75 26.63, 67.03 8.15 M23.08 65.27 C38.31 47.31, 52.58 33.63, 65.7 14.03 M22.26 65.05 C40.53 46.15, 57.49 25.4, 67.58 14.01 M27.49 66.3 C37.39 54.06, 48.71 41.88, 67.6 20.4 M27.41 65.14 C40.37 50.5, 52.49 35.99, 66.42 21.11 M31.68 65.33 C41.69 51.84, 52.02 41.14, 67.48 26.9 M33.62 65.21 C43.58 53.8, 54.89 42.07, 66.53 26.07 M38.2 63.54 C46.02 56.85, 57.47 43.89, 68.56 33.78 M38.1 64.43 C47.42 55.36, 55.41 45.49, 67.02 33.55 M43.47 66.82 C50.68 59.02, 53.24 53.59, 65.86 39.12 M45.17 64.23 C52.55 55.86, 59.95 46.9, 66.59 38.59 M47.64 63.68 C54.65 60.22, 57.02 58.36, 65.53 46.88 M49.89 65.96 C55.31 57.95, 61.81 51.15, 67.49 45.44 M52.5 65.76 C56.25 62.59, 61.99 56.6, 66.02 52.9 M54.56 66.14 C57.46 62.51, 59.84 58.4, 66.43 51.45 M58.98 65.63 C61.91 62.71, 65.26 58.75, 67.43 57.48 M59.81 64.83 C61.09 63.05, 63.03 61.69, 67.08 56.64" stroke="#868e96" stroke-width="0.5" fill="none"></path><path d="M-1.86 -1.87 C18.11 0.04, 36.03 1.33, 62.93 0.09 M-0.63 -0.5 C21.02 1.15, 42.29 -0.22, 63.04 -0.82 M65.25 -0.5 C63.16 17.7, 65.7 32.61, 64.62 63.04 M63.61 0.49 C64.62 23.58, 64.59 47.98, 64.71 64.18 M64.54 65.47 C40.37 63.74, 11.86 62.55, -0.51 65.28 M64.8 64.75 C42.22 62.93, 19.45 63.76, -0.7 63.16 M0.69 64.51 C-0.48 42.63, -1.42 24.54, 1.79 0.41 M0.58 64.28 C0.55 44.28, 0.21 25.38, 0.37 0.08" stroke="#000000" stroke-width="1" fill="none"></path></g><g stroke-opacity="0.5" fill-opacity="0.5" stroke-linecap="round" transform="translate(10 202) rotate(0 32 32)"><path d="M0 0 C0 0, 0 0, 0 0 M0 0 C0 0, 0 0, 0 0 M0.53 5.9 C0.93 5.01, 1.87 4.04, 4.89 0.55 M0.04 6.08 C1.28 4.93, 2.45 3.35, 4.97 0.21 M-0.52 13 C1.83 6.93, 6.13 3.69, 11.16 0.06 M0.24 12.38 C3.36 7.77, 5.99 4.7, 11.41 0.74 M0.52 16.46 C2.08 15.78, 7.38 8.82, 17.01 0.41 M-0.37 19.4 C6.39 12.14, 11.46 5.87, 15.85 -0.44 M1.85 26.05 C7.64 14.17, 16.57 4.09, 23.16 -1.91 M0.89 23.62 C6.02 17.46, 10.37 10.49, 21.65 -0.72 M1.59 30.39 C5.87 25.46, 11.26 16.13, 25.08 -0.75 M-0.33 30.87 C9.95 19.52, 19.79 8.45, 25.68 0.15 M0.23 34.93 C12.85 21.51, 22.04 10.57, 31.24 1.03 M-0.86 36.07 C8.98 24.32, 20.19 12.18, 31.13 -0.17 M0.24 43.61 C14.12 27.22, 25.22 13.19, 37.82 -1.24 M0.65 42.44 C14.33 26.39, 27.54 12.11, 36.08 -0.55 M-0.02 50.37 C18.26 27.85, 33.48 8.53, 43.76 -0.84 M-0.7 49.69 C12.26 35.73, 24.31 20.82, 43.34 0.49 M0.07 53 C12.81 43.3, 22.57 29.86, 49.33 -0.47 M1.19 53.66 C19.65 33.47, 38.02 11.63, 46.79 0.77 M1.95 60.37 C16.8 42.91, 34.56 22.75, 51.22 0.94 M-0.25 60.25 C10.67 48.62, 22.86 35.6, 53.22 -0.73 M0.28 64.12 C15.82 50.18, 27.58 35.02, 57.03 -0.59 M0.86 64.75 C15.06 48.56, 28.03 34.61, 58.68 0.1 M5.48 65.82 C24.03 42.94, 43.98 22.12, 64.41 -0.93 M7.23 65.84 C24.79 45.06, 43.03 24.02, 64.31 -0.67 M10.91 63.24 C25.71 49.62, 40.33 34.64, 65.62 1.68 M12.37 65.49 C28.33 46.3, 45.25 28.71, 66.74 3.28 M17.98 65.42 C28.19 50.54, 41.03 36.24, 64.55 9.5 M17.41 64.8 C31.39 49.4, 43.53 34.84, 65.88 9.04 M23.23 66.45 C36.89 48.87, 54.87 28.43, 66.51 16.17 M23 65.43 C35.17 52.46, 45.47 39.42, 66.49 14.13 M28.88 64.59 C41.29 51.02, 53.73 37.15, 66.22 21.31 M27.72 65.56 C41.4 49.41, 55.18 33.32, 66.93 20.78 M33.95 63.49 C43.6 50.68, 56.04 38.39, 67.47 26.55 M33.83 64.72 C43.08 55.57, 51.98 43.78, 66.64 26.72 M36.78 63.42 C46.66 58.84, 50.23 53.17, 67.69 32.83 M37.67 65.73 C46.01 56.53, 53.55 47.79, 67.46 32.14 M46.1 66.34 C50.21 56.87, 56.71 50.13, 66.37 40.27 M43.52 65.61 C51.79 56.17, 59.47 47.08, 65.83 38.33 M47.59 67.24 C54.48 59.04, 62.95 49.8, 68.88 45.62 M49.87 65.5 C54.05 59.75, 59.45 53.32, 67.44 44.83 M54.3 64.02 C58.28 62.81, 59.45 58.19, 68.24 49.81 M54.68 66.25 C58.44 60.94, 61.75 55.58, 66.79 51.6 M60.2 64.91 C61.63 64.08, 62.02 61.96, 67.57 56.14 M59.41 64.98 C62.3 62.07, 65.61 58.82, 66.73 56.83" stroke="#868e96" stroke-width="0.5" fill="none"></path><path d="M-1.87 0.87 C22.17 2.15, 45.22 -0.47, 64.09 0.48 M-0.5 0.29 C21.42 1.23, 40.66 -0.56, 63.18 -0.53 M63.5 -1.38 C66.1 25.78, 65.2 49.86, 63.04 65.64 M64.49 0.66 C63.24 19.36, 63.19 38.16, 64.18 64.94 M65.47 65.61 C47.82 62.5, 31.02 63.66, 1.28 64.98 M64.75 64.58 C49.94 64.67, 37.26 63.82, -0.84 64.06 M0.51 63.7 C-1.75 41.74, -0.25 23.74, 0.41 -0.02 M0.28 64.81 C-0.06 42.63, 0.19 20.68, 0.08 0" stroke="#000000" stroke-width="1" fill="none"></path></g><g stroke-opacity="0.5" fill-opacity="0.5" stroke-linecap="round" transform="translate(74 202) rotate(0 32 32)"><path d="M0 0 C0 0, 0 0, 0 0 M0 0 C0 0, 0 0, 0 0 M-0.76 6.36 C1.75 3.74, 4.19 1.79, 5.18 -0.01 M-0.58 6.6 C1.24 4.74, 2.63 3.03, 4.84 0.36 M1.09 10.62 C2.1 7.84, 5.95 4.63, 10.73 -0.11 M0.48 12.18 C2.77 7.88, 6.59 5.16, 11.41 -0.39 M-2.11 16.77 C7.88 11.06, 11.57 5.92, 15.7 1.35 M0.83 19.35 C3.98 14.28, 8.11 9.43, 14.85 1.16 M2.23 23.42 C6.01 16.76, 11.6 11.04, 19.42 -0.86 M-0.2 24.29 C5.59 16.52, 10.59 11.3, 20.6 -1.01 M-0.08 30.72 C7.2 23.59, 10.1 15.3, 25.21 1.71 M0.4 30.85 C9.52 20.38, 18.93 8.67, 26.11 0.88 M-2.21 38.52 C7.8 24.38, 20.32 12.71, 33.02 0.45 M-1.06 35.88 C11.56 22.68, 23.76 8.17, 31.83 0.34 M1.23 44.15 C12.85 27.13, 26.8 12.51, 35.38 1.53 M0.05 43.21 C9.07 31.71, 19.85 19.22, 36.07 1.2 M1.33 50.44 C10.51 34.58, 22.92 21.63, 41.82 -0.31 M0.65 48.45 C10.15 37.81, 18.67 28.98, 43.15 -0.84 M-1.29 56.32 C16.42 38.12, 30.39 22.13, 46.82 2.09 M-0.63 55.34 C14.65 38.52, 28.24 21.06, 48.06 0.41 M-0.58 60.61 C15.66 44.56, 29.21 25.8, 54.27 -1.94 M-0.7 60.37 C16.47 43.24, 32.21 24.73, 52.6 -0.81 M0.74 66.3 C22.57 41.57, 43.22 17.2, 57.36 -1.03 M1.37 64.78 C16.15 46.94, 33.2 30.5, 58.05 0.41 M7.08 64.42 C22.7 46.41, 40.36 26.61, 63.06 0.01 M7.09 65.29 C19.29 51.01, 31.23 36.71, 63.32 -0.76 M10.53 64.85 C26.26 50.31, 40.71 31.79, 66.06 2.28 M12.78 64.61 C24.22 51.44, 37.26 36.76, 67.67 1.97 M17.34 64.12 C34.87 43.48, 53.05 21.71, 67.22 8.34 M16.71 66.06 C33.25 45.84, 50.61 27.28, 66.76 9.31 M24.4 63.67 C38.41 50.22, 49.55 32.53, 68.65 13.71 M23.39 65.63 C36.6 49.58, 49.7 34.99, 66.61 14.74 M27.17 65.74 C37.61 54.5, 47.75 43.18, 67.12 22.05 M28.14 64.62 C37.26 53.96, 46.42 44.5, 66.6 21.41 M32.11 63.15 C43.51 51.58, 55.38 41.2, 67.12 25.87 M33.33 65.2 C42.18 56.24, 48.38 46.87, 67.29 25.65 M36.66 67.09 C45.47 57.5, 53.17 51.81, 66.74 32.42 M38.97 65.03 C47.64 54.82, 56.74 45.83, 66.05 32.67 M45.63 64.98 C52.02 55.03, 61.14 44.46, 67.51 40.2 M44.89 64.81 C50.93 57.29, 57.37 49.09, 65.58 39.79 M51.15 64.24 C54.16 61.97, 56.13 58.02, 67.62 45.04 M49.41 64.92 C56.79 56.83, 63.52 49.73, 66.83 44.36 M52.56 66.81 C59.29 59.83, 62.6 56.98, 65.15 52.13 M54.78 65.76 C59.06 59.34, 63.29 54.93, 66.94 50.62 M59.48 65.42 C62.55 61.84, 64.32 61.11, 66.23 57.97 M59.55 64.88 C61.78 63.26, 63.65 60.65, 66.93 57.46" stroke="#868e96" stroke-width="0.5" fill="none"></path><path d="M0.87 0.4 C24.3 2.28, 44.42 0.69, 64.48 0.44 M0.29 0.82 C16.69 -0.23, 30.77 -0.5, 63.47 0.85 M62.62 1.89 C65.56 22.33, 65.02 41.73, 65.64 63.85 M64.66 -0.88 C64.39 19.44, 64.46 40.92, 64.94 63.44 M65.61 63.44 C40.13 62.73, 19.09 65.75, 0.98 62.22 M64.58 63.45 C50.12 64.75, 35.23 63.64, 0.06 64.28 M-0.3 62.22 C-1.46 44.77, 1.57 26.49, -0.02 0.83 M0.81 63.43 C0.1 49.56, 0 35.84, 0 0.02" stroke="#000000" stroke-width="1" fill="none"></path></g><g stroke-opacity="0.5" fill-opacity="0.5" stroke-linecap="round" transform="translate(138 202) rotate(0 32 32)"><path d="M0 0 C0 0, 0 0, 0 0 M0 0 C0 0, 0 0, 0 0 M-0.3 6.49 C1.07 5, 3.11 2.57, 4.61 0.16 M-0.06 6.5 C1.64 4.29, 3.5 1.9, 4.99 0.48 M-1.29 10.65 C4.06 6.21, 8.99 2.55, 10.56 0.23 M0.28 11.25 C2 9.15, 5.32 7.68, 10.28 0.62 M-1.8 20.33 C3.3 13.68, 8.97 9.74, 16.64 -0.55 M0.78 18.4 C4.07 14.08, 7.55 9.01, 16.45 0.39 M-0.39 23.59 C8.3 13.37, 17.95 3.66, 20.47 -0.67 M0.48 23.82 C6.26 15.15, 14.61 7.3, 20.32 -0.78 M0.25 31.71 C8.17 19.21, 14.96 10.63, 27.67 1.36 M0.37 30.7 C8.22 21.94, 14.81 12.67, 26.83 0.46 M1.39 34.91 C10.06 24.78, 21.22 12.76, 32.44 1.51 M-1.26 36.27 C7.63 27.32, 15.17 18.71, 32.33 0.56 M1.77 41.51 C8.81 31.92, 18.26 21.04, 38.15 -0.46 M0.82 41.81 C12.05 29.59, 22.32 15.06, 37.82 0.16 M1.4 47.35 C14.13 30.55, 29.79 14.89, 42.35 -1.86 M-0.59 49.83 C10.05 36.53, 22.47 24.5, 41.82 0.02 M2.03 55.69 C14.14 39.99, 28.45 23.99, 49.38 0.18 M1.05 54.65 C12.51 40.62, 23.38 27.55, 47.7 -0.1 M-0.34 62.46 C16.41 42.94, 30.53 24.21, 51.38 -0.21 M-0.58 61.37 C14.6 45.47, 28.37 28.42, 52.51 0.46 M2.92 65.89 C22.74 42.27, 42.88 16.5, 56.92 -0.33 M1.41 64.23 C19.99 44.67, 39.9 22.53, 58.36 0.22 M5.67 63.73 C21.19 48.37, 34.86 33.42, 63.99 -1.8 M6.54 65.57 C24.85 43.81, 43.19 23, 63.23 -0.61 M12.14 65.46 C35.5 41.44, 54.83 15.11, 66.66 0.92 M11.89 64.7 C29.47 46.11, 45.53 27.42, 66.35 3.09 M16.03 65.43 C35.63 43.15, 54.11 21.28, 66.06 9.43 M17.97 64.83 C29.17 51.62, 42.02 36.74, 67.03 8.98 M21.62 66.56 C37.58 48.06, 49.3 35.58, 66.19 14.31 M23.58 65.44 C32.35 53.96, 42.58 41.44, 67.22 13.88 M28.32 65.55 C38.54 54.16, 48.7 41.38, 67.86 19.63 M27.2 65.2 C36.63 54.18, 47.25 43.48, 67.22 20.99 M31.77 64.03 C39.07 57.83, 47.56 49.63, 66.43 25.08 M33.82 65.91 C43.74 52.95, 53.26 42.1, 66.22 25.76 M40.34 65.78 C46.04 58.27, 55.6 47.35, 66.33 33.19 M38.27 65.35 C45.41 57.31, 53.72 48.18, 66.58 33.82 M44.26 63.9 C50.18 57.4, 55.5 52.34, 67.45 39.27 M44.09 65.23 C53.03 54.76, 61.26 43.65, 67.04 38.6 M48.14 66.02 C54.5 59.24, 59.15 56.83, 67.04 46.77 M48.83 66.08 C55.19 58.37, 62.57 50.25, 66.36 45.52 M55.35 66.17 C56.11 62.12, 61.01 58.24, 67.47 52.78 M54.29 65.89 C57.46 60.52, 62.65 56.21, 65.96 51.14 M59.99 65.89 C60.32 63.84, 63.5 60.81, 68.06 56.56 M59.46 65.3 C62.13 62.91, 63.8 60.33, 67.55 57.42" stroke="#868e96" stroke-width="0.5" fill="none"></path><path d="M0.4 1.55 C14.94 -1.35, 26.6 0.2, 64.44 -1.04 M0.82 0.82 C14.59 -1.15, 29.47 -0.72, 64.85 0.34 M65.89 1.16 C64.82 23.83, 62.88 48.07, 63.85 64.37 M63.12 0.64 C63.38 17.39, 64.49 34.29, 63.44 64.47 M63.44 62.33 C41.32 64, 23.41 65.5, -1.78 62.39 M63.45 64.16 C39.96 63.67, 14.54 64.43, 0.28 63.96 M-1.78 62.76 C-0.43 44.37, 0.25 21.15, 0.83 -1.59 M-0.57 64.47 C-0.49 41.46, -0.1 18.18, 0.02 -0.23" stroke="#000000" stroke-width="1" fill="none"></path></g><g stroke-opacity="0.5" fill-opacity="0.5" stroke-linecap="round" transform="translate(202 202) rotate(0 32 32)"><path d="M0 0 C0 0, 0 0, 0 0 M0 0 C0 0, 0 0, 0 0 M-0.17 6.02 C2.46 3.9, 4.15 1.21, 4.78 0.87 M-0.16 6.44 C1.81 4.08, 3.59 1.82, 5.11 0.74 M-1.26 11.78 C1.78 9.53, 5.6 5.8, 10.89 -1.46 M-0.66 11.71 C3.07 9.02, 7.42 4.11, 11.29 -0.46 M1.76 18.04 C4.85 13.94, 10.61 7.55, 14.74 -0.97 M-0.17 18.89 C4.09 13.53, 7.62 9.14, 15.68 1.13 M-0.22 24.32 C6.67 16.9, 14.1 5.05, 20.66 0.65 M0.01 23.17 C7.06 15.69, 14.92 5.61, 20.55 0.05 M1.24 30.7 C8.1 17.83, 18.89 8.96, 27.31 0.11 M0.23 30.95 C7.23 21.78, 13.73 14.89, 26.42 0.75 M-2.22 36.18 C10.89 23.98, 22.08 13.19, 33.5 -1.14 M-0.87 36.56 C7.13 27.56, 15.41 19.89, 32.55 -0.76 M-0.87 42.62 C10.61 30.27, 20.83 17.7, 36.16 0.57 M-0.57 43.05 C13.44 26.65, 25.14 13.56, 36.78 0.62 M-1.69 48.85 C10.99 34.85, 24.85 18.47, 40.8 -1.1 M0.79 48.06 C10.12 38.07, 20.76 24.68, 42.68 -0.35 M1.4 55.23 C14.58 40.21, 27.41 24.5, 47.46 -0.63 M0.36 55.13 C18.9 32.17, 38.35 11.78, 47.18 0.33 M1.51 61.43 C22.13 34.84, 43.52 10.72, 53.11 -0.88 M0.42 61.32 C15.31 44.6, 29 27.15, 53.79 0.53 M2.52 64.75 C15.86 48.83, 27.01 33.9, 57.62 0.76 M0.86 64.26 C14.74 51.9, 26.03 37.67, 58.17 -0.44 M4.98 65.97 C18.83 50.71, 33.1 34.62, 62.19 0.15 M6.82 65.79 C26.07 42.9, 46.29 18.64, 63.37 0.76 M12.75 66.15 C26.09 49.63, 37.05 36.37, 65.3 2.53 M11.99 65.56 C28.97 46.29, 45.89 26.95, 67.47 3.38 M17.35 64.42 C33.83 44.92, 50.74 27.62, 67.15 7.98 M16.74 64.6 C33.3 47.05, 48.14 30.82, 66.7 8.86 M24.52 66.28 C35.12 49.1, 51.8 32.97, 66.78 13.02 M23.39 64.38 C36.73 49, 49.06 34.42, 66.35 14.22 M28.13 65.47 C42.45 49.46, 55.36 35.71, 65.44 19.74 M27.78 64.49 C38.3 53.67, 49.14 41.69, 66.81 19.89 M32.65 63.71 C44.93 53.49, 55.17 40.25, 65.64 26.53 M34.53 65.12 C43.95 52.1, 55.48 39.29, 66.33 26.3 M39.02 64.59 C46.56 59.2, 50.65 51.04, 67.1 31.92 M38.6 64.78 C44.55 59.35, 49.44 51.72, 67.72 32.51 M43.18 65.3 C52.14 54.69, 62.56 45.68, 66.51 41.16 M44.51 64.79 C49.2 58.43, 53.27 53.79, 65.84 38.5 M49.93 66.52 C51.49 62.9, 57.44 56.61, 68.77 46.26 M49.99 64.93 C56.2 58.45, 62 49.94, 67.51 44.04 M54.7 64.96 C57.48 62.8, 60.4 57.66, 68.13 52.04 M54.42 64.8 C58.23 60.77, 63.1 54.93, 66.49 50.58 M60.46 64.18 C62.64 63.02, 63.83 60.75, 66.65 56.89 M59.88 65.38 C61.48 63.18, 62.91 62.19, 67.52 56.65" stroke="#868e96" stroke-width="0.5" fill="none"></path><path d="M1.55 1.68 C12.16 -0.04, 26.94 0.31, 62.96 -1.27 M0.82 -0.55 C15.02 -1.34, 31.44 0.32, 64.34 0.63 M65.16 0.98 C64.18 16.63, 65.2 35.03, 64.37 63.21 M64.64 -0.93 C65.14 22.49, 65.37 44.05, 64.47 64.27 M62.33 62.25 C39.57 65.1, 17.15 62.04, -1.61 65.6 M64.16 64.27 C39.33 62.81, 16.12 63.93, -0.04 64.35 M-1.24 63.73 C1.88 43.58, 0.08 23.18, -1.59 1.16 M0.47 63.68 C-0.15 43.12, -0.52 22.09, -0.23 0.52" stroke="#000000" stroke-width="1" fill="none"></path></g><g transform="translate(111 29.5) rotate(0 27 12.5)"><text x="27" y="18" font-family="Virgil, Segoe UI Emoji" font-size="20px" fill="#5c940d" text-anchor="middle" style="white-space: pre;" direction="ltr">5</text></g><g transform="translate(79 93.5) rotate(0 27 12.5)"><text x="27" y="18" font-family="Virgil, Segoe UI Emoji" font-size="20px" fill="#5c940d" text-anchor="middle" style="white-space: pre;" direction="ltr">3</text></g><g transform="translate(143 93.5) rotate(0 27 12.5)"><text x="27" y="18" font-family="Virgil, Segoe UI Emoji" font-size="20px" fill="#5c940d" text-anchor="middle" style="white-space: pre;" direction="ltr">6</text></g><g transform="translate(47 157.5) rotate(0 27 12.5)"><text x="27" y="18" font-family="Virgil, Segoe UI Emoji" font-size="20px" fill="#5c940d" text-anchor="middle" style="white-space: pre;" direction="ltr">9+11</text></g><g transform="translate(111 157.5) rotate(0 27 12.5)"><text x="27" y="18" font-family="Virgil, Segoe UI Emoji" font-size="20px" fill="#5c940d" text-anchor="middle" style="white-space: pre;" direction="ltr">3+15</text></g><g transform="translate(175 157.5) rotate(0 27 12.5)"><text x="27" y="18" font-family="Virgil, Segoe UI Emoji" font-size="20px" fill="#5c940d" text-anchor="middle" style="white-space: pre;" direction="ltr">1+15</text></g><g transform="translate(15 221.5) rotate(0 27 12.5)"><text x="27" y="18" font-family="Virgil, Segoe UI Emoji" font-size="20px" fill="#5c940d" text-anchor="middle" style="white-space: pre;" direction="ltr">11</text></g><g transform="translate(79 221.5) rotate(0 27 12.5)"><text x="27" y="18" font-family="Virgil, Segoe UI Emoji" font-size="20px" fill="#5c940d" text-anchor="middle" style="white-space: pre;" direction="ltr">6</text></g><g transform="translate(143 221.5) rotate(0 27 12.5)"><text x="27" y="18" font-family="Virgil, Segoe UI Emoji" font-size="20px" fill="#5c940d" text-anchor="middle" style="white-space: pre;" direction="ltr">15</text></g><g transform="translate(207 221.5) rotate(0 27 12.5)"><text x="27" y="18" font-family="Virgil, Segoe UI Emoji" font-size="20px" fill="#5c940d" text-anchor="middle" style="white-space: pre;" direction="ltr">14</text></g><g stroke-linecap="round"><g transform="translate(51.95640579704195 219.71010431320673) rotate(0 23.265588767025974 -15.176293826415332)"><path d="M0.74 0.16 C5.08 -7.82, 9.85 -14.77, 21.88 -31.67 M0.54 -0.16 C7.18 -11.08, 12.49 -20.35, 21.6 -33.46 M23.27 -32.08 C27.45 -24.93, 34.34 -14.37, 45.99 0.8 M22.25 -32.72 C28.43 -22.75, 34.56 -11.44, 44.78 1.24 M44.26 1.96 C28.79 1.96, 15.64 3.72, 1.77 2.88 M43.39 2.37 C35.32 1.86, 26.67 0.94, 2.72 2.11" stroke="#c92a2a" stroke-width="1" fill="none"></path></g></g><g stroke-linecap="round"><g transform="translate(116.48208103422076 219.45731272966867) rotate(0 21.88164327213576 -14.013062772733576)"><path d="M-0.46 1.03 C7 -9.12, 13.46 -20.17, 21.36 -31.51 M-0.86 -0.16 C6.02 -9.89, 11.55 -17.9, 21.02 -31.72 M22.9 -31.89 C30.85 -22.42, 36.11 -9.64, 43.08 3.52 M21.26 -31.96 C28.85 -23.31, 35.07 -12.27, 44.11 2.17 M44.62 3.93 C30.95 3.13, 17.73 0.1, 2.26 0.43 M44.18 1.15 C30.35 2.33, 16.61 0.8, 2.18 1.32" stroke="#c92a2a" stroke-width="1" fill="none"></path></g></g><g stroke-linecap="round"><g transform="translate(181.32847680337727 222.28286096778965) rotate(0 22.11972681259772 -15.10281589526818)"><path d="M-0.08 -0.15 C7.79 -10.73, 14.55 -22.76, 19.8 -32.92 M0.37 -0.5 C7.79 -9.68, 13.61 -20.55, 22.21 -32.25 M21.75 -33.53 C31.75 -19.01, 39.72 -5.9, 43.5 3.33 M21.77 -32.5 C29.83 -19.71, 37.81 -6.62, 44.32 2.99 M42.28 1.72 C32.01 2.24, 22.65 1.4, 2.91 -0.09 M43.02 1.63 C30.68 2.98, 19.06 1.45, 3.41 1.15" stroke="#c92a2a" stroke-width="1" fill="none"></path></g></g><g stroke-opacity="0.5" fill-opacity="0.5" stroke-linecap="round" transform="translate(434 30) rotate(0 32 32)"><path d="M0 0 C0 0, 0 0, 0 0 M0 0 C0 0, 0 0, 0 0 M0.14 6.73 C1.52 5.04, 3 2.81, 5.75 0.62 M-0.46 6.43 C0.96 4.72, 2.84 2.89, 4.82 0.39 M-1.18 12.84 C1.49 9.59, 5.84 6.63, 10.71 0.17 M0.64 11.55 C3.94 8.16, 7.71 2.94, 10.06 -0.01 M-1.41 19.74 C4.24 11.55, 11.07 4.87, 15.14 1.24 M-0.09 18.9 C3.71 13.94, 8.63 8.39, 15.06 0.08 M-1.53 23.58 C7.64 16.29, 14.91 9.03, 19.33 0.28 M-0.37 24.29 C5.42 18.77, 9.63 12.59, 21.27 0.15 M0.27 29.41 C6.24 22.44, 12.57 12.29, 25.86 -1.52 M-0.38 31.35 C5.52 24.25, 10.17 18.3, 25.76 -0.63 M-1.39 37.31 C12.03 22.87, 21.12 13.73, 31.12 1.76 M-0.09 36.54 C11.53 23.87, 23.95 9.71, 32.82 -0.83 M-0.19 42.62 C12.21 25.04, 28.05 10.13, 35.29 -1.38 M0.74 41.82 C15.89 25.98, 29.53 9.82, 37.54 0.91 M-0.9 50.01 C14.65 32.75, 26.07 18.51, 40.72 -0.05 M-0.5 48.57 C9.5 37.55, 18.18 28.66, 42.89 0.35 M-1.57 54.05 C17.47 35.45, 32.75 14.92, 45.91 0.86 M-0.73 54.89 C13.23 39.08, 26.24 25, 47.43 -0.59 M0.37 60.99 C12.27 45.39, 28.3 32.53, 51.94 0.43 M0.44 61.19 C15.21 44.26, 28.64 27.1, 52.43 0.59 M-0.11 63.12 C15.05 52.79, 25.83 35.79, 56.4 -0.36 M1.19 65.27 C18.72 46.22, 34.95 26.82, 57.58 0.7 M6.29 64.53 C26.4 40.83, 49.69 16.94, 63.84 1.06 M7.15 65.96 C21.8 45.69, 39.92 27.44, 64.07 -0.62 M13.75 66.01 C31.96 42.49, 54.36 17.89, 65.7 0.99 M12.67 64.72 C32.37 42.86, 50.27 21.81, 66.33 2.99 M17.77 66.78 C33.57 46.83, 45.62 31.33, 64.79 7.01 M16.98 65.18 C31.99 48.13, 45.73 31.4, 67.16 8.9 M21.7 64.81 C39.53 45.9, 55.49 28.27, 68.37 15.47 M23.44 64.24 C37.22 47.92, 51.46 31.72, 66.56 14.86 M26.62 66.66 C39.24 51.17, 54.15 35.43, 67.54 20.67 M27.14 65.72 C42.27 50, 55.84 33.78, 65.85 20.84 M33.85 63.29 C47.12 51.7, 60.07 35.22, 68.28 25.59 M34.09 64.87 C43.24 54.74, 52.17 43.49, 66.39 25.66 M38.81 63.86 C45.02 55.27, 54.2 49.53, 67.4 33.73 M38.89 66.04 C45.47 59.11, 49.81 51.13, 66.29 33.52 M45.52 63.54 C52.14 54.46, 61.34 44.7, 68.33 39.67 M43.84 65.24 C53.25 54.29, 61.98 45.28, 65.88 38.4 M48.52 65.34 C52.93 60.02, 60.45 56.49, 68.31 45.15 M48.64 65.74 C54.58 59.21, 58.87 55.44, 67.66 44.88 M54.59 64.71 C59.87 58.91, 61.1 56.38, 67.57 53 M54.85 65.4 C58.75 60.53, 62.65 56.2, 67.18 51.93 M60.01 64.21 C62.46 62.5, 65.21 59.67, 67.24 56.55 M59.36 64.84 C62.19 62.05, 65.54 59.18, 67.44 56.7" stroke="#868e96" stroke-width="0.5" fill="none"></path><path d="M-1.71 0.6 C25.78 0.68, 46.89 -0.27, 63.57 -0.2 M0.33 0.09 C15.1 -0.7, 29.31 -0.38, 63.58 0.92 M65.14 -0.75 C63.07 14.56, 64.88 26.26, 64.22 65.94 M64.23 0.42 C62.92 17.87, 63 34.61, 63.65 63.74 M64.73 64.62 C49.5 63.15, 33.44 65.53, 1.41 62.57 M63.83 64.47 C47.36 63.87, 31.22 64, 0.29 63.14 M-1.66 65.43 C1.28 46.81, 0.64 30.06, -1.25 -1.23 M0.26 63.31 C0.65 43.25, 0.44 22.42, 0.18 0.53" stroke="#000000" stroke-width="1" fill="none"></path></g><g stroke-opacity="0.5" fill-opacity="0.5" stroke-linecap="round" transform="translate(402 94) rotate(0 32 32)"><path d="M0 0 C0 0, 0 0, 0 0 M0 0 C0 0, 0 0, 0 0 M0.07 6.35 C1.79 4.47, 2.97 4.06, 5.25 0.36 M-0.23 6 C1.11 4.91, 2.33 3.42, 5.02 0.11 M0.93 10.98 C4.38 8.53, 8.11 3.42, 10.83 1.1 M-0.36 11.87 C3.16 8.87, 4.85 5.79, 10.65 0.29 M1.18 17.55 C4.82 12.58, 9.99 5.01, 16.53 -0.47 M0.33 18.21 C5.09 13.27, 9.25 6.36, 15.37 0.51 M-0.24 24.6 C4.86 19.97, 9.98 11.53, 21.6 -1.56 M0.48 24.28 C4.77 18.88, 8.4 14.19, 21.48 -0.34 M-1.07 29.62 C8.6 19.05, 15.12 10.64, 24.43 -1.64 M0.88 30.92 C10.07 18.65, 20.41 6.72, 25.33 0.67 M0.18 38.19 C6.84 26.69, 18.81 16.47, 33.75 1.29 M-0.6 36.79 C10.1 26.14, 19.28 15.49, 31.17 0.55 M0.24 41.1 C8.56 31.52, 19.57 16.9, 35.24 2.18 M-0.57 43.49 C9.37 31.95, 18.99 22.17, 37.53 0.44 M0.97 49.92 C10.4 35.14, 22.89 21.71, 42.61 -1.87 M-0.47 49.74 C14.29 31.85, 31.2 14.15, 43.01 0.46 M-0.24 54.79 C15.29 36.72, 28.91 19.86, 48.14 -0.46 M0.6 55.01 C13.96 38.96, 29.1 21.01, 46.69 -0.32 M0.04 59.73 C11.56 48.69, 25.8 31.82, 53.76 -0.64 M0.24 61.44 C16.02 41.83, 31.51 23.79, 53.91 -1.05 M-0.26 66.21 C17.89 48.61, 29.36 30, 57.59 0.21 M1.89 65.22 C20.31 44.15, 38.37 23.58, 58.65 0.88 M5.78 64.45 C26.62 43.44, 47.25 18.94, 65.04 -0.39 M7.22 64.53 C28.11 40.42, 51.02 14.69, 63.37 0.7 M13.3 63.55 C31.73 44.18, 49.09 23.3, 65.37 3.42 M12.01 65.45 C23.42 51.07, 35.64 38.34, 67.37 2.45 M18.7 66.71 C30.27 47.23, 46.26 30.54, 64.73 8.77 M17.1 65.84 C35.17 44.07, 53.58 24.13, 66.62 9.6 M22.76 64.84 C35.35 50.25, 49.21 38.34, 67.95 14.93 M22.2 64.76 C32.87 52.28, 43.72 39.84, 67.33 14.7 M29.24 63.86 C37.64 55.56, 45.83 44.71, 66.49 21.86 M28.3 66.38 C41.95 50.87, 55.1 33.22, 66.66 21.59 M31.91 65.77 C42.79 56.92, 48.73 47.66, 66.15 26.34 M33.48 64.84 C44.6 52.39, 54.54 41.25, 66.22 26.26 M37.1 63.94 C45.53 56.08, 56.76 47.47, 67.63 31.15 M39.29 66.24 C47.89 54.55, 55.47 44.86, 67.43 33.77 M42.82 64.24 C50.63 56.63, 57.79 50.56, 66.92 41.05 M44.53 65.47 C51.5 56.45, 60.43 45.99, 65.65 38.93 M49.25 64.23 C53.55 62.25, 59.64 56.96, 67.15 44.14 M49.65 66.18 C54.73 58.68, 62.6 51.56, 66.88 45.39 M53.24 67.05 C56.38 59.36, 62.81 57.35, 68.35 51.4 M53.93 66.33 C56.25 63.1, 59.11 59.55, 67.27 51.87 M58.79 65.24 C61.52 63.71, 63.12 62.05, 66.64 57.83 M59.42 64.9 C61.96 63.05, 64.43 60.65, 66.79 57.46" stroke="#868e96" stroke-width="0.5" fill="none"></path><path d="M0.6 1.64 C17.47 -0.85, 32.72 0.12, 63.8 -1.57 M0.09 0.91 C24.5 0.72, 49.66 -0.64, 64.92 -0.9 M63.25 -1.43 C65.16 24.59, 63.4 48.65, 65.94 63.41 M64.42 -0.97 C65.04 17.2, 64.46 35.81, 63.74 63.29 M64.62 64.14 C47.49 62.95, 34.46 65.64, -1.43 63.03 M64.47 63.45 C40.55 63.28, 17.63 64.18, -0.86 63.66 M1.43 65.08 C0.37 47.22, 0.62 28.31, -1.23 0.37 M-0.69 64.32 C0.19 48.22, -0.24 32.41, 0.53 0.39" stroke="#000000" stroke-width="1" fill="none"></path></g><g stroke-opacity="0.5" fill-opacity="0.5" stroke-linecap="round" transform="translate(466 94) rotate(0 32 32)"><path d="M0 0 C0 0, 0 0, 0 0 M0 0 C0 0, 0 0, 0 0 M-0.31 7.09 C0.73 5.32, 3.25 3.45, 4.99 -0.16 M-0.66 6.53 C1.25 4.7, 2.76 2.79, 4.74 0.61 M-0.93 12.39 C3.55 9.34, 5.37 6.37, 11.77 -1.12 M-0.04 12.73 C3.72 7.49, 7.4 3.02, 10.96 0.45 M-1.02 17.79 C5.93 11, 10.26 6.89, 14.82 0.69 M-0.35 18.66 C5.32 12.16, 9.02 6.95, 15.8 -0.44 M0.78 23.93 C7.51 17.59, 10.4 10.85, 19.76 -1.91 M0.47 24.11 C5.4 17.24, 11.02 12.08, 20.99 0.15 M-0.85 30.92 C8.57 17.3, 20.16 5.13, 24.31 2.03 M0.45 30.45 C8.32 20.69, 16.51 9.91, 26.63 -0.03 M1.05 35.36 C9.16 27.53, 18.51 16.44, 33.28 -0.08 M-0.34 37.36 C8.08 27.83, 16.51 17.98, 32.54 -0.25 M-1.28 40.58 C13.24 27.26, 22.7 13.17, 38.8 -0.82 M1.11 42.86 C12.25 29.53, 25.17 15.1, 37.06 -0.14 M0.88 48.7 C14.96 31.37, 30.38 11.84, 40.78 1.06 M0.7 48.12 C14.38 33.84, 28.23 17.58, 43.12 -0.05 M0.5 55.12 C14.5 36.76, 29.63 20.28, 46.83 0.47 M0.72 53.8 C18.49 34.72, 34.3 14.98, 46.96 -0.5 M-1.22 60.43 C17.81 43.97, 31.03 24.35, 52.68 -0.25 M0.5 60.69 C10.24 47.35, 21.58 35.65, 52.27 -0.56 M2.84 66.64 C20.03 43.5, 36.13 24.2, 58.16 0.54 M1.85 65.75 C18.32 46.37, 35.25 26.67, 58.83 0.74 M5.7 65.03 C24.73 46.44, 40.26 28.59, 63.59 1.53 M5.78 64.72 C23.64 46.15, 39.92 26.53, 64.68 0.01 M10.84 66.98 C28.36 47.24, 44.43 24.7, 67.8 0.58 M12.73 64.77 C27.41 47.37, 43.77 28.88, 66.83 2.33 M18.62 63.79 C28.58 50.22, 41.33 33.52, 66.49 10.25 M17.76 65.01 C32.23 47.79, 48.5 30.71, 67.32 8.62 M22.79 64.9 C34.31 52.81, 48.48 38.78, 67.4 13.33 M22.72 64.63 C39.25 45.86, 55.86 27.24, 67.18 13.91 M26.44 65.82 C42.72 48.59, 56.41 33.57, 67.68 21.97 M28.96 65.48 C39.83 52.66, 48.51 41.09, 67.41 20.26 M34.39 65.86 C42.48 55.18, 50.17 46.64, 66.91 26.45 M33.46 65.67 C39.38 57.71, 46.64 48.2, 66.83 26.34 M37.19 63.98 C44.51 60.54, 51.09 52.66, 65.06 33.03 M39.48 66.15 C47.53 53.61, 57.59 43.23, 67.68 33.02 M43.52 64.59 C52.48 55.09, 62.99 45.78, 68.29 40.46 M44.76 64.32 C52.43 56.57, 58.66 46.77, 66.18 38.7 M48.14 65.4 C56.47 61.02, 61.46 53.1, 66.14 46.09 M50.09 64.62 C56.37 58.63, 63.01 50.28, 67.39 45.14 M55.59 63.98 C57.36 60.87, 64.82 56.2, 66.74 49.97 M54.87 64.92 C59.09 60.15, 63.02 56.65, 67.21 50.42 M59.81 65.39 C61.49 63.85, 63.05 61.42, 67.93 57.03 M59.47 65.2 C62.45 62.9, 64.86 59.82, 67.55 56.97" stroke="#868e96" stroke-width="0.5" fill="none"></path><path d="M1.64 1.26 C23.65 0.12, 49.66 -0.39, 62.43 1.76 M0.91 -0.34 C23.74 -0.08, 45.19 0.86, 63.1 0.78 M62.57 1.1 C64.74 19.1, 64.59 41.45, 63.41 63.65 M63.03 0.56 C63.26 23.99, 63.8 47.75, 63.29 63.41 M64.14 62.89 C40.91 65.47, 21.79 62.76, -0.97 65.21 M63.45 63.61 C41.63 64.05, 20.76 63.45, -0.34 63.69 M1.08 63.82 C0.97 50.37, -0.72 35.39, 0.37 -1.04 M0.32 63.64 C-0.06 49.51, 0.01 37.13, 0.39 -0.16" stroke="#000000" stroke-width="1" fill="none"></path></g><g stroke-opacity="0.5" fill-opacity="0.5" stroke-linecap="round" transform="translate(370 158) rotate(0 32 32)"><path d="M0 0 C0 0, 0 0, 0 0 M0 0 C0 0, 0 0, 0 0 M0.43 6.04 C2.09 5.05, 3.65 2.17, 4.47 0.37 M-0.13 6.3 C1.17 4.77, 2.39 3.18, 5.24 0.12 M0.49 12.83 C2.63 9.56, 4.85 7.99, 9.54 1.2 M0.82 11.74 C3.96 7.11, 7.85 3.63, 11.11 0.29 M-0.78 19.01 C2.31 13.76, 8.1 9.17, 15.98 0.5 M0.1 19.03 C3.96 12.41, 9.12 7.64, 14.86 0.15 M0.12 25.18 C5.01 17.02, 9.5 12.38, 19.42 -1.03 M0.29 23.77 C4.46 18.35, 10.35 12.37, 21.48 0.85 M0.44 28.79 C6.91 20.74, 14.8 9.74, 27.99 0.72 M-0.03 30.24 C6.76 21.97, 12.56 14.93, 25.93 0.3 M-1.77 36.42 C9.32 26.9, 17.17 20.06, 31.91 -1.16 M0.23 37.33 C10.05 26.11, 19.53 14.11, 31.74 0.17 M-1.8 43.51 C9.13 29.22, 19.31 20.75, 35.8 0.96 M0.48 42.57 C14.58 27.61, 27.54 11.91, 36.48 1.02 M-0.34 47.76 C11.9 34.09, 21.97 21.35, 43.72 0.38 M-0.92 49.34 C12.01 36.05, 22.93 23.4, 42.61 0.09 M0.83 53.06 C9.82 41.62, 20.67 31.25, 47.75 1.33 M-0.49 55.46 C9.18 43.38, 18.2 32.04, 46.78 0.27 M-0.52 62.7 C18.52 40.64, 34.4 21.94, 53.08 -1.93 M-0.26 60.17 C17.6 38.99, 37.14 17.82, 52.76 -0.02 M3.26 65.03 C12.44 49.49, 25.38 37.68, 58.49 0.17 M2.37 64.48 C16.38 48.38, 30.08 33.54, 58.69 0.11 M6.28 66.67 C22.88 47.44, 40.17 28.85, 65.52 -0.39 M5.97 66.07 C26.14 43.63, 45.3 21.62, 64 -0.12 M14.27 64.7 C33.98 41.18, 50.94 20.09, 64.96 2.31 M12.05 64.28 C31.23 43.58, 49.29 23.28, 66.72 2.05 M15.7 63.86 C32.81 45.13, 46.83 28.59, 67.97 8.98 M16.93 64.94 C30.22 50.83, 43.64 35.99, 66.35 8.52 M22.85 64.17 C34.8 54.56, 44.81 41.65, 65.8 16.08 M22.58 64.79 C38.36 47.25, 54.23 30.34, 66.38 14.98 M28.4 66.2 C35.84 56.17, 45.54 45.93, 67.78 20.28 M28.06 66.38 C35.73 54.49, 44.65 46.35, 66.07 20.16 M34.47 66.21 C43.14 54.06, 53.91 40.67, 67.02 24.65 M34.29 64 C45.99 50.94, 56.14 37.96, 66.91 25.61 M37.22 65.33 C49.45 56.06, 57.2 43.63, 66.94 33.84 M39.39 64.58 C47.39 53.89, 57.58 44.59, 66.93 33.74 M43.88 64.8 C52.38 57.47, 61.05 48.09, 67.71 40.01 M43.6 65.56 C50.27 57.5, 54.88 51.12, 65.95 39.34 M49.3 67.09 C55.82 61.39, 58.81 53.83, 68.09 46.25 M48.53 65.86 C54.26 60.95, 57.65 55.76, 67.14 45.85 M52.52 63.98 C59.01 61.89, 63.93 56.47, 65.31 52.04 M53.46 66.45 C58.09 60.84, 64 55.61, 65.77 50.49 M59.97 65.41 C62.45 62.84, 64.05 60.92, 67.12 57.15 M59.77 65.52 C61.62 63.96, 62.67 62.33, 67.06 56.83" stroke="#868e96" stroke-width="0.5" fill="none"></path><path d="M1.26 -1.4 C14.04 -0.96, 27.25 -2.09, 65.76 1.13 M-0.34 0.93 C21.3 -1.01, 43.57 -1.48, 64.78 0.09 M65.1 0.38 C63.11 23.08, 65.7 45.13, 63.65 65.5 M64.56 -0.88 C64.25 20.34, 64.01 40.67, 63.41 64.41 M62.89 62.72 C43.74 65.45, 19.51 63.07, 1.21 64.8 M63.61 63.39 C45.63 63.93, 26.92 63.3, -0.31 63.14 M-0.18 64.44 C-0.39 48.86, -1.68 36.59, -1.04 -1.72 M-0.36 64.11 C-0.35 43.31, 0.97 22.65, -0.16 0.11" stroke="#000000" stroke-width="1" fill="none"></path></g><g stroke-opacity="0.5" fill-opacity="0.5" stroke-linecap="round" transform="translate(434 158) rotate(0 32 32)"><path d="M0 0 C0 0, 0 0, 0 0 M0 0 C0 0, 0 0, 0 0 M-0.62 6.93 C2.3 4.55, 3.33 1.7, 4.99 -0.04 M-0.36 6.52 C1.24 4.56, 2.77 2.93, 4.75 0.03 M0.92 12.31 C3.96 8, 8.69 2.49, 11.86 0.97 M-0.16 11.98 C2.09 9.09, 5.49 6.68, 10.96 -0.55 M0.44 17.28 C5.23 12.79, 10.65 5.62, 15.79 0.41 M0.47 17.82 C4.81 11.89, 11 5.1, 15.44 -0.57 M1.37 24.35 C4.04 17.81, 10.24 8.99, 20.3 -1.35 M-0.05 23.37 C6.97 16.55, 13.42 8.79, 22.18 0.06 M-1.69 29 C6.21 21.17, 11.14 17.28, 26.68 -0.47 M-0.23 30.63 C9.55 17.87, 20.59 6.77, 26.25 -0.28 M-0.71 38.72 C9.08 27.08, 21.58 13.34, 30.84 0.24 M0.19 36.86 C9.26 26.17, 17.53 16.9, 32.17 -0.27 M1.13 41.12 C10.06 28.35, 24.78 16.01, 37.58 1.46 M0.19 43.44 C8.83 33.34, 16.79 22.59, 37.64 -0.13 M-1.28 50.07 C12.96 31.65, 28.16 15.35, 43.04 -0.89 M0.3 49.68 C11.16 36.73, 22.72 23.3, 42.74 -1.06 M-1.23 54.16 C11.56 40.16, 25.43 24.87, 48.61 -1.77 M1.17 54.18 C15.66 36.03, 30.92 18.04, 47.55 0.4 M1.75 62.58 C15.21 43.27, 31.97 24.15, 51.39 0.7 M-0.77 60.44 C16.14 42.14, 33.12 21.27, 53.3 -1.08 M1.66 63.39 C10.98 51.05, 24.09 38.88, 58.12 -0.86 M1.1 65.89 C19 44.61, 38.17 24.04, 58.06 -0.02 M7.92 65.37 C21.59 50.16, 35.85 33.95, 63.6 0.69 M7.32 65.56 C27.64 42.39, 48.31 19.96, 63.87 0.49 M11.99 66.84 C30.66 41.32, 51.7 19.12, 66.69 3.06 M11.57 65.65 C26.15 49.09, 41.15 31.75, 66.43 2.64 M15.77 65.43 C33.34 43.17, 53.15 25.58, 66.71 8.12 M16.86 65.13 C31.31 50.07, 45.06 34.16, 66.24 8.18 M22.12 66.41 C37.17 51.44, 48.92 34.67, 68.55 15.39 M22.74 64.78 C32.5 54.37, 42.86 42.2, 67.46 13.79 M28.78 64.53 C43.26 48.91, 57.49 34, 66.1 19.21 M28.96 64.87 C39.61 50.49, 54.07 35.06, 65.97 20.98 M34.83 63.76 C41.87 55.65, 47.69 48.24, 65.22 27.47 M32.62 65.66 C42.62 52.84, 52.69 42.45, 66.18 26.61 M38.58 67.19 C45.78 59.05, 49.81 51.04, 67.75 33.49 M37.82 65.08 C48.22 53.76, 60.03 41.27, 67.64 33.54 M44.08 64.79 C51.23 59.49, 56.3 54.4, 67.26 38.5 M44.84 65.25 C50.78 55.77, 58.41 47.62, 66.59 38.94 M51 67.23 C56.04 59.38, 59.2 54.19, 68.25 43.77 M49.77 66.16 C55.83 58.4, 61.63 51.69, 67.85 45.14 M52.51 66.41 C58.11 63.88, 60.37 57.28, 67.38 52.61 M54.99 64.94 C57.99 62.49, 61.4 57.1, 65.83 51.47 M59.99 65.52 C61.49 63.16, 63.64 61.96, 67.24 55.99 M60.09 65.47 C61.87 63.18, 63.57 61.63, 66.93 57.35" stroke="#868e96" stroke-width="0.5" fill="none"></path><path d="M-1.4 0.31 C20.7 -0.6, 40.69 1.36, 65.13 0.66 M0.93 -0.02 C19.36 1.14, 38.68 1, 64.09 0.57 M64.38 -0.65 C63.76 18.73, 62.95 33.23, 65.5 64.47 M63.12 -0.02 C63.03 21.61, 62.67 43.16, 64.41 64.36 M62.72 65.27 C44.22 62.21, 20.66 64.85, 0.8 63.66 M63.39 63.74 C42.06 62.89, 19.21 63.44, -0.86 63.17 M0.44 64.07 C-1.59 39.01, 0.03 15.44, -1.72 0.52 M0.11 63.21 C-0.02 49.74, 0.19 34.25, 0.11 0.34" stroke="#000000" stroke-width="1" fill="none"></path></g><g stroke-opacity="0.5" fill-opacity="0.5" stroke-linecap="round" transform="translate(498 158) rotate(0 32 32)"><path d="M0 0 C0 0, 0 0, 0 0 M0 0 C0 0, 0 0, 0 0 M0.28 7.16 C1.49 4.65, 2.25 2.88, 4.59 0.42 M-0.14 6.23 C0.8 4.95, 2.08 3.75, 4.66 0.56 M0.4 12.12 C2.76 10.3, 3.93 7.58, 11.64 -1.02 M0.07 11.47 C2.98 9.04, 6.36 5.68, 10.12 0.49 M-1.28 17.97 C4.87 12.97, 8.33 9.31, 15.7 1.25 M-0.74 17.88 C3.95 13.5, 7.8 8.12, 14.72 0.07 M0.54 22.15 C7.47 14.6, 12.12 7.27, 19.98 0.35 M-0.45 24.1 C7.2 16.15, 13.91 9.61, 21.39 -0.6 M-1.47 30.09 C4.88 21, 15.18 15.6, 25.48 2.04 M0.15 29.99 C8.13 20.53, 17.76 9.76, 25.68 0.51 M1.58 36.11 C13.63 24.83, 23.54 8.87, 32.23 -0.78 M-0.27 37.81 C8.2 26.62, 18.14 15.47, 31.72 -0.05 M-1.26 40.93 C7.33 34.58, 16.31 23.67, 38.08 -1.15 M1.06 43.18 C15.23 25.91, 28.77 9.71, 36.49 0.8 M1.03 47.12 C14.95 30.25, 30.99 15.33, 41.77 -0.83 M0.64 49.29 C17.08 30.57, 32.99 11.43, 41.6 -0.4 M-0.13 52.96 C15.47 37.3, 29.8 22.16, 45.51 0.88 M-0.11 54.48 C16.18 34.83, 32.58 16.66, 47.69 0.24 M1.63 59.75 C13.45 45.45, 25.43 29.59, 54.02 0.28 M-0.51 60.24 C19.45 39.19, 36.83 18.91, 52.24 -1.16 M0.02 63.36 C20.75 42.03, 41.74 18.89, 57.09 0.54 M2.51 64.53 C19.47 45.81, 37.18 24.71, 57.93 -0.27 M6.62 65.51 C22.36 48.52, 37.08 32.14, 64.67 0.82 M6.81 65.74 C18.62 52.37, 31.1 37.93, 64.48 0.27 M14.13 63.96 C22.55 52.09, 34.37 36.91, 67.44 1.75 M12.94 64.59 C31.54 44.29, 49.33 22.68, 67.02 3.1 M17.34 63.67 C33.92 45.13, 55.08 24.72, 65.84 8.34 M17.04 66.04 C34.49 47.06, 51.06 26.6, 65.9 8.71 M24.37 66.46 C36.81 50.97, 47.45 37.41, 67.86 12.9 M22.74 64.66 C35.61 51.52, 46.7 37.95, 66.26 15.1 M27.11 66.25 C36.34 56.27, 46.29 44.73, 65.02 21.52 M27.45 64.56 C43.36 47.96, 58.23 28.74, 66.79 20.01 M32.38 66.2 C43.87 51.58, 56.07 36.84, 68.04 26.26 M34.28 64.32 C42.04 54.11, 52.26 42.5, 67.17 25.75 M40.44 65.95 C46.13 56.15, 51.91 51.39, 67.39 34.29 M38.32 64.84 C49.93 53.82, 60.41 41.15, 67.45 32.19 M44.07 66.74 C50.55 59.95, 57.24 52.13, 65.75 39.87 M44.54 64.29 C51.36 55.42, 59.51 46.8, 66.19 39.31 M51.14 66.68 C53.78 59.35, 59.08 56.45, 65.77 45.78 M50.06 66.03 C56.15 57.8, 63.27 50.37, 67.14 44.43 M54.95 66.57 C60.65 60.5, 62.26 55.8, 67.95 50.78 M53.48 66.18 C59.53 60.81, 62.62 54.13, 66.81 50.41 M60.1 65.45 C61.55 63.67, 64.17 60.53, 66.08 56.1 M60.04 65.65 C61.25 63.82, 63.19 61.28, 67.44 57.01" stroke="#868e96" stroke-width="0.5" fill="none"></path><path d="M0.31 -0.43 C24.25 -1.12, 50.66 1.58, 64.66 0.18 M-0.02 -0.42 C25.96 -1.5, 50.86 -0.51, 64.57 -0.38 M63.35 0.22 C66.3 14.03, 64 30.74, 64.47 64.84 M63.98 -0.35 C64.1 12.3, 63.76 26.42, 64.36 64.31 M65.27 65.41 C42.91 62.62, 25.9 64.39, -0.34 64.95 M63.74 64.29 C47.49 63.27, 32.39 62.75, -0.83 64.71 M0.07 62.75 C-1.17 41.71, -0.98 16.96, 0.52 -1.38 M-0.79 64.18 C0.76 43.17, 0.07 21.67, 0.34 -0.53" stroke="#000000" stroke-width="1" fill="none"></path></g><g transform="translate(439 49.5) rotate(0 27 12.5)"><text x="27" y="18" font-family="Virgil, Segoe UI Emoji" font-size="20px" fill="#5c940d" text-anchor="middle" style="white-space: pre;" direction="ltr">5</text></g><g transform="translate(407 113.5) rotate(0 27 12.5)"><text x="27" y="18" font-family="Virgil, Segoe UI Emoji" font-size="20px" fill="#5c940d" text-anchor="middle" style="white-space: pre;" direction="ltr">23</text></g><g transform="translate(471 113.5) rotate(0 27 12.5)"><text x="27" y="18" font-family="Virgil, Segoe UI Emoji" font-size="20px" fill="#5c940d" text-anchor="middle" style="white-space: pre;" direction="ltr">24</text></g><g transform="translate(375 177.5) rotate(0 27 12.5)"><text x="27" y="18" font-family="Virgil, Segoe UI Emoji" font-size="20px" fill="#5c940d" text-anchor="middle" style="white-space: pre;" direction="ltr">20</text></g><g transform="translate(439 177.5) rotate(0 27 12.5)"><text x="27" y="18" font-family="Virgil, Segoe UI Emoji" font-size="20px" fill="#5c940d" text-anchor="middle" style="white-space: pre;" direction="ltr">18</text></g><g transform="translate(503 177.5) rotate(0 27 12.5)"><text x="27" y="18" font-family="Virgil, Segoe UI Emoji" font-size="20px" fill="#5c940d" text-anchor="middle" style="white-space: pre;" direction="ltr">16</text></g><g stroke-linecap="round"><g transform="translate(270.4198364978656 131.33322993953675) rotate(0 36.186813693706426 -0.34107783114984613)"><path d="M1.92 0.65 C27.95 -1.53, 55.91 -0.97, 72.44 -1.33 M-0.42 0.07 C23.52 0.63, 47.71 -0.6, 72.79 0" stroke="#c92a2a" stroke-width="1" fill="none"></path></g><g transform="translate(270.4198364978656 131.33322993953675) rotate(0 36.186813693706426 -0.34107783114984613)"><path d="M73.23 -1.69 L57.68 5.86 L57.43 -8.36 L74.54 0.43" stroke="none" stroke-width="0" fill="#c92a2a" fill-rule="evenodd"></path><path d="M74.23 0.49 C67.5 1.53, 62.23 4.17, 59.26 4.76 M72.48 0.05 C67.76 2.61, 63.23 3.6, 59.53 5.75 M59.22 6.41 C60.02 1.31, 60.12 -1.12, 58.46 -6.7 M58.7 6.27 C59.5 1.74, 59.53 -3.94, 59.65 -6.71 M58.88 -5.74 C62.28 -4.36, 66.63 -2.85, 73.49 -0.34 M58.82 -6.61 C63.79 -4.84, 67.89 -2.87, 72.6 0.19 M72.79 0 C72.79 0, 72.79 0, 72.79 0 M72.79 0 C72.79 0, 72.79 0, 72.79 0" stroke="#c92a2a" stroke-width="1" fill="none"></path></g></g><g stroke-linecap="round"><g transform="translate(410.8079750072211 179.6873350408793) rotate(0 22.408454705626127 -14.52014076469601)"><path d="M0.44 0.99 C4.86 -6.86, 9.46 -12.64, 20.16 -31.06 M0.86 -0.37 C7.93 -12.5, 15.84 -23.2, 22.12 -32.19 M20.86 -32.03 C25.89 -24.8, 33.27 -16.96, 44.37 2.21 M21.74 -32 C27.91 -22.57, 35.12 -11.29, 43.25 1.86 M43.87 3.15 C35.58 0.15, 26.95 0.5, 0.75 0.73 M44.04 1.73 C33.52 2.06, 24.68 1.69, 2.8 2.61" stroke="#c92a2a" stroke-width="1" fill="none"></path></g></g><g stroke-linecap="round"><g transform="translate(475.5970658445731 180.89681897265172) rotate(0 22.193975574467686 -15.45053455505655)"><path d="M0.25 1.42 C6.11 -9.86, 16.24 -24.02, 21.09 -30.88 M0.03 0.41 C6.28 -8, 10.69 -16.33, 21.07 -32.92 M22.43 -33.4 C29.06 -21, 36.18 -8.86, 43.56 2.5 M21.27 -32.42 C28.63 -20.19, 36.59 -7.81, 44.27 1.97 M44.36 0.55 C27.46 0.56, 13.31 1.81, 2.99 1.74 M44.23 1.77 C33.11 2.88, 21.91 1.32, 2.16 1.91" stroke="#c92a2a" stroke-width="1" fill="none"></path></g></g><g stroke-opacity="0.5" fill-opacity="0.5" stroke-linecap="round" transform="translate(721.2970304549272 49.40909090909213) rotate(0 32 32)"><path d="M0 0 C0 0, 0 0, 0 0 M0 0 C0 0, 0 0, 0 0 M0.47 5.76 C1.18 4.06, 2.94 2.85, 5.04 0.08 M0.1 6.28 C1.36 4.42, 3.06 1.96, 4.92 0.06 M1.44 11.13 C4.56 9.6, 7.24 3.47, 9.79 -1.34 M0.61 11.51 C3.41 8.7, 5.64 5.93, 10.35 -0.82 M1.14 19.26 C6.07 11.45, 10.61 8.12, 14.7 2.32 M-0.44 18.72 C4.43 14.23, 9.33 7.27, 14.83 -0.34 M-1.28 23.17 C9.76 15.59, 18.72 6.72, 19.89 0.38 M-0.26 24.25 C5.96 15.61, 14.04 8.55, 21.98 -0.3 M1.94 32.42 C10.38 18.3, 17.65 5.67, 25.22 -1.58 M0.93 29.9 C9.74 20.28, 18.89 9.24, 25.61 1.19 M-0.98 37.28 C9.92 24.77, 20.78 15.31, 30.55 0.77 M0.03 36.08 C12.13 22.57, 25.3 8.51, 31.82 -0.91 M-1.16 41.89 C11.41 30.3, 21.89 19.44, 38.05 1.31 M-0.24 42.82 C14.34 25.72, 27.49 9.55, 37.28 1.15 M0.73 47.73 C13.44 35.22, 28.95 19.37, 43.31 0.71 M0.35 47.97 C14.46 33.22, 28.21 15.88, 43.08 0.8 M0.96 55.51 C13.23 38.68, 25.54 26.53, 45.85 1.58 M0.67 54.81 C16.44 36.69, 30.78 19.16, 47.08 1.11 M-0.78 60.45 C14.4 45.06, 28.29 27.65, 52.22 1.65 M0.6 59.97 C17.32 41.59, 34.52 22.08, 53.7 -0.37 M3.04 63.84 C24.68 40.94, 45.69 15.71, 58.55 1.01 M2.19 64.84 C18.83 45.33, 34.96 25.59, 58.34 0.33 M6.35 64.33 C21.03 49.78, 32.65 38.43, 65.6 -0.76 M5.99 65.45 C17.94 51.92, 30.2 37.67, 63.18 0.49 M12.65 64.09 C25.28 49.86, 36.86 37.77, 67.39 0.89 M13.02 64.47 C23.38 51.45, 35.59 39.94, 67.55 2.92 M16.09 64.02 C29.07 51.25, 42.87 36.94, 68.18 10.4 M17.65 64.99 C38.04 44.03, 57.35 20.46, 65.78 8.52 M24.58 65.34 C31.81 53.05, 43.93 41.08, 68.31 14.99 M23.44 66.01 C37.61 49.12, 51.33 32.34, 66.72 13.96 M26.37 64.9 C38.59 55.59, 49.76 43.69, 68.1 19.19 M27.53 66.32 C41.9 48.85, 55.61 33.55, 66.5 19.88 M33.1 64.29 C38.64 58.38, 48.22 48.2, 67.61 24.96 M34.48 65.37 C42.45 55.17, 49.19 47.78, 68.03 25.78 M38.35 65.06 C45.73 56.22, 57.43 44.42, 67.14 32.91 M38.61 65.27 C48.35 54.14, 59.75 42.26, 66.31 32.91 M44.73 65.88 C50.49 56.74, 58.21 46.5, 67.69 38.21 M43.82 65.58 C51.78 56.04, 60.47 46.61, 66.62 38.93 M50.45 65.78 C56.58 60.2, 60.93 50.37, 66.76 44.07 M49.98 65.32 C53.7 59.78, 59.86 52.69, 67.17 45.09 M55.59 66 C57.74 62.89, 61.65 59.55, 68.13 53.04 M54.08 66.53 C56.55 62.61, 60.64 58.57, 66.69 50.39 M60.14 65.44 C61.18 63.57, 63.97 60.63, 67.95 57.22 M59.85 64.91 C61.6 63.45, 63.1 61.99, 67.39 57.02" stroke="#868e96" stroke-width="0.5" fill="none"></path><path d="M-1.02 1.25 C26.08 0.42, 50.33 1.46, 62.58 -0.72 M0.89 0.19 C18.92 0.64, 36.45 -0.34, 64.29 0.52 M62.68 -1.78 C63.65 13.94, 64.48 29.56, 64.02 62.92 M64.68 0.1 C64.17 20.03, 65.22 38.33, 64.42 64.87 M65.44 63.88 C50.14 64.95, 36.26 64.94, -1.02 65.45 M64.47 64.88 C50.53 63.53, 37.37 64.92, -0.29 64.69 M1.07 65.26 C0.61 47.97, -2.31 36.06, -1.94 -0.08 M0.16 63.61 C0.7 44.18, 0.08 23.37, -0.8 -0.69" stroke="#000000" stroke-width="1" fill="none"></path></g><g stroke-opacity="0.5" fill-opacity="0.5" stroke-linecap="round" transform="translate(689.2970304549272 113.40909090909213) rotate(0 32 32)"><path d="M0 0 C0 0, 0 0, 0 0 M0 0 C0 0, 0 0, 0 0 M-0.9 6.32 C0.48 4.97, 2.34 3.3, 4.71 0.64 M-0.38 6.25 C1.27 4.43, 2.33 2.86, 4.68 0.46 M-0.78 13.11 C5.3 8.05, 6.78 2.66, 9.32 -0.59 M-0.4 12.6 C3.74 7.69, 7.91 3.11, 9.85 0.04 M0.7 19.67 C2.33 14.85, 8.42 8.61, 17.62 -0.11 M0.16 18.66 C5.85 13.29, 9.09 5.82, 14.95 1.31 M-0.65 25.1 C6.63 19.84, 12.61 10.82, 21.71 0.21 M0.44 23.2 C5.78 17.41, 12.72 10.14, 21.03 0.7 M1.95 31.15 C8.59 17.43, 16.76 7.52, 24.38 1.32 M-0.57 31.24 C10.4 19.41, 19.98 6.58, 27.15 0.36 M0.15 37.31 C9.66 26.14, 22.22 11.09, 32.76 1.87 M-1.06 36.42 C9.64 25.83, 19.76 15, 31.08 -0.22 M-0.49 43.16 C10.71 31.08, 22.65 19.5, 37.93 1.91 M0.44 43.04 C13.84 25.79, 28.17 10.1, 37.77 0.44 M-1.32 48.42 C10.42 40.3, 18.78 29.78, 43.37 0.69 M-1.07 48.87 C13.03 33.99, 24.51 21.51, 43.46 -0.62 M1.22 55.52 C11.35 40.46, 26.18 22.15, 48.86 0.48 M0.52 55.49 C9.33 43.35, 18.8 30.92, 48.4 -0.18 M-0.5 61.39 C14.58 44.87, 27.65 26.65, 54.98 0.37 M-0.98 60.89 C16.64 42.06, 33.06 24.53, 52.95 0.71 M0.46 65.79 C16.84 48.37, 30.86 32.86, 58.96 0.12 M1.46 65.57 C18.94 44.21, 36.26 24.07, 58.28 -0.62 M5.58 67.13 C21.68 47.66, 40.97 30.06, 63.23 -2.08 M6.71 65.12 C25.6 44.3, 43.77 21.83, 64.48 -0.92 M11.38 65.3 C26.08 47.63, 42.87 32.16, 65.27 0.5 M11.76 64.86 C26.82 48.01, 43.38 30.29, 67.3 1.89 M15.93 65.44 C35.63 46.14, 53.76 24.86, 68.12 10.66 M16.91 66.39 C29.1 53.61, 38.72 39.26, 66.24 7.97 M23.29 64.26 C33.99 52.6, 45.04 38.14, 67.47 14.82 M23.96 65.66 C36.29 50.14, 48.68 34.51, 66.43 13.97 M27.48 65.88 C37.43 58.34, 44.8 48.54, 65.01 22.12 M28.9 65.63 C42.53 48.28, 58.33 31.06, 65.7 19.87 M32.91 63.6 C47.47 51.88, 57.77 36.29, 65.53 25.22 M33.99 65.81 C41.85 54.04, 52.52 45.04, 66.35 26.54 M38.3 63.77 C46.63 58.58, 51.95 49.02, 66.81 34.12 M38.51 64.87 C47.24 56.77, 55.18 46.22, 66.82 33.39 M45.16 63.54 C52.81 54.43, 59.36 48.08, 65.46 40.69 M44.86 64.26 C51.62 56.99, 58.45 49.53, 66.18 39.66 M49.69 66.72 C56.44 58.68, 58.97 52.4, 66.07 44.77 M49.23 64.75 C55.97 58.3, 61.17 50.8, 67.09 44.29 M54.54 66.29 C58.74 62.64, 62.71 57.97, 68.38 50.28 M55.06 64.87 C57.5 62.64, 59.82 59.14, 65.73 50.79 M60.02 64.91 C62.81 62.87, 64.54 60.03, 67.32 56.15 M59.49 65.4 C61.99 62.86, 64.5 60.77, 67.11 57.23" stroke="#868e96" stroke-width="0.5" fill="none"></path><path d="M1.25 1.75 C14.51 2.01, 29.82 -1.09, 63.28 -0.36 M0.19 0.88 C19.28 -0.22, 36.99 -0.28, 64.52 -0.64 M62.22 -0.73 C63 23.17, 63.48 46.17, 62.92 64.08 M64.1 -0.4 C65.19 25.53, 64.03 50.16, 64.87 63.31 M63.88 64.91 C41.69 66.28, 18.96 63.44, 1.45 62.22 M64.88 64.03 C49.8 64.67, 37.7 64.01, 0.69 63.21 M1.26 65.13 C-1.42 37.76, 0.79 13.16, -0.08 0.21 M-0.39 64.78 C-0.09 44.19, -1.04 23.26, -0.69 -0.15" stroke="#000000" stroke-width="1" fill="none"></path></g><g stroke-opacity="0.5" fill-opacity="0.5" stroke-linecap="round" transform="translate(753.2970304549272 113.40909090909213) rotate(0 32 32)"><path d="M0 0 C0 0, 0 0, 0 0 M0 0 C0 0, 0 0, 0 0 M-0.34 5.82 C1.78 4.17, 3.57 1.75, 5.27 0.23 M-0.41 6.44 C1 4.27, 2.66 2.6, 5.09 0.56 M1.2 13.52 C3.34 7.95, 5.16 3.92, 10.08 0.85 M0.7 11.83 C2.43 9.61, 4.51 5.89, 10.7 -0.49 M1.1 16.95 C4.41 14.84, 6.32 11.77, 15.18 0.89 M0.1 19.4 C6.7 10.5, 11.19 3.87, 16.6 -0.18 M1.28 25.23 C8.56 18.6, 12.06 9.69, 21.54 0.05 M-0.61 23.31 C8.45 15.22, 16.01 6.68, 22.03 0.52 M0.67 29.88 C7.76 16.87, 18.69 5.34, 27.28 1.91 M0.76 31.01 C9.47 20.31, 17.22 10.68, 26.32 0.61 M0.18 36.09 C10.71 27.1, 17.33 16.05, 33.86 -0.23 M-0.71 37.18 C7.85 28.57, 16.18 17.21, 31.77 -0.21 M0.78 42.47 C11.9 31.3, 23.5 18.49, 38.53 2.05 M0.66 41.86 C10.55 29.51, 21.98 18.82, 37.06 -0.73 M-0.62 50.53 C10.88 39.31, 20.01 27.53, 43.34 -0.48 M-0.17 49.6 C8.04 38.77, 18.68 29.01, 42.04 -0.32 M1.23 52.62 C18.06 34.82, 31.65 17.47, 47.76 -1.54 M1.2 54.11 C18.96 32.26, 36.46 12.96, 47.11 -0.03 M0.44 61.09 C18.06 39.78, 33.96 23.08, 53.69 -0.17 M-0.06 61.18 C11.27 48.53, 23.95 33.96, 54.04 -0.69 M2.41 65.97 C16.08 49.06, 31.7 31.75, 58.07 0.5 M2.19 65.06 C23.01 39.73, 45.07 15.38, 57.33 0.03 M8.38 64.2 C24.67 47.95, 42.8 25.92, 61.91 0.41 M6.37 65.39 C23.73 45.81, 39.38 28.41, 63.07 -0.54 M12.59 63.81 C23.9 52.19, 37.44 35.5, 64.88 2.03 M12.15 64.12 C27.97 48.29, 42.96 31.04, 66.27 3.17 M17.35 65.11 C33.01 49.4, 46.64 35.93, 68.39 7.28 M18.3 66.39 C34.4 46.52, 48.95 27.89, 65.69 8.57 M22.21 64.3 C41.04 44.07, 57.13 27.32, 67.3 14.41 M23.61 64.93 C33.47 51.88, 43.25 40.25, 66.44 13.54 M28.46 66.77 C41.85 52.82, 52.93 37.14, 67.94 22.56 M28.21 64.99 C39.28 52.59, 50.44 38.22, 65.68 21.67 M32.22 66.22 C46.14 51.28, 56.17 38.35, 65.79 25.86 M34.42 64.23 C42.59 54.68, 53.57 41.9, 67.11 26.07 M37.01 65.85 C46.25 56.97, 51.11 51.44, 68.03 32.64 M38.12 65.62 C45.41 58.48, 50.27 51.38, 67.3 33.4 M42.82 65.58 C48.13 57.94, 56.22 51.23, 67.94 39.37 M43.54 65.38 C49.28 59.32, 54.81 52.5, 66.91 39.39 M50.63 67.21 C55.71 56.36, 62.57 48.7, 66.77 46.11 M48.66 65.86 C56.09 57.11, 62.5 50.29, 66.29 45.1 M54.83 66.34 C60.14 61.25, 64.44 57.15, 65.62 49.99 M53.4 66.14 C58.53 60.82, 62.39 55.26, 66.13 51.98 M59.49 65.65 C63.25 61.54, 66.22 59.18, 66.24 56.88 M59.97 65.34 C62.29 62.99, 65.06 59.74, 67.32 56.84" stroke="#868e96" stroke-width="0.5" fill="none"></path><path d="M1.75 0.25 C19.14 0.89, 33.5 -1.11, 63.64 -0.16 M0.88 0.58 C19.02 -0.52, 37.61 0.4, 63.36 0.61 M63.27 -1.2 C63.67 20.4, 63.6 41.14, 64.08 65.77 M63.6 0.58 C65.09 24.74, 64.86 51.51, 63.31 64.55 M64.91 64.41 C41.24 64.36, 13.82 65.41, -1.78 62.21 M64.03 63.28 C42.69 65.23, 20.34 65.26, -0.79 64.82 M1.13 62.08 C-2.13 50.04, -2.28 35.41, 0.21 0.24 M0.78 64.05 C0.06 42.48, -0.9 22.06, -0.15 0.43" stroke="#000000" stroke-width="1" fill="none"></path></g><g transform="translate(726.2970304549272 68.90909090909213) rotate(0 27 12.5)"><text x="27" y="18" font-family="Virgil, Segoe UI Emoji" font-size="20px" fill="#5c940d" text-anchor="middle" style="white-space: pre;" direction="ltr">29</text></g><g transform="translate(694.2970304549272 132.90909090909213) rotate(0 27 12.5)"><text x="27" y="18" font-family="Virgil, Segoe UI Emoji" font-size="20px" fill="#5c940d" text-anchor="middle" style="white-space: pre;" direction="ltr">23</text></g><g transform="translate(758.2970304549272 132.90909090909213) rotate(0 27 12.5)"><text x="27" y="18" font-family="Virgil, Segoe UI Emoji" font-size="20px" fill="#5c940d" text-anchor="middle" style="white-space: pre;" direction="ltr">24</text></g><g stroke-linecap="round"><g transform="translate(569.2735152274636 125.95454545454595) rotate(0 35.811209628571305 0.7365727619782092)"><path d="M0.44 -0.16 C16.05 -0.03, 32.52 0.48, 72.1 2.45 M-0.52 -0.97 C19.35 -0.65, 39.29 0.79, 72.14 1.48" stroke="#c92a2a" stroke-width="1" fill="none"></path></g><g transform="translate(569.2735152274636 125.95454545454595) rotate(0 35.811209628571305 0.7365727619782092)"><path d="M74.08 2.14 L57.77 5.46 L56.89 -6.29 L70.27 2.51" stroke="none" stroke-width="0" fill="#c92a2a" fill-rule="evenodd"></path><path d="M72.47 1.35 C69.21 2.16, 66.61 3.74, 58.22 8.75 M71.75 0.75 C68.27 2.52, 64.88 5.07, 58.25 8.03 M58.62 6.85 C57.7 3.29, 58.02 1.95, 57.79 -4.5 M58.37 7.59 C58.14 3.84, 58.51 1.14, 58.34 -4.86 M59.42 -4.68 C62.67 -1.36, 67.6 -0.14, 73.38 1 M59.3 -5.98 C62.57 -3.67, 68.3 -1.34, 72.21 0.9 M72.14 1.48 C72.14 1.48, 72.14 1.48, 72.14 1.48 M72.14 1.48 C72.14 1.48, 72.14 1.48, 72.14 1.48" stroke="#c92a2a" stroke-width="1" fill="none"></path></g></g><g stroke-linecap="round"><g transform="translate(732.5392838156004 132.68665983139704) rotate(0 20.87101653790137 -15.257147726064034)"><path d="M-1.87 -1.56 C4.56 -7.37, 8.73 -16.13, 21.44 -33.56 M0.61 0.71 C7.77 -11.57, 13.61 -21.17, 20.7 -32.99 M21.68 -32.51 C28.18 -21.3, 35.44 -6.95, 42.61 1.19 M20.9 -33.38 C30.14 -18.59, 38.35 -5.9, 43.61 1.4 M42.68 2.79 C32.89 2.23, 24.23 0.53, 4.49 1.41 M43.05 3.04 C36.38 2.58, 26.98 2.94, 2.01 1.71" stroke="#c92a2a" stroke-width="1" fill="none"></path></g></g></svg>