<svg version="1.1" xmlns="http://www.w3.org/2000/svg" viewBox="0 0 340 340" width="340" height="340">
  <!-- svg-source:excalidraw -->
  
  <defs>
    <style>
      @font-face {
        font-family: "Virgil";
        src: url("https://excalidraw.com/Virgil.woff2");
      }
      @font-face {
        font-family: "Cascadia";
        src: url("https://excalidraw.com/Cascadia.woff2");
      }
    </style>
  </defs>
  <rect x="0" y="0" width="340" height="340" fill="#ffffff"></rect><g stroke-opacity="0.5" fill-opacity="0.5" stroke-linecap="round" transform="translate(138 10) rotate(0 32 32)"><path d="M0 0 C0 0, 0 0, 0 0 M0 0 C0 0, 0 0, 0 0 M0.23 6.7 C1.91 4.1, 2.93 1.23, 4.34 -0.24 M0.05 6.44 C1.52 4.05, 3.62 2.08, 5.2 0.37 M-0.15 11.8 C3.84 6.97, 7.78 2.18, 11.58 1.56 M0.92 11.6 C4.6 8.06, 8.4 3.48, 10.84 -0.75 M1.3 19.81 C3.28 12.76, 8.16 9.71, 15.56 0.91 M-0.24 19.27 C5.53 12.02, 11.99 5.84, 16.19 1.06 M2.2 24.37 C9.36 15.86, 17.68 5.56, 21.37 -1.59 M0.82 24.52 C8.98 14.69, 16.79 5.75, 21.78 -0.13 M-0.7 31.22 C6.47 23.48, 9.75 18.89, 24.47 -1.38 M-0.19 29.63 C10.27 19.53, 18.26 10.21, 26.53 0.92 M-2.03 38.84 C11.03 25.19, 21.46 13.04, 31.61 0.33 M-0.4 37.34 C12.45 24.23, 23.34 10.55, 31.65 0.36 M-0.01 43.83 C8.16 35.23, 13.48 24.72, 35.63 0.17 M1.04 41.88 C10.95 31.14, 19.81 18.15, 37.07 1.03 M1.35 48.42 C14.99 29.72, 34.54 9.93, 42.5 1.76 M0.6 49.18 C16.36 29.42, 32.25 11.24, 43.23 -0.7 M-1.31 54.29 C14.06 36.17, 32.65 19.82, 45.89 -1.05 M-0.5 54.44 C9.32 43.08, 19.52 32.26, 47.46 1.05 M-0.12 61.88 C16.42 39.31, 34.49 17.71, 54.26 0.94 M0.12 60.15 C10.17 46.76, 21.89 34.58, 53.83 0.55 M0.33 65.97 C20.73 45.74, 35.4 22.42, 57.37 -0.44 M1.12 65.38 C23.63 39.44, 45.3 14.45, 57.45 0.33 M5.62 66.92 C20.59 51.87, 33.15 36.93, 65.4 -1.66 M5.78 65.74 C24.89 43.75, 43.87 21.81, 64.38 0.14 M10.66 64.89 C33.2 44.62, 52.14 19.96, 65.5 2.09 M12.01 65.33 C25.37 50.6, 36.52 38.16, 65.93 3.08 M16.74 66.99 C37.61 40.78, 54.03 21.18, 66.85 7.7 M17.14 64.6 C34.01 44.97, 52.24 25.83, 66.54 8.28 M22.66 64.93 C36.92 46.76, 50.84 33.4, 66.4 15.13 M23.85 65.72 C34.05 51.23, 46 37.41, 67.3 14.47 M27.33 66.3 C38.74 49.99, 53.37 38.21, 64.91 21.89 M28.52 64.57 C40.88 50.25, 54.27 35.01, 66.71 20.25 M32.78 63.63 C45.23 54.53, 56.05 41.52, 66.57 27.14 M33.08 65.54 C40.98 54.61, 49.81 46.38, 66.16 26.93 M38.75 65.73 C46.56 58.51, 50.58 48.81, 67.58 33 M39.33 65.57 C49 53.28, 60.91 40.8, 67.27 33.46 M45.75 66.73 C52.25 57.71, 59.13 45.68, 64.59 40.36 M44.79 64.92 C51.62 57.15, 59 48.85, 66.06 39.09 M49.62 65.39 C56.98 58.86, 61.08 49.9, 66.49 46.38 M49.06 65.18 C56.21 58.13, 62.56 48.76, 67.59 44.5 M55.84 66.89 C57.98 62.98, 58.85 59.11, 68.21 51.93 M54.95 64.92 C58.08 62.87, 60.02 58.72, 67.55 51.96 M60.94 66.01 C63.01 62.09, 64.97 59.69, 66.23 56.22 M60.11 65.47 C61.48 63.34, 62.74 62.16, 67.39 57.04" stroke="#868e96" stroke-width="0.5" fill="none"></path><path d="M-1.22 0.71 C23.67 1.54, 51.37 -1.5, 63.35 -1.62 M-0.17 -0.01 C25.77 0.72, 49.21 0.85, 64.5 -0.47 M65 1.16 C64.53 22.47, 62.25 42.15, 63.51 62.76 M63.26 -0.99 C64.73 17.35, 65.12 32.59, 64.95 63.22 M65.8 64.65 C50.57 64.61, 36.34 61.55, -0.94 62.42 M63.19 64.85 C46.87 63.44, 30.49 63.99, 0.94 63.29 M1.9 64.68 C1.76 42.1, -2.05 18.7, 1.23 -0.86 M0.62 63.83 C-1 46.88, -1.15 27.27, -0.23 -0.89" stroke="#000000" stroke-width="1" fill="none"></path></g><g stroke-opacity="0.5" fill-opacity="0.5" stroke-linecap="round" transform="translate(106 74) rotate(0 32 32)"><path d="M0 0 C0 0, 0 0, 0 0 M0 0 C0 0, 0 0, 0 0 M0.04 6.68 C1.44 3.68, 2.58 1.57, 4.39 0.97 M-0.22 6.24 C1.57 4.14, 3.77 2.18, 5 0.59 M-0.11 12.1 C3.41 7.65, 6.98 3.7, 12.22 1.24 M-0.31 12.49 C3.66 8.86, 6.57 5.45, 9.92 -0.25 M1.24 17.71 C5.37 11.02, 13.5 3.94, 16.2 1.45 M0.7 18.43 C4.06 14.5, 8.5 9.46, 16.35 1.2 M0.55 24.81 C5.68 19.85, 9.03 14.12, 19.73 1.5 M0.7 25.01 C7.69 15.95, 15.54 6.86, 21.2 -0.99 M0.75 31.53 C7.39 20.11, 17.19 10.09, 24.57 1.18 M-0.84 31.47 C5.24 23.82, 12.1 17.51, 26.88 0.6 M1.7 37.77 C12.09 24.26, 23.99 9.72, 32.32 1.29 M0.21 37.82 C11.47 24.6, 22.12 12.14, 32.36 -1.03 M1.45 43.26 C15.51 24.96, 27.7 9.24, 36.79 -0.21 M-0.5 42.84 C8.5 31.9, 15.28 23.78, 37.65 1.21 M-0.62 47.61 C16.61 31, 32.73 10.57, 44.42 1.56 M0.14 48.91 C11.4 34.15, 24.21 21.45, 41.95 0.09 M0 52.9 C11.78 42.4, 25.34 24.89, 46.23 -1.71 M0.15 54.35 C16.89 35.68, 34.19 15.6, 48.34 0.7 M0.93 59.47 C20.4 35.16, 40.86 14.19, 54.26 -1.79 M-0.8 60.02 C19.71 36.36, 41.49 14.21, 53.87 -0.03 M2.59 66.22 C18.43 45.48, 31.23 28.6, 57.51 1.97 M2 65.41 C21.25 42.5, 41.48 18.8, 58.28 -0.64 M8.17 66.46 C20 52.38, 31.95 38.26, 62.33 0.41 M6.99 65.21 C27.75 41.59, 48.62 18.08, 64.12 0.34 M12.18 66.72 C31.26 47.09, 45.94 24.76, 66.47 0.67 M12.62 65.99 C22.98 52.13, 35.7 37.11, 67.47 3.35 M18.9 66.54 C31.23 44.95, 50.23 28.25, 65.42 9.69 M16.52 64.71 C27 53.8, 38.04 40.86, 66.01 9.06 M22.89 64.79 C35.2 48.26, 52.39 32.06, 67.61 13.79 M23.68 64.81 C39.54 45.27, 56.05 26.22, 66.95 14.73 M28.88 63.49 C38.5 52.55, 52.6 37.68, 67.7 21.76 M27.15 64.86 C39.11 52.11, 50.15 40.08, 66.07 21.05 M32.25 65.57 C42.57 57.69, 48.94 48.36, 67.71 25.65 M34.16 64.11 C46.36 49.32, 61.23 33.94, 67.49 25.79 M38.97 66.8 C47.29 55.03, 53.12 47.51, 66.91 34.62 M38.81 65.1 C49.54 53.83, 60.09 41.46, 67.37 33.33 M46.01 65.46 C53.92 55.2, 58.8 44.21, 67.61 39.43 M44.2 65.24 C48.82 60.48, 52.9 54, 66.34 40.03 M49.3 66.27 C54.14 59.42, 56.52 56.24, 68.38 46.57 M49.09 65.45 C54.4 59.79, 57.39 55.45, 66.5 44.06 M55.42 66.82 C58.52 60.39, 61.65 58, 67.27 50.36 M53.45 66.4 C58.37 61.25, 61.16 58.68, 67.3 52.22 M60.58 65.66 C62.66 61.59, 66.25 58.11, 66.31 56.01 M60.04 65.44 C62.37 62.03, 65.65 59.35, 67.14 56.71" stroke="#868e96" stroke-width="0.5" fill="none"></path><path d="M0.71 -1.54 C25.48 1.35, 46.46 -0.26, 62.38 1.83 M-0.01 0.71 C16.97 -0.79, 33.3 0.61, 63.53 0.3 M65.16 0.73 C65.38 15.68, 63.96 33.98, 62.76 63.23 M63.01 0.49 C65 22.45, 63.5 44.08, 63.22 63.15 M64.65 64.35 C39.59 64.48, 10.99 63.63, -1.58 63.14 M64.85 63.32 C48.86 62.87, 35.05 64.42, -0.71 64.57 M0.68 65.91 C0.82 41.45, 0.25 23.93, -0.86 -0.4 M-0.17 63.28 C0.33 41.16, -1.35 19.82, -0.89 -0.05" stroke="#000000" stroke-width="1" fill="none"></path></g><g stroke-opacity="0.5" fill-opacity="0.5" stroke-linecap="round" transform="translate(170 74) rotate(0 32 32)"><path d="M0 0 C0 0, 0 0, 0 0 M0 0 C0 0, 0 0, 0 0 M0.02 6.35 C1.04 3.41, 2.97 1.27, 5.59 0.87 M-0.42 6.34 C1.39 4.64, 3.35 2.45, 5.22 0.7 M0.19 11.37 C4.38 6.33, 9.07 4.49, 11.9 -0.4 M0.58 12.58 C2.79 9.75, 5.24 5.61, 10.42 0.73 M-0.85 17.68 C4.07 14.33, 8.64 8.62, 16.74 -0.39 M-0.14 18.48 C5.6 13.02, 10.22 7.81, 16.49 -0.63 M0.99 25.26 C7.69 16.53, 13.64 7, 22.83 1.23 M1.19 23.68 C5.72 18.27, 10.23 12.91, 20.33 0.03 M1.05 29.83 C7.77 21.33, 15.87 8.54, 27.13 -1.3 M0.99 29.87 C7.33 22.74, 14.99 14.48, 26.56 0.96 M0.64 37.54 C11.52 24.94, 21.33 12.22, 33.28 0.53 M0.68 37.7 C7.37 28.77, 14.8 19.66, 30.96 0.69 M0.88 44.24 C12.05 26.79, 25.8 11.28, 36.41 -1.34 M0.45 43.03 C11.81 26.95, 26.04 13.52, 37.83 1.13 M-1.43 48.91 C11.83 36.06, 21.32 25.82, 44.22 -0.46 M-0.13 48.11 C9.89 36.17, 22.03 23.17, 42.75 -0.52 M-1.39 53.62 C15.74 39.51, 25.8 22.62, 45.57 1.45 M0.06 54.22 C16.28 37.02, 31.04 20.49, 47.98 1.14 M-1.48 60.71 C15.74 39.89, 36.3 21.4, 51.53 1.58 M-0.93 60.61 C19.66 38.56, 41.77 14.77, 53.3 -0.39 M2.84 66.43 C19.97 40.56, 40.9 18.78, 59.92 1.27 M2.03 64.84 C20.61 43.69, 38.36 22.58, 57.31 -0.59 M7.71 66.2 C26.34 44.26, 44.88 21.94, 64.4 1.18 M6.46 65.75 C27.12 42.42, 47.81 19.72, 64.32 -0.06 M14 66.78 C30.14 45.99, 43.5 28.05, 65.05 0.77 M13.28 64.37 C34 41.02, 53.53 17.44, 67.73 2.74 M18.46 63.43 C34.58 43.97, 55.58 20.47, 67.41 7.17 M16.63 64.79 C36.49 44.31, 54.31 22.88, 66.79 9.03 M22.75 63.62 C39.99 46.55, 57.57 25.41, 66.26 16.13 M22.76 64.57 C34.36 50.33, 46.51 37.57, 67.2 14.39 M26.07 64.19 C36.32 57.42, 42.63 47.51, 67.57 20.5 M27.44 65.65 C39.15 52.37, 51.6 37.66, 66.87 19.97 M34.19 66.55 C41.63 57.84, 47.59 49.38, 66.22 28.38 M32.72 64.26 C40.52 57.27, 47.68 48.24, 66.36 26.36 M40.04 65.92 C45.67 54.3, 55.54 46.76, 68.52 34.34 M38.34 65.83 C47.87 55.76, 56.31 45.74, 67.24 33.52 M44.74 66.41 C49.29 56.65, 53.15 53.09, 66.68 37.33 M44.52 64.9 C50.39 58.19, 54.55 52.18, 67.28 38.4 M50.18 66.32 C51.43 60.58, 56.37 57.96, 68.57 44.12 M49.36 66.01 C55.25 57.23, 62.45 50.48, 66.06 45.11 M55.35 65.98 C56.82 61.21, 62.35 58.46, 65.7 50.78 M54.93 66.33 C56.28 62.83, 60.22 60.36, 67.56 52.07 M60.23 65.29 C60.79 64.38, 61.94 61.01, 66.1 57.8 M60.01 65.12 C62.07 62.95, 64.87 59.87, 66.8 56.88" stroke="#868e96" stroke-width="0.5" fill="none"></path><path d="M-1.54 1.46 C19.29 -1.81, 36.01 -1.85, 65.83 -0.94 M0.71 0.76 C18.72 0.9, 39.74 -0.47, 64.3 -0.31 M64.73 1.38 C62.76 19.19, 63.83 37.22, 63.23 64.74 M64.49 0.6 C64.42 22.3, 64.48 45.62, 63.15 64.99 M64.35 65.12 C49.82 62.27, 34.89 62.63, -0.86 62.49 M63.32 63.23 C42.1 64.33, 22.36 63.84, 0.57 64.23 M1.91 64.94 C-2.51 43.97, 0.62 22.33, -0.4 0.87 M-0.72 64.81 C-1.27 39.1, -0.62 15.04, -0.05 0.12" stroke="#000000" stroke-width="1" fill="none"></path></g><g stroke-opacity="0.5" fill-opacity="0.5" stroke-linecap="round" transform="translate(74 138) rotate(0 32 32)"><path d="M0 0 C0 0, 0 0, 0 0 M0 0 C0 0, 0 0, 0 0 M-0.31 5.78 C0.9 3.55, 2.91 2.62, 5.5 0.58 M-0.32 6.37 C1.94 4.36, 3.7 2.1, 5.33 0.68 M-0.54 12.28 C1.97 9.58, 7.68 6.49, 10.27 -1.01 M0.68 12.31 C4.92 7.39, 7.84 2.16, 11.39 -0.16 M-0.89 18.29 C6.74 11.71, 12.03 6.16, 14.9 0.52 M-0.08 19.27 C4.6 13.77, 9.56 8.84, 14.66 0.54 M1.45 24.99 C8.8 14.53, 15.36 6.41, 22.56 -1.51 M-0.14 24.88 C7.41 15.82, 15.02 5.8, 21.36 0.27 M-0.64 29.37 C7.87 20.57, 12.12 15.25, 24.65 -0.13 M-0.6 30.42 C8.08 22.05, 15.59 13.62, 26.92 0.64 M0.41 37.56 C6.95 28.63, 13.41 22.48, 32.53 -1.36 M0.57 36.83 C9.55 25.79, 18.38 14.55, 32.68 0.55 M1.85 40.96 C10.57 28.78, 21.27 17.19, 35.28 1.36 M0.65 41.53 C13.96 26.1, 29.87 10.35, 37.75 -0.18 M-0.13 50.32 C15.52 30.85, 33.76 14.25, 42.2 -1.03 M-0.93 48.39 C15.51 31.38, 30.92 12.65, 42.14 -0.31 M-0.67 56.24 C11.05 41.32, 19.96 28.98, 48.74 0.66 M-0.07 54.95 C10.74 42.51, 22.21 30.93, 48.43 0.53 M-0.24 59.08 C14.71 44.52, 32.03 23.85, 54.9 1.57 M-0.34 60.11 C17.87 43.13, 34.27 23.59, 52.93 0.33 M3.06 63.15 C12.89 49.03, 26.84 36.6, 59.22 0.73 M1.46 65.13 C15.08 48.65, 28.76 32.92, 57.36 0.36 M7.45 66.63 C20.31 50.63, 32.86 33.47, 65.17 0.79 M7 65.31 C18.47 52.53, 30.6 38.82, 63.93 -0.28 M14.07 66.36 C23.39 49.8, 35.56 35.83, 65.15 4.1 M11.66 65.58 C26.87 46.99, 41.86 32.1, 67.12 3.26 M15.35 63.62 C30.84 50.16, 42.36 35.44, 64.89 10.31 M16.71 66.03 C31.28 49.9, 44.85 34.28, 66.75 9.8 M21.57 64.44 C37.16 50.17, 48.66 35.66, 68.6 13.83 M22.52 65.04 C38.83 45.91, 56.66 26.25, 66.86 13.56 M26.77 65.46 C39.73 52.04, 49.57 42.75, 66.31 21.02 M28.23 64.89 C42.49 49.78, 55.27 34.09, 65.78 20 M35.17 65.69 C43.39 54.43, 51.83 44.12, 68.94 24.91 M32.87 64.31 C42.64 54.85, 50.39 45.51, 66.93 26.37 M39.17 64.35 C45.54 55.93, 56.01 46.87, 68.25 33.09 M39.08 66.12 C49.59 53.76, 60.17 41.61, 67.43 32.38 M45.7 64.68 C50.64 53.3, 61.84 45.75, 64.58 38.2 M44.18 65.78 C51.69 55.29, 59.9 47.39, 65.65 38.45 M50.23 63.74 C54.54 58.26, 61.99 53.84, 66.12 46.01 M49.92 65.04 C53.38 60.17, 58.86 52.86, 67.11 44.63 M54.52 65.04 C58.41 61.61, 64.33 53.57, 66.12 49.63 M54.87 65.24 C59.11 61.04, 64.37 55.63, 67.41 50.47 M59.86 64.79 C63.55 61.1, 64.8 57.67, 67.89 57.29 M59.69 65.17 C62.74 62.7, 64.89 59.24, 66.97 56.48" stroke="#868e96" stroke-width="0.5" fill="none"></path><path d="M1.46 0.96 C13.71 -0.16, 28.96 2.32, 63.06 0.13 M0.76 -0.9 C19.02 0.05, 35.79 -0.16, 63.69 0 M65.38 -1.56 C64.33 21.91, 63.13 44.03, 64.74 65.25 M64.6 0.89 C62.46 15.44, 62.59 28.13, 64.99 63.2 M65.12 63.9 C37.09 63.17, 12.49 63.25, -1.51 64.65 M63.23 63.39 C49.77 64.51, 35.27 64.13, 0.23 64.19 M0.94 62.1 C0.15 39.93, -1.08 13.01, 0.87 1.51 M0.81 63.13 C-0.75 40.59, -0.78 17.58, 0.12 0.83" stroke="#000000" stroke-width="1" fill="none"></path></g><g stroke-opacity="0.5" fill-opacity="0.5" stroke-linecap="round" transform="translate(138 138) rotate(0 32 32)"><path d="M0 0 C0 0, 0 0, 0 0 M0 0 C0 0, 0 0, 0 0 M-0.88 5.68 C0.84 3.76, 3.87 2.84, 5.21 0.97 M-0.29 6.63 C1.61 4.54, 3.25 3, 5.3 0.29 M0.37 10.89 C4.07 10.24, 7.38 4.85, 9.65 1.53 M0.4 12.58 C2.84 8.3, 4.99 6.83, 10.5 0.54 M-0.27 19.58 C5.68 12.41, 12.66 4.44, 15.82 0.11 M0.7 18.76 C6.47 12.23, 12.8 3.61, 15.83 1.29 M1.17 24.32 C6.89 14.84, 14.95 10.07, 19.82 1.04 M1.06 23.87 C7.77 15.81, 13.54 7.67, 21.6 -0.42 M-1.11 31.51 C6.91 18.72, 18.42 8.62, 25.83 -0.11 M-0.05 30.95 C5.63 24.77, 11.31 18.32, 26.6 -0.59 M0.42 37.64 C12.09 22.49, 26.55 7.98, 30.63 -0.4 M-0.31 37.69 C10.29 24.27, 20.73 11.79, 32.55 -0.18 M-1.42 42.48 C12.17 26.67, 26.37 9.71, 37.98 2.07 M-0.85 41.72 C8.88 33.12, 18.31 23.24, 36.44 0.99 M1.28 48.51 C11.9 37.33, 25.34 21.63, 41.63 1.3 M-0.65 48.81 C14.49 32.71, 27.9 16.91, 42.35 -0.93 M1.95 54.82 C12.65 37.94, 25.86 24.87, 47.94 -1.32 M0.66 54.45 C13.96 39.89, 28.1 24.3, 47.81 0.16 M-1.87 60.35 C19.97 40.98, 35.63 20.45, 54.89 0.05 M-0.84 61.8 C12.92 48.45, 24.06 34.09, 53.65 -0.86 M-0.22 63.53 C19.98 41.77, 41.91 21.18, 58.68 -1.01 M1.75 65.09 C19.36 44.06, 37.75 21.81, 58.31 -0.35 M7.88 65.5 C29.29 39.29, 49.59 17.62, 64.77 -2.05 M6.56 65.53 C26.21 44.06, 44.91 22.29, 63.71 -1.05 M13.65 64.31 C26.41 46, 41.83 26.42, 68.48 1.75 M12.87 65.24 C28.72 45.59, 48.35 24.73, 67.64 2.12 M15.53 66.08 C35.95 43.37, 55.13 21.42, 68.03 8.42 M17.94 65.11 C28.48 52.84, 39.47 41.22, 67.52 8.66 M22.39 66.69 C35.5 51.06, 48.34 37.12, 66.3 16.2 M23 64.22 C39.72 46.52, 55.89 27.72, 66.04 14.14 M28.04 66.96 C40 51.26, 56.04 34.48, 66.83 21.97 M27.47 65.77 C36.68 54.96, 45.29 44.96, 65.81 20.44 M34.31 65.85 C40.77 56.44, 48.18 48.73, 65.48 25.45 M32.93 65.95 C44.94 51.98, 57.02 37.74, 66.94 26.58 M37.59 63.67 C48.13 55.02, 58.07 46.01, 67 34.37 M39.36 65.88 C48.22 55.33, 57.27 44.95, 66.28 33.65 M43.96 63.21 C50.89 55.88, 61.65 42.87, 65.45 40.4 M45.06 64.48 C50.29 57.16, 58.12 48.87, 65.7 39.49 M47.65 64.98 C54.06 60.48, 61.52 52.03, 68.01 44.61 M48.95 64.42 C54.93 58.92, 58.47 53.68, 66.63 45.8 M53.58 65.16 C60.2 61.04, 62.22 54.67, 64.97 52.82 M53.77 65.74 C57.72 63.06, 60.47 60.01, 65.81 52.27 M59.36 66.15 C61.63 61.48, 64.15 60.01, 67.38 57.49 M59.74 65.7 C62.56 62.59, 64.39 59.65, 66.57 56.72" stroke="#868e96" stroke-width="0.5" fill="none"></path><path d="M0.96 -1.58 C20.81 -2.09, 44.75 -1.4, 64.13 -0.33 M-0.9 0.89 C19.64 -0.96, 38.57 -0.8, 64 0.5 M62.44 -0.04 C63.75 21.68, 63.47 46.58, 65.25 62.53 M64.89 -0.9 C65.27 12.06, 63.47 26.67, 63.2 64.9 M63.9 62.06 C41.77 62.78, 20.57 62.85, 0.65 62.38 M63.39 63.78 C40.28 62.8, 15.25 63.73, 0.19 64.95 M-1.9 64.37 C0.62 41.75, -1 22.09, 1.51 1.25 M-0.87 63.14 C0.24 45, 0.41 27.89, 0.83 -0.13" stroke="#000000" stroke-width="1" fill="none"></path></g><g stroke-opacity="0.5" fill-opacity="0.5" stroke-linecap="round" transform="translate(202 138) rotate(0 32 32)"><path d="M0 0 C0 0, 0 0, 0 0 M0 0 C0 0, 0 0, 0 0 M-0.97 5.75 C0.9 5.02, 3.77 2.61, 5.6 0.44 M-0.03 6.62 C1.13 5.05, 2.84 3.56, 4.92 0.3 M-1.01 12.99 C4.96 9.63, 6.2 3.71, 12.2 -0.92 M0.67 12.25 C3.08 7.49, 8.3 3.27, 11.2 0.51 M1.02 18.39 C4.67 14.8, 7.53 9.09, 15.4 1.98 M0.2 19.01 C5.3 13.77, 8.32 7.7, 16.58 0.47 M0.51 24.19 C5.66 17.43, 15.54 6.31, 22.37 0.8 M0.05 24.6 C8.55 13.51, 16.95 5.29, 20.91 0.3 M1.04 28.7 C7.68 20.87, 17.01 8.93, 25.85 -1.4 M0.47 30.76 C11.28 18.77, 21.79 6.77, 25.36 1.27 M0.51 36.6 C11.14 25.41, 22.43 10.01, 31.6 0.82 M0.55 36.64 C12.57 21.39, 25.57 8.4, 31.82 0.55 M0.1 41.28 C12.07 28.1, 22.93 15.43, 38.69 -1.02 M-0.66 42.71 C12.87 29.82, 25.16 14.42, 37.61 0.01 M-0.53 48.9 C11.79 38.8, 19.58 24.69, 43.96 0.38 M-0.23 49.63 C12.45 34.71, 25.38 19.65, 41.73 -0.27 M0.53 52.95 C9.5 40.44, 22.25 31.02, 45.96 -0.01 M0.16 54.52 C14.44 39.72, 27.68 24.43, 47.44 0.68 M-0.6 62.07 C13.18 46.05, 25.8 35.64, 53.37 -1.78 M0.85 61.64 C11.9 48.95, 21.92 36.71, 52.46 0.26 M0.15 64.33 C20.75 44.29, 42.57 19.93, 56.94 0.76 M1.72 64.41 C20.72 42.73, 38.5 22.22, 57.6 0.92 M6.75 67.07 C24.99 42.74, 47.81 20.13, 61.94 0.36 M6.79 66.05 C22.6 47.96, 38.16 29.23, 62.94 -0.29 M11.59 63.76 C32.32 38.97, 51.85 18.42, 66.13 2.97 M12.53 64.19 C34.87 41.05, 55.96 16.31, 66.5 3.2 M18 65.73 C34.31 46.57, 51.31 27.03, 66.14 7.18 M17.03 65.42 C28.43 52.39, 40.46 40.16, 66.38 8.77 M24.64 64.5 C36.69 49.89, 50.37 35.35, 68.67 15.86 M22.17 65.39 C35.47 51.19, 47.64 35.93, 66.62 14.91 M29.54 63.63 C37.2 57.14, 43.75 47.26, 67.79 19.22 M28.35 65.42 C36.83 54.74, 46.15 42.64, 66.26 20.18 M34.47 64.49 C44.97 51.35, 57.22 37.94, 66.02 27.61 M34.57 64.09 C41.4 56.36, 47.93 48.78, 67.15 26.69 M36.91 66.13 C49.11 55.13, 60.95 41.52, 68.28 33.33 M39.12 65.82 C46.75 56.66, 54.56 46.78, 67.56 33.78 M42.49 63 C52.36 56.78, 56.59 47.21, 67.65 39.22 M43.76 64.47 C51.38 57.07, 58.02 47.06, 66.74 39.33 M48.89 64.86 C56.72 60.01, 60.61 52.37, 66.61 44.67 M48.33 65.97 C54.2 58.1, 60.37 52.28, 67.79 45.58 M53.69 67.21 C59.28 59.58, 62.61 53.68, 68.16 49.82 M54.28 66.55 C59.42 61.23, 64.22 54.08, 67.61 51.97 M60.73 64.44 C61.51 61.57, 65.5 60.07, 67.58 57.35 M60.27 65.6 C62.32 62.3, 64.53 59.33, 66.81 57.34" stroke="#868e96" stroke-width="0.5" fill="none"></path><path d="M-1.58 -0.65 C12.65 1.52, 27.61 -0.18, 63.67 -0.02 M0.89 0.5 C23.3 0.87, 47.23 0.58, 64.5 0.58 M63.96 -0.49 C63.2 20.75, 65.18 44.29, 62.53 62.01 M63.1 0.95 C63.61 21.51, 65.38 43.92, 64.9 64.33 M62.06 63.06 C42.12 63.11, 21.88 64.62, -1.62 65.71 M63.78 64.94 C48.47 64.18, 34.58 63.8, 0.95 64.34 M0.37 65.23 C-1.16 38.31, 0.57 14.92, 1.25 -0.34 M-0.86 63.77 C-1.41 49.37, -0.4 35.66, -0.13 0.3" stroke="#000000" stroke-width="1" fill="none"></path></g><g stroke-opacity="0.5" fill-opacity="0.5" stroke-linecap="round" transform="translate(42 202) rotate(0 32 32)"><path d="M0 0 C0 0, 0 0, 0 0 M0 0 C0 0, 0 0, 0 0 M-0.91 5.8 C1.93 5.18, 3.09 3.51, 5.07 0.05 M-0.04 6.41 C1.47 4.99, 3.05 2.86, 4.93 0.38 M1.09 13.63 C4.1 8.64, 4.56 7.45, 9.74 0.87 M0.34 11.33 C3.74 8.29, 7.69 3.66, 11.18 -0.32 M-0.18 19.02 C5.14 12.88, 8.34 8.64, 17.27 0.3 M0.44 19.17 C5.39 11.91, 9.53 8.32, 15.76 0.69 M0.38 22.56 C9.26 16.68, 13.79 7.82, 22.13 1.78 M0.78 24.02 C4.6 17.96, 11.31 11.24, 21.63 0.46 M-1.77 28.81 C8.08 20.67, 13.81 13.78, 24.55 2.27 M0.28 31.11 C6.61 23.81, 12.93 15.02, 27.23 0.74 M-0.53 37.31 C11.73 25.07, 19.79 11.81, 32.82 1.78 M-0.49 37.34 C11.14 23.26, 25.02 8.24, 32.55 0.27 M-1.11 42.43 C14.17 24.62, 29.92 11.73, 35.6 0.89 M0.33 43.29 C14.4 28.85, 25.9 13.88, 36.63 -0.4 M-0.14 50.82 C14.01 33.99, 24.2 21.05, 43.04 -0.16 M0.59 48.35 C9.71 37.83, 18.65 26.67, 42.39 -0.97 M-1.34 53.29 C9.83 41.98, 24.15 25.45, 47.27 -0.21 M0.23 55.39 C13.1 41.08, 25.49 25.65, 47.97 -0.52 M1.12 62.07 C14.24 45.29, 32.88 26.19, 51.54 -2.05 M0.69 61.68 C14.75 44.1, 29.18 27.44, 53.59 0.39 M0.95 64.46 C24.83 42.79, 44.3 16.7, 58.71 0.82 M1.03 65.23 C16.35 46.49, 32.85 28.91, 58.87 0.69 M8.33 64 C26.19 44.67, 45.83 19.29, 64.35 -0.69 M7.3 65.8 C26.15 43.91, 44.36 21.27, 63.7 0.62 M11.05 64.73 C31.21 39.43, 55.67 16.22, 67.35 4.29 M11.47 65.73 C25.54 50.8, 38.04 35.69, 67.58 2.98 M17.64 64.3 C28.6 52.24, 39.1 42.13, 64.9 7.4 M17.33 64.89 C28.92 52.34, 41.35 38.53, 66.49 8.7 M22.45 65.7 C32.55 54.71, 42.69 43.17, 68.33 14.03 M23.34 65.04 C34.42 52.44, 44.44 39.33, 67.39 13.51 M26.21 66.41 C38.14 54.03, 46.7 44.81, 65.04 19.81 M28 64.78 C41.01 49.81, 52.59 35.75, 65.99 21.15 M33.11 65.63 C45.28 52.16, 57.2 34.68, 68.17 24.74 M32.71 65.42 C40.75 55.81, 48.91 47.3, 67.25 27.22 M39.37 65.45 C49.74 56.37, 57.49 45.73, 67.24 32.39 M39.06 65.92 C48.61 54.52, 57.48 43.35, 67.69 33.15 M42.28 66.02 C52.73 53.61, 59.82 47.11, 66.47 39.87 M43.76 64.75 C51.34 56.61, 56.33 50.14, 66.58 39.77 M48.77 66.76 C57.23 57.38, 62.88 50.73, 66.67 45.21 M49.88 64.88 C54.95 58.11, 62.07 51.27, 67.57 45.54 M55.75 66.27 C57.23 60.62, 60.44 58.12, 65.16 52.78 M55.09 66.3 C59.76 61.11, 62.61 56.02, 67.31 51.66 M59.01 64.52 C61.1 63.54, 64.54 60.73, 67.45 57.3 M60.17 65.35 C61.56 62.88, 63.28 60.48, 67.44 56.88" stroke="#868e96" stroke-width="0.5" fill="none"></path><path d="M-0.65 -1.62 C25.69 -0.43, 47.86 0.17, 63.98 1.43 M0.5 -0.47 C24.38 -0.88, 48.18 -0.07, 64.58 0.36 M63.51 -1.24 C62.74 24.34, 64.75 45.74, 62.01 64.99 M64.95 -0.78 C63.72 24.05, 63.77 47.03, 64.33 64.17 M63.06 62.42 C40.34 61.87, 19.06 61.76, 1.71 62.63 M64.94 63.29 C50.3 64.09, 35.64 64.81, 0.34 64.95 M1.23 63.14 C0.21 42.66, 2.12 20.83, -0.34 -1.44 M-0.23 63.11 C0.51 39.72, 1.39 15.07, 0.3 0.57" stroke="#000000" stroke-width="1" fill="none"></path></g><g stroke-opacity="0.5" fill-opacity="0.5" stroke-linecap="round" transform="translate(106 202) rotate(0 32 32)"><path d="M0 0 C0 0, 0 0, 0 0 M0 0 C0 0, 0 0, 0 0 M-0.86 7 C1.47 5.31, 2.75 3.83, 4.68 0.24 M-0.25 6.63 C1.59 4.91, 2.72 2.76, 5 0.19 M1.72 13.31 C3.16 7.2, 8.4 3.48, 11.53 1.05 M-0.58 11.83 C4.32 7.86, 7.63 4.5, 10.34 -0.34 M0.45 19.56 C3.66 13.34, 8.77 9.49, 15.59 0.42 M0.6 19.31 C4.89 11.62, 12.85 4.61, 15.98 0.92 M-1.26 25.65 C8.78 14.29, 15.84 8.26, 23.11 -0.88 M0.21 23.16 C8.38 15.15, 15.89 6.02, 21.78 -0.39 M-1.67 31.37 C4.67 22.92, 12.28 14.26, 28.22 -0.92 M0.64 30.79 C8.26 21.87, 14.43 13.61, 26.7 0.62 M0.18 38.27 C10.98 23.31, 20.78 13.14, 33.77 1.55 M0.21 35.95 C9.72 26.71, 18.33 15.8, 32.26 0.75 M0.05 42.05 C6.7 34.46, 18.27 22.7, 37.51 1.28 M0.91 43.47 C8.74 33.5, 16 25.19, 36.23 0.25 M1.77 50.62 C15.43 29.88, 32.97 13.14, 42.5 -1.75 M-0.69 49.15 C10.09 36.31, 20.23 24.22, 41.69 -0.61 M-1 52.63 C19.57 34.5, 34.94 12.96, 47.08 -0.46 M1.1 55.04 C17.27 36.47, 32.3 18.2, 46.76 0.1 M1.12 59.34 C12.89 49.82, 22.31 33.87, 51.27 -0.88 M0.73 61.1 C10.69 47.98, 21.62 34.79, 53.71 0.5 M1.08 66.87 C14.75 52.68, 23.93 39.53, 58.77 -0.32 M1.86 64.26 C18.06 45.94, 35.44 26.8, 58.64 0.56 M5.25 66.07 C28.56 42.41, 45.83 18.42, 63.3 0.39 M7.05 66 C23.12 46.26, 38.46 27.47, 64.61 0.65 M12.02 63.31 C30.81 44.23, 51.66 20.23, 68.67 1.04 M13.01 65.99 C31.72 44.32, 50.27 22.22, 67.36 1.43 M16.22 66.29 C25.83 54.95, 37.41 39.94, 65.12 7.57 M16.8 65.67 C35.49 45.96, 52.89 24.49, 66.42 8.11 M23.65 64.35 C36.13 50.82, 48.11 39.15, 66.51 13.55 M22.99 65.29 C36.58 48.7, 49.61 34.79, 65.98 13.86 M28.99 66.29 C39.02 52.35, 52.26 37.02, 65.63 21.38 M27.36 65.58 C36.61 53.34, 46.8 42.35, 66.96 21.64 M34.25 64.14 C46.53 50.59, 54.81 40.39, 65.3 25.03 M34.04 64.28 C40.87 56.22, 48.86 47.6, 67.79 26.78 M38.7 67.07 C47.36 57.32, 54.45 49.45, 66.3 33.86 M39.16 65.79 C49.68 52.46, 60.45 41.64, 67.06 33.63 M45.3 65.09 C48.88 56.74, 58.33 50.42, 67.12 39.19 M44.04 65.69 C52 54.4, 61.63 45.46, 67.02 39.8 M50.67 66.95 C52.36 61.92, 56.77 56.06, 67.21 46.33 M48.79 64.44 C54.4 59.35, 59.9 54.75, 67.54 45.1 M54.81 64.7 C57.02 60.05, 62.38 56.4, 68.12 52.65 M54.83 66.56 C58.09 61.05, 61.46 58.91, 67 51.34 M59.1 64.31 C62.45 63.52, 63.98 61.47, 67.39 56.65 M59.92 65.01 C61.71 62.42, 63.57 60.95, 66.98 57.37" stroke="#868e96" stroke-width="0.5" fill="none"></path><path d="M-1.62 1.83 C21.33 0.34, 44.2 0.19, 65.43 1.53 M-0.47 0.3 C13.14 -0.32, 27.39 0.26, 64.36 0.69 M62.76 -0.77 C64.73 15.46, 62.51 26.44, 64.99 65.21 M63.22 -0.85 C64.41 24.08, 64.32 50.08, 64.17 64.56 M62.42 63.14 C43.61 64.35, 24.62 65.4, -1.37 62.46 M63.29 64.57 C48.94 64.79, 34.37 64.95, 0.95 64.47 M-0.86 63.6 C0.75 52.4, 1.13 37.45, -1.44 1.62 M-0.89 63.95 C0.67 51.19, 0.42 37.02, 0.57 0.23" stroke="#000000" stroke-width="1" fill="none"></path></g><g stroke-opacity="0.5" fill-opacity="0.5" stroke-linecap="round" transform="translate(170 202) rotate(0 32 32)"><path d="M0 0 C0 0, 0 0, 0 0 M0 0 C0 0, 0 0, 0 0 M0.34 6.91 C1.11 5.78, 2.08 3.58, 4.86 0.31 M-0.03 6.74 C1.9 4.17, 3.39 2.1, 4.82 0.42 M1.41 11.68 C1.48 10.75, 3.97 7.32, 11.72 0.51 M-0.08 12.8 C3.83 8.27, 8.37 2.96, 10.33 -0.09 M1 17.72 C5.7 11.71, 12.78 5.43, 15.71 1.99 M0.75 17.48 C5.22 13.27, 10.38 6.64, 16.21 0.78 M1.83 25.38 C5.37 17.81, 14.23 11.02, 20.45 1.52 M-0.66 24.18 C6.33 17.01, 12.21 11.16, 20.94 -0.63 M0.89 28.89 C9.08 19.69, 17.03 11.45, 25.03 0.18 M0.32 31.15 C9.37 18.96, 19.09 9.83, 26.58 0.63 M1.14 37.52 C9.41 24, 22.47 13.67, 33.54 -0.21 M-1.18 37.67 C12.73 22.57, 24.97 8.93, 32.75 -0.88 M-0.33 40.92 C12.46 31.74, 21.04 17.96, 37.9 -1.72 M1.09 43.39 C7.71 33.66, 16 22.96, 36.87 0.96 M1.57 48.6 C10.92 36.24, 24.25 21.06, 40.9 -1.19 M0.1 48.53 C11.7 34.17, 24.09 19.92, 42.05 0.7 M-1.66 55.79 C15.92 36.32, 30.03 20.43, 46.83 1 M0.75 55.48 C14.23 38.42, 28.02 22.06, 47.38 -0.72 M-1.61 62.71 C15.73 44.41, 26.7 25.85, 52.45 -1.88 M0.15 60.74 C20.51 36.4, 40.86 14.17, 53.82 -1.14 M3.5 66.17 C15.02 49.68, 27.56 37.11, 57.63 0.26 M0.88 64.31 C19.27 44.99, 36.77 26.55, 58.51 0.78 M7.32 66.84 C24.41 44.19, 41.23 25.71, 64.37 -0.49 M7.25 65.6 C23.84 44.18, 41.41 25.61, 64.64 0.44 M10.6 63.41 C28.73 48.04, 41.88 34.14, 65.42 3.46 M13.28 65.38 C31.06 44.46, 48.34 25.39, 65.81 1.52 M18.21 63.77 C35.13 46.44, 48.4 26.56, 65.29 10.04 M17.58 65.63 C31.57 50.28, 43.79 35.08, 65.84 8.52 M22.31 66.69 C39.32 47.24, 58.19 25.7, 66.02 14.5 M23.24 64.95 C31.56 53.59, 42.57 41.84, 66.33 14.5 M28.87 65.03 C43.17 49.44, 56.04 30.42, 67.2 19.87 M28.16 64.5 C40.2 50.12, 53.5 35.73, 67.45 21.21 M32.76 66.87 C43.6 50.63, 57.77 36.7, 65.6 25.14 M32.9 64.85 C47.08 49.68, 60.65 35.08, 67.35 26 M40.31 66.79 C44.76 59.8, 51.09 50.81, 67.77 34.44 M39.03 65.98 C47.87 54.5, 59.23 42.55, 67.53 32.76 M44.37 62.99 C48.13 60.49, 53.9 54.5, 66.44 40.95 M44.97 64.06 C49.14 58.73, 55.65 52.53, 67.05 38.51 M50.86 64.49 C55.36 59.09, 59.04 53.91, 68.33 44.38 M48.35 65.49 C52.52 61.96, 57.19 57.41, 67.1 44.61 M53.24 65.12 C55.79 63.21, 59.37 59.26, 67.99 50.46 M55.1 66.41 C57.04 62.12, 62.37 57.1, 66.69 50.91 M58.89 66.1 C62.97 62.69, 65.77 59.35, 66.74 56.76 M59.59 65.18 C62.02 61.89, 65.6 58.93, 67.46 57.17" stroke="#868e96" stroke-width="0.5" fill="none"></path><path d="M1.83 -0.94 C14.26 0.18, 28.24 1.95, 65.53 -1.8 M0.3 -0.31 C24.91 0.8, 50.38 0.67, 64.69 -0.78 M63.23 0.74 C65.09 17.59, 61.86 39.12, 65.21 65.77 M63.15 0.99 C63.81 14.32, 64.93 27.02, 64.56 63.95 M63.14 62.49 C51.67 61.87, 39.74 62.13, -1.54 62.78 M64.57 64.23 C46.39 64.5, 28.75 64.5, 0.47 63.05 M-0.4 64.87 C1.12 44.85, -0.73 21.78, 1.62 -1.74 M-0.05 64.12 C0.98 50.18, 0.44 37.2, 0.23 0.19" stroke="#000000" stroke-width="1" fill="none"></path></g><g stroke-opacity="0.5" fill-opacity="0.5" stroke-linecap="round" transform="translate(234 202) rotate(0 32 32)"><path d="M0 0 C0 0, 0 0, 0 0 M0 0 C0 0, 0 0, 0 0 M0.25 6.62 C1.55 5.12, 1.77 3.59, 4.94 0.82 M0.08 6.71 C1.53 4.17, 3.47 1.92, 5.05 0.07 M-0.23 11.07 C5.35 6.73, 8.46 4.36, 11.17 1.05 M0.9 11.91 C4.24 8.67, 6.8 3.88, 10.57 0.42 M-0.85 18.64 C4.29 14.62, 9.16 7.67, 17.28 0.98 M-1.09 18.65 C6.33 11.97, 11.35 5.95, 16.07 0.45 M1.56 22.64 C7.97 17.41, 15.13 8.35, 22.85 -0.5 M0.36 24.42 C7.31 16.15, 15.57 6.96, 20.7 0.45 M-1.59 30.06 C5.4 22.3, 13.31 16.41, 26.13 1.22 M0.68 30.83 C7.53 21.48, 17.47 10.93, 26.59 0.67 M0.38 35.62 C8.57 27, 19.94 17.14, 31.79 1.51 M0.54 37.53 C8.38 27.62, 17.7 17.6, 31.11 -0.12 M-1.46 43.62 C10.7 31.28, 18.26 23.53, 34.9 -1.34 M1.01 42.08 C12.28 28.42, 22.62 15.18, 37.58 0.05 M-0.44 48.03 C13.6 34.41, 24.89 17.6, 41.47 -0.35 M-0.51 48.75 C15.18 30.49, 30.96 11.96, 43.36 -0.01 M1.5 55 C9.43 42.87, 20.91 30.5, 48.29 -0.01 M1.19 54.87 C13.71 38.74, 27 22.09, 46.57 -0.08 M1.76 62.7 C18.78 38.05, 35.57 17.22, 51.44 1.51 M-0.21 61.46 C18.42 38.84, 39.22 16.59, 52.18 -0.95 M2.79 65.64 C15.49 48.17, 32.09 30.1, 58.21 0.19 M0.93 65.26 C14.14 51.27, 28.24 35.89, 58.73 0.21 M8.09 66.45 C27.09 40.82, 50.2 15.82, 63.5 -0.04 M6.85 65.38 C26.15 41.46, 48.34 18.8, 64.43 -0.58 M10.7 66.74 C24.59 51.35, 39.93 34.7, 67.84 2.78 M12.67 65.9 C23.22 52.01, 35.67 36.9, 65.9 2.75 M15.69 66.91 C32.78 45.71, 47.28 28.24, 67.76 8.2 M17.55 66.4 C32.24 48.27, 47.04 30.64, 66.25 9.65 M24.65 64.39 C36.57 52.74, 46.43 36.59, 66.97 12.85 M22.9 64.13 C37.44 48.35, 51.59 30.29, 66.97 15.24 M27.61 65.55 C37.06 54.13, 43.11 46.85, 65.69 21.63 M27.08 64.52 C39.58 51.1, 52.05 39.03, 67.02 21.29 M35.49 63.4 C41.64 55.65, 50.13 42.48, 65.71 28.42 M33.47 64.86 C40.54 57.34, 48.21 49.35, 66.57 25.66 M40.04 65.55 C49.61 54.55, 57.19 44.08, 68.34 33.95 M39.22 64.83 C48.95 54.86, 58.23 43.44, 66.66 32.02 M42.27 63.86 C49.72 59.68, 53.69 54.46, 68.19 38.34 M43.34 64.11 C50.1 58.36, 56 52.37, 65.76 39.13 M48.4 66.39 C53.66 59.25, 59.18 55.26, 66.38 43.15 M49.4 65.01 C56.65 58.66, 62.87 50.73, 66.61 44.66 M53.66 63.97 C60.39 58.76, 65.11 56.13, 65.8 51.47 M54.94 64.81 C59.94 60.57, 64.22 54.32, 66.25 52.09 M60.67 65.59 C62.03 63.86, 63.46 61.31, 66.85 57.82 M59.75 64.78 C62.17 62.71, 64.91 59.77, 67.26 57.06" stroke="#868e96" stroke-width="0.5" fill="none"></path><path d="M-0.94 0.13 C16.79 -0.61, 35.68 0.94, 62.2 1.78 M-0.31 0 C22.91 0.39, 45.19 0.5, 63.22 -0.02 M64.74 1.25 C62.13 15.66, 64.59 36.5, 65.77 62.19 M64.99 -0.8 C64.4 25.61, 63.68 51.13, 63.95 63.03 M62.49 64.65 C46.2 65.43, 30.27 62.19, -1.22 63.56 M64.23 64.19 C39.72 64.71, 14.48 64.83, -0.95 64.19 M0.87 65.51 C1.52 40.53, -1.17 19.36, -1.74 -1.72 M0.12 64.83 C0.43 46.54, 1.14 28.71, 0.19 0.75" stroke="#000000" stroke-width="1" fill="none"></path></g><g stroke-opacity="0.5" fill-opacity="0.5" stroke-linecap="round" transform="translate(10 266) rotate(0 32 32)"><path d="M0 0 C0 0, 0 0, 0 0 M0 0 C0 0, 0 0, 0 0 M-0.04 7.01 C0.96 4.7, 1.93 3.6, 5.44 0.8 M0.05 6.33 C1.23 4.54, 2.71 2.76, 4.7 0.6 M-0.84 13.61 C3.34 8.14, 9.51 2.96, 11.71 0.39 M0.01 12.61 C2.93 9.1, 4.29 6.79, 11.09 -0.06 M0.07 18.22 C6.61 12.51, 10.22 8.24, 16.27 1.47 M0.09 19.41 C5.73 12.19, 12.05 5.52, 15.74 0.38 M-1.17 25.19 C5.65 20.4, 8.66 14.73, 20.83 0.97 M0.61 23.73 C7.03 17.49, 12.51 9.31, 21.78 -0.96 M-0.41 30.08 C3.85 26.13, 10.01 17.51, 27.18 0.85 M0.36 29.59 C10.42 19.79, 19.31 8.72, 26.63 0.15 M-1.51 36.58 C10.75 26.76, 21.82 12.88, 33.51 -0.58 M0.4 36.8 C11.89 24.17, 23.24 10.2, 31.87 -0.73 M1.24 44.33 C9.82 30.95, 22.98 15.85, 35.28 0.64 M-0.3 43.26 C13.34 25.61, 27.44 11.03, 36.67 0.25 M-1.01 50.36 C16.82 29.59, 31.53 9.19, 42.31 1.28 M-0.3 48.13 C10.01 36.31, 20.06 26.04, 42.65 -0.94 M0.71 53.02 C11.72 41, 22.43 29.38, 47.28 0.13 M0.58 54.5 C18.58 32.56, 36.09 11.54, 47.2 0.78 M1.75 61.18 C17.8 36.87, 37.61 15.3, 54.83 1.18 M0.51 60.27 C20.12 38.9, 40.12 14.63, 52.37 -0.55 M2.26 63.89 C16.85 48, 30.92 30.02, 58.14 -1.18 M1.89 64.55 C20.72 45.64, 38.09 25.33, 58.16 1 M7.7 63.61 C20.05 49.64, 33.05 34.91, 63.94 0.98 M6.63 64.61 C25.34 44.24, 45.37 22.11, 63.4 -0.86 M14.03 64.39 C28.88 49.62, 42.39 31.03, 67.16 0.67 M13.18 64.76 C32.52 42.47, 50.71 18.04, 67.13 2.57 M18.83 65.02 C27.47 50.58, 39.87 39.39, 65.92 8.81 M18.32 65.26 C29.29 51.23, 40.77 37.09, 67.37 8.55 M22.35 66.76 C39.22 47.36, 51.57 30.95, 65.33 15.19 M22.08 64.71 C36.54 48.87, 48.74 34.62, 67.72 13.58 M28.13 66.5 C39.73 48.76, 55.5 33.17, 67.45 20.93 M27.1 64.97 C36.47 55.36, 47.2 44.75, 67.1 20.61 M32.02 63.94 C45.99 50.12, 54.54 37.74, 68.99 24.7 M33.48 65.07 C45.54 52.56, 57.11 38.14, 66.23 26.89 M38.79 66.82 C47.36 54.74, 56.5 46.88, 67.86 33.83 M38.07 66.11 C49.4 53.85, 59.3 41.88, 65.93 31.92 M43.14 66.06 C52.02 56.69, 59.87 48.7, 65.59 38.33 M43.39 65.15 C50.33 58.44, 57.04 50, 66.38 39.07 M50.3 64.99 C55.38 58.07, 63.64 49.66, 65.15 46.25 M48.92 66.17 C54.59 60.66, 58.66 54.49, 66.66 45.75 M52.51 67.15 C56.9 62.4, 63.86 55.33, 66.82 53.08 M53.34 66.61 C59.27 60.66, 63.2 54.67, 67.43 50.61 M60.16 65.79 C61.97 63.63, 62.94 61.17, 67.91 57.61 M59.36 65.02 C62.51 62.61, 64.79 60.3, 67.16 56.44" stroke="#868e96" stroke-width="0.5" fill="none"></path><path d="M0.13 -0.33 C14 1.73, 29.56 -1.5, 65.78 1 M0 0.5 C16.75 0.56, 33.03 -0.58, 63.98 -0.24 M65.25 -1.47 C61.77 16.22, 64.96 32.23, 62.19 65.9 M63.2 0.9 C63.78 14.4, 64.02 28.4, 63.03 63.53 M64.65 62.38 C51.55 62.15, 34.14 62.29, -0.44 65.89 M64.19 64.95 C49.68 65.1, 35.15 63.19, 0.19 64.61 M1.51 65.25 C-0.21 46.12, 1.75 29.39, -1.72 -0.45 M0.83 63.87 C0.33 51.06, 0.26 37.18, 0.75 0.65" stroke="#000000" stroke-width="1" fill="none"></path></g><g stroke-opacity="0.5" fill-opacity="0.5" stroke-linecap="round" transform="translate(74 266) rotate(0 32 32)"><path d="M0 0 C0 0, 0 0, 0 0 M0 0 C0 0, 0 0, 0 0 M0.35 6.48 C1.36 3.99, 3.59 2.3, 5.42 0.38 M-0.33 6.34 C1.58 4.03, 3.5 1.75, 5.23 0.76 M1.7 11.15 C5.05 8.61, 8.67 4.02, 11.05 -1.46 M0.71 12.59 C2.6 8.46, 5.7 5.92, 10.61 0.2 M-0.34 20.1 C5.52 12.06, 12.82 6.17, 16.76 1.79 M0.84 18.58 C6.51 11.97, 12.7 4.49, 15.67 -0.44 M1.37 24.95 C9.9 14.29, 17.58 5.54, 22.29 -0.19 M-0.09 24.45 C5.12 18.68, 8.4 14.5, 20.37 -0.91 M-0.39 28.78 C11.26 18.92, 18.21 10.68, 26.8 1.55 M-0.88 31.46 C8.94 20.73, 17.52 10.78, 26.11 0.51 M-0.55 37.8 C13.39 25.06, 23.29 11.35, 31.42 0.83 M-0.33 37.53 C6.48 29.86, 12 21.31, 31.27 -0.15 M1.95 41.24 C11.27 31.65, 18.82 17.35, 37.26 1.8 M0.87 42.27 C13.63 25.98, 29.5 9.08, 36.87 1.21 M1.32 49.44 C16.35 28.61, 31.73 11.14, 43.94 -1.27 M-0.91 48.78 C13 32.69, 28.43 17.45, 41.71 -0.78 M-1.27 54.33 C9.1 42.74, 19.91 32.15, 47.42 1.89 M0.21 55.02 C15.44 35.41, 31.65 16.35, 48.06 0.78 M0.23 59.35 C9.23 46.41, 21.03 35.42, 54.51 1.27 M-0.68 61.4 C17.42 42.14, 32.59 21.46, 52.77 -0.49 M0.52 65.66 C23.94 39.18, 45.33 14.45, 56.77 0.47 M1.18 65.82 C14.96 51.3, 27.28 36.87, 58.95 -0.54 M4.86 66.02 C24.65 44.04, 43.73 21.89, 64.97 0.48 M5.86 65.37 C27.65 43.09, 47.7 18.59, 63.13 -0.37 M11.68 65.61 C26.3 49.91, 37.04 38.34, 65.06 3.75 M12.05 65.84 C34.11 38.99, 54.05 15.7, 66.95 1.86 M16.94 63.78 C33.3 44.34, 52.85 25.52, 66.54 7.75 M17.18 65.37 C33.08 45.84, 48.89 28.99, 66.27 9.15 M24.72 66.43 C33.84 50.78, 46.02 36.61, 67.66 14.49 M22.66 65.48 C36.42 48.3, 51.77 33.17, 66.05 14.97 M29.08 63.75 C40.36 50.51, 53.78 35.4, 66.75 19.65 M27.55 64.71 C41.03 52.26, 53.47 37.66, 66.42 21.18 M32.56 66.1 C40.1 53.87, 49.13 47.34, 65.26 27.36 M33.69 65.18 C42.06 56.49, 48.51 46.53, 67.45 26.55 M40.07 65.79 C48.74 53.76, 61.68 41.32, 67.74 34.03 M39.35 66.24 C48.34 55.07, 57.65 42.31, 65.83 33.43 M45.34 64.88 C51.91 57.1, 59.83 48.37, 65.58 38.89 M44.43 64.99 C53.28 56.06, 60.36 45.79, 66.32 40.02 M48.89 65.05 C56.34 58.83, 62.28 47.87, 68.25 44.07 M50.08 65.95 C53.55 61.21, 56.37 56.45, 67.75 45.25 M55.69 64.16 C58.8 63.53, 59.58 58.79, 68.42 52.58 M55.15 66.31 C59.33 60.16, 63.48 55.27, 65.95 50.68 M60.36 65.66 C61.64 63.17, 62.63 62.58, 67.7 57.11 M59.6 65.64 C61.59 63.65, 63.69 61.25, 66.53 57.33" stroke="#868e96" stroke-width="0.5" fill="none"></path><path d="M-0.33 -0.02 C26.48 1.49, 48.31 1.74, 65 -0.95 M0.5 0.58 C21.46 0.69, 41.41 -0.02, 63.76 -0.62 M62.53 -1.99 C65.22 17.95, 66.01 31.69, 65.9 62.44 M64.9 0.33 C64.81 14.34, 64.58 26.58, 63.53 63.21 M62.38 65.71 C46.18 62.67, 29.88 63.77, 1.89 62.58 M64.95 64.34 C42.12 64.59, 17.38 64.31, 0.61 63.57 M1.25 63.66 C-1.72 47.69, -2.02 26.4, -0.45 -1.78 M-0.13 64.3 C0.49 45.34, 0.11 26.98, 0.65 -0.42" stroke="#000000" stroke-width="1" fill="none"></path></g><g stroke-opacity="0.5" fill-opacity="0.5" stroke-linecap="round" transform="translate(138 266) rotate(0 32 32)"><path d="M0 0 C0 0, 0 0, 0 0 M0 0 C0 0, 0 0, 0 0 M-0.18 6.09 C1.51 4.11, 4 2.4, 5.01 0.82 M-0.32 6.41 C1.55 4.14, 3.45 1.99, 5.38 0.68 M-0.75 12.94 C4.2 9.13, 7.11 5.66, 9.21 -0.46 M0.68 11.75 C4 7.13, 8.91 2.39, 10.86 0.42 M1.53 18.41 C4.1 15.34, 8.82 10.03, 17.08 2.08 M0.02 18.8 C3.64 15.04, 6.39 10.94, 14.85 1.11 M1.14 25.93 C7.29 16.74, 15.33 7.38, 21.14 -1.92 M0.64 24.61 C6.37 16.12, 13.71 8.3, 20.42 0.37 M-1.69 32.45 C4.64 23.77, 12.56 17.79, 27.51 0.91 M0.98 30.93 C9.87 19.97, 19.56 8.4, 26.46 0.99 M0.67 38.76 C12.3 24.55, 22.93 11.9, 32.83 -1.96 M0.4 37.25 C12.55 22.09, 23.87 8.22, 31.85 -0.34 M-1.14 43.15 C9.01 30.91, 14.48 23.98, 38.42 2.16 M-0.11 41.87 C14.55 26.58, 28.59 9.49, 37.83 1.11 M0.39 48.9 C10.59 33.62, 24.11 22.16, 41.39 0.32 M-0.26 48.09 C10.65 37.26, 22.4 22.78, 41.88 -1.11 M0.04 54.13 C16.55 36.07, 34.07 15.55, 49.17 1.17 M0.73 53.82 C18.49 32.36, 36.82 12.56, 48.06 -0.59 M-1.6 59.08 C19.36 35.51, 42.33 14.89, 54.59 0.12 M0.45 61.52 C15.16 43.34, 28.5 26.92, 52.83 0.72 M2.29 65.72 C21 42.53, 41.48 18.12, 58.42 -1.48 M2.45 65.59 C14.49 51.59, 26.66 37.42, 57.41 0.5 M7.27 64.97 C28.05 41.45, 48.7 18.67, 64.47 0.88 M6.62 66.28 C25.59 45.9, 42.33 23.93, 63.62 -1.08 M12.9 66.93 C22.29 52.65, 35.88 36.24, 68.13 4.28 M13.13 65.62 C28.93 43.5, 48.35 23.74, 66.24 2.86 M15.7 64 C26.38 54.41, 37.73 40.85, 65.47 9.31 M17.29 65.3 C31.89 47.01, 49.23 28.85, 66.88 8.48 M24.38 64.6 C39.08 45.28, 55.25 26.58, 66.96 14.99 M23.43 64.07 C35.7 50.4, 49.96 34.67, 67.45 14.91 M26.33 64.34 C39.37 51.62, 50.54 40.12, 65.46 21.25 M27.29 65.68 C37.31 56.48, 45.14 46.47, 66.99 20.43 M34.71 63.23 C45.63 48.65, 62.2 33.04, 67.92 25.09 M33.8 65.71 C43.53 53.44, 51.98 43.3, 67.12 27.36 M39.03 64.84 C50.03 54.6, 60.61 41.92, 67.94 33.77 M39.48 65.6 C49.72 53.23, 58.35 40.62, 67.34 32.96 M44.16 65.53 C48.77 61.31, 52.42 53.52, 66.14 40.77 M44.27 65.43 C49.66 58.72, 53.69 53.87, 67.27 40.11 M48.96 65.59 C55.09 59.51, 56.5 56.1, 66.07 43.18 M49.86 65.92 C55.07 58.36, 60.26 53.04, 67.25 44.43 M52.69 67.12 C59.03 60.81, 61.23 59.56, 67.92 53.11 M54.84 66 C59.05 59.72, 64.5 54.01, 66.02 50.5 M60.23 65.6 C62.21 61.92, 66.07 59.66, 67.2 56.45 M60.22 65.19 C62.35 63.16, 64.08 60.1, 67.42 57.16" stroke="#868e96" stroke-width="0.5" fill="none"></path><path d="M-0.02 1.43 C17.73 -1.69, 34.19 1.11, 63.05 0.59 M0.58 0.36 C17.92 -1.1, 34.45 -0.56, 63.38 -0.38 M62.01 0.99 C65.61 23.34, 62.59 45.03, 62.44 62.31 M64.33 0.17 C64.05 25.48, 62.52 50.59, 63.21 63.57 M65.71 62.63 C48.09 62.26, 34.83 65.37, -1.42 65.14 M64.34 64.95 C43.82 63.66, 22.89 65.22, -0.43 63.8 M-0.34 62.56 C1.14 40.29, -2.21 19.6, -1.78 -0.1 M0.3 64.57 C-0.31 44.21, 0.22 24.71, -0.42 -0.93" stroke="#000000" stroke-width="1" fill="none"></path></g><g stroke-opacity="0.5" fill-opacity="0.5" stroke-linecap="round" transform="translate(202 266) rotate(0 32 32)"><path d="M0 0 C0 0, 0 0, 0 0 M0 0 C0 0, 0 0, 0 0 M-0.57 6.27 C1.36 4.87, 3.57 2.46, 5.45 1.04 M-0.25 6.23 C1.8 3.83, 3.97 2.23, 5.31 0.27 M1.04 13.13 C3.07 10.3, 5.46 4.9, 10.2 1.49 M-0.16 11.74 C2.97 9, 5.99 5.34, 11.08 -0.32 M-0.15 18.53 C6.44 13.34, 10.8 8.54, 17.37 -1.59 M0.23 19.03 C5.21 12.72, 9.87 6.01, 16.4 0.97 M2.12 23.27 C6.51 18.05, 10.75 12.85, 19.41 0.13 M0.79 23.76 C6.81 16.45, 13.49 7.03, 21.7 -0.87 M1.98 29.27 C7.28 23.21, 15.27 15.11, 26.87 1.64 M0.45 30.81 C9.4 20.49, 17.72 10.21, 26.94 0.61 M1.62 38.53 C7.32 29.58, 14.57 20.13, 30.04 1.48 M0.11 37.74 C10.75 23.12, 22.66 9.57, 31.66 -0.9 M0.77 43.54 C10.82 26.16, 26.23 14.29, 38.78 2.01 M-0.51 42.52 C9.93 31.59, 18.62 21.93, 37.73 0.1 M-0.15 47.3 C9.37 36.06, 22.74 22.6, 42.98 -0.91 M-0.95 48.45 C13.16 35.23, 23.58 20.59, 41.55 0.48 M-0.16 53.88 C16.67 36.91, 30.99 21.32, 48.46 2.06 M-0.47 54.44 C14.99 36.07, 32.1 18.96, 46.7 1.1 M-1.87 60.26 C18.81 39.4, 42.45 15.49, 53.44 -0.61 M0.57 61.63 C18.06 38.55, 37.25 17.61, 54.04 0.37 M2.34 64.58 C20.65 43.69, 37.67 22.72, 56.47 -1.38 M2.22 65.47 C20.55 44.12, 38.66 22.79, 58.45 0.88 M6.22 66.05 C26.98 42.5, 48.41 20.06, 64.87 0.09 M7.53 66.31 C24.64 45.88, 40.07 26.85, 62.91 -1.03 M14.22 63.68 C34.52 41.21, 52.65 18.11, 68.66 3.06 M12.91 64.07 C32.53 40.92, 54.48 15.99, 67.24 1.6 M15.92 64.17 C37.1 44, 54.31 22.34, 67.04 9.24 M17.22 64.72 C36.74 43.71, 56.38 20.65, 66.2 9.65 M22.55 64.11 C34.38 49.53, 46.87 37.58, 67.47 14.31 M22.03 64.42 C32.42 54.98, 40.74 44.07, 67.38 14.28 M26.92 65.91 C38.66 52.76, 51.64 37.05, 67.07 19.08 M28.26 66.17 C36.78 56.55, 44.47 46.91, 66.25 21.8 M31.84 63.52 C39.84 58.23, 46.78 48.67, 65.65 26.23 M34.33 65.27 C42.68 53.03, 53.18 42.87, 67.93 27.22 M38.09 66.32 C48.63 56.29, 56.77 46.31, 67.68 34.15 M38.84 66.08 C45.2 56.18, 51.36 49.54, 66.87 31.91 M44.81 64.85 C51.22 57.71, 54.07 51.98, 68.02 37.51 M44.71 65.46 C48.21 59.24, 53.58 54.6, 67.36 38.88 M49.5 66.71 C54.97 56.34, 63.11 50.05, 65.18 45.29 M49.83 65.48 C53.49 59.43, 59.41 54.53, 66.43 44.65 M55.66 66.99 C55.84 62.9, 61.09 60.99, 68.45 52.8 M54.54 65.68 C56.24 63.36, 58.54 58.96, 65.84 52.04 M60.17 64.95 C61.96 63.37, 65.19 59.94, 66.54 56.77 M59.76 65.67 C61.59 63.58, 62.38 62.1, 67.25 56.85" stroke="#868e96" stroke-width="0.5" fill="none"></path><path d="M1.43 1.53 C17.82 1.79, 40.24 -0.94, 64.59 -0.61 M0.36 0.69 C18.45 -0.39, 38.22 -0.99, 63.62 0.37 M64.99 1.21 C65.3 21.39, 65.43 44.84, 62.31 65.98 M64.17 0.56 C64.53 13.11, 64.1 27.38, 63.57 63.24 M62.63 62.46 C41.49 64.11, 23.3 63.13, 1.14 64.45 M64.95 64.47 C42.65 64.41, 23.81 63.79, -0.2 64.43 M-1.44 65.62 C-2.14 38.24, -0.85 14.15, -0.1 0.24 M0.57 64.23 C0.27 40.22, 0.74 14.52, -0.93 0.25" stroke="#000000" stroke-width="1" fill="none"></path></g><g stroke-opacity="0.5" fill-opacity="0.5" stroke-linecap="round" transform="translate(266 266) rotate(0 32 32)"><path d="M0 0 C0 0, 0 0, 0 0 M0 0 C0 0, 0 0, 0 0 M-0.38 6.35 C2.17 4.58, 3.71 2.33, 5.67 0.99 M-0.43 6.46 C0.94 4.93, 3.11 3.3, 4.9 0.12 M1.22 12.58 C5.46 7.6, 7.13 1.94, 12.16 -0.29 M-0.17 11.98 C4.41 7.57, 8.08 3.55, 10.34 0.05 M-0.04 20.1 C4.93 14.35, 10.29 9.71, 13.7 0.75 M0.46 18.89 C6.21 11.25, 11.58 4.79, 16.26 -0.39 M-0.54 25.67 C7.19 16.34, 14.96 4.87, 21.46 0.61 M-0.06 23.53 C6.25 16.69, 10.46 11.63, 20.46 -0.28 M-1.21 30.37 C8.54 22.32, 16.22 13.94, 27.59 0.99 M0.34 30.82 C5.64 23.84, 11.03 18.29, 26.57 -0.34 M1.4 36.77 C10.36 25.55, 18.85 13.62, 33.48 1.21 M0.6 36.1 C8.89 25.32, 18.27 14.89, 31.09 0.45 M1.16 40.55 C13.16 26.29, 30.64 11.3, 38.63 -0.63 M0.13 43.22 C13.76 26.96, 28.64 12.03, 36.72 -0.19 M-1.74 47.86 C15.41 32.09, 30.35 12.87, 41.75 -0.48 M-0.59 49.76 C9.5 37.62, 18.17 26.61, 43.13 0.08 M-0.41 55.34 C10.63 42.47, 23.04 31.4, 49.35 0.84 M0.15 53.62 C13.58 39.52, 28.3 22.21, 48.38 1.09 M-0.69 59.25 C18.71 43.8, 34.99 23.73, 52.72 0.83 M0.68 59.99 C11.22 46.17, 23.95 33.33, 53.69 0.1 M1.21 65.17 C15.08 47.96, 28.9 32.09, 56.57 0.53 M2.09 65.68 C15.15 49.65, 28.28 33.17, 58.83 0.68 M7.3 65.17 C18.55 53.12, 30.95 39.36, 64.08 -0.34 M7.56 66.1 C18.7 50.17, 31.22 35.78, 62.96 0.63 M10.97 66.1 C27.05 46.11, 42.53 33.03, 67.45 4.09 M11.35 64.16 C26.89 47.99, 40.71 31.35, 65.98 3.16 M16.08 66.64 C30.97 49.9, 44.32 34.53, 66.97 10.79 M16.63 65.13 C32.18 49.12, 45.67 32.96, 67.37 8.5 M22.07 65.06 C38.03 46.28, 56.67 26.51, 66.79 12.66 M22.38 65.06 C35.33 50.99, 46.86 38.74, 66.75 14.54 M28.49 64.4 C42.88 49.82, 54.67 34.29, 64.9 19.14 M28.75 65.73 C38.71 53.5, 48.62 41.8, 67.61 20.06 M32.14 63.63 C43.6 53.95, 50.82 44.81, 66.79 26.24 M33.89 64.49 C43 53.28, 54.2 41.9, 67.79 26.6 M39.56 66.89 C50.12 54.23, 60.74 42.04, 68.06 31.86 M39.32 65.21 C48.03 52.1, 60.04 40.96, 65.82 32.35 M44.13 66.61 C51.22 54.81, 59.7 48.13, 64.76 37.61 M44.74 64.17 C51.19 56.42, 59.21 49.26, 66.13 39.83 M50.62 64.76 C52.48 60.83, 58.43 51.98, 67.29 44.33 M49.39 64.98 C55.65 58.16, 63.07 48.98, 66.65 44.04 M55.52 64.8 C59.18 61.91, 64.99 56.51, 68.14 49.6 M54.22 65.25 C59.84 59.19, 63.4 53.36, 67.38 51.6 M59.53 65.06 C63.16 63.02, 64.95 58.98, 66.87 55.98 M60.24 65.47 C61.71 62.65, 63.8 61.27, 66.94 57.25" stroke="#868e96" stroke-width="0.5" fill="none"></path><path d="M1.53 -1.8 C19.91 0.55, 35.31 0.13, 63.39 0.01 M0.69 -0.78 C22.38 -0.47, 44.18 -0.62, 64.37 0.62 M65.21 1.77 C61.56 16.39, 61.81 27.28, 65.98 62.4 M64.56 -0.05 C63.24 24.5, 63.42 49.51, 63.24 64.33 M62.46 62.78 C49.55 65.45, 34.56 64.7, 0.45 64.38 M64.47 63.05 C38.89 65.22, 12.98 64.41, 0.43 64.76 M1.62 62.26 C-1.62 40.36, -1.67 17.53, 0.24 1.67 M0.23 64.19 C0.56 46.31, -0.61 26.39, 0.25 -0.06" stroke="#000000" stroke-width="1" fill="none"></path></g><g transform="translate(143 29.5) rotate(0 27 12.5)"><text x="27" y="18" font-family="Virgil, Segoe UI Emoji" font-size="20px" fill="#5c940d" text-anchor="middle" style="white-space: pre;" direction="ltr">5</text></g><g transform="translate(111 93.5) rotate(0 27 12.5)"><text x="27" y="18" font-family="Virgil, Segoe UI Emoji" font-size="20px" fill="#5c940d" text-anchor="middle" style="white-space: pre;" direction="ltr">3</text></g><g transform="translate(175 93.5) rotate(0 27 12.5)"><text x="27" y="18" font-family="Virgil, Segoe UI Emoji" font-size="20px" fill="#5c940d" text-anchor="middle" style="white-space: pre;" direction="ltr">6</text></g><g transform="translate(79 157.5) rotate(0 27 12.5)"><text x="27" y="18" font-family="Virgil, Segoe UI Emoji" font-size="20px" fill="#5c940d" text-anchor="middle" style="white-space: pre;" direction="ltr">9</text></g><g transform="translate(143 157.5) rotate(0 27 12.5)"><text x="27" y="18" font-family="Virgil, Segoe UI Emoji" font-size="20px" fill="#5c940d" text-anchor="middle" style="white-space: pre;" direction="ltr">3</text></g><g transform="translate(207 157.5) rotate(0 27 12.5)"><text x="27" y="18" font-family="Virgil, Segoe UI Emoji" font-size="20px" fill="#5c940d" text-anchor="middle" style="white-space: pre;" direction="ltr">1</text></g><g transform="translate(47 221.5) rotate(0 27 12.5)"><text x="27" y="18" font-family="Virgil, Segoe UI Emoji" font-size="20px" fill="#5c940d" text-anchor="middle" style="white-space: pre;" direction="ltr">5</text></g><g transform="translate(111 221.5) rotate(0 27 12.5)"><text x="27" y="18" font-family="Virgil, Segoe UI Emoji" font-size="20px" fill="#5c940d" text-anchor="middle" style="white-space: pre;" direction="ltr">2</text></g><g transform="translate(175 221.5) rotate(0 27 12.5)"><text x="27" y="18" font-family="Virgil, Segoe UI Emoji" font-size="20px" fill="#5c940d" text-anchor="middle" style="white-space: pre;" direction="ltr">8</text></g><g transform="translate(239 221.5) rotate(0 27 12.5)"><text x="27" y="18" font-family="Virgil, Segoe UI Emoji" font-size="20px" fill="#5c940d" text-anchor="middle" style="white-space: pre;" direction="ltr">7</text></g><g transform="translate(15 285.5) rotate(0 27 12.5)"><text x="27" y="18" font-family="Virgil, Segoe UI Emoji" font-size="20px" fill="#5c940d" text-anchor="middle" style="white-space: pre;" direction="ltr">6</text></g><g transform="translate(79 285.5) rotate(0 27 12.5)"><text x="27" y="18" font-family="Virgil, Segoe UI Emoji" font-size="20px" fill="#5c940d" text-anchor="middle" style="white-space: pre;" direction="ltr">1</text></g><g transform="translate(143 285.5) rotate(0 27 12.5)"><text x="27" y="18" font-family="Virgil, Segoe UI Emoji" font-size="20px" fill="#5c940d" text-anchor="middle" style="white-space: pre;" direction="ltr">4</text></g><g transform="translate(207 285.5) rotate(0 27 12.5)"><text x="27" y="18" font-family="Virgil, Segoe UI Emoji" font-size="20px" fill="#5c940d" text-anchor="middle" style="white-space: pre;" direction="ltr">7</text></g><g transform="translate(271 285.5) rotate(0 27 12.5)"><text x="27" y="18" font-family="Virgil, Segoe UI Emoji" font-size="20px" fill="#5c940d" text-anchor="middle" style="white-space: pre;" direction="ltr">3</text></g></svg>